NotoSerifTamil-ExtraCondensedMedium.ufo
<glyph name="exclam" format="2">
  <advance width="285.58620689655174"/>
  <unicode hex="0021"/>
  <outline>
    <contour>
      <point x="121.96551724137932" y="203.79310344827584" type="line"/>
      <point x="162.89655172413794" y="203.79310344827584" type="line"/>
      <point x="200.13793103448276" y="714.0" type="line"/>
      <point x="84.72413793103449" y="714.0" type="line"/>
    </contour>
    <contour>
      <point x="143.0689655172414" y="-7.0" type="curve" smooth="yes"/>
      <point x="172.55172413793105" y="-7.0"/>
      <point x="198.48275862068965" y="8.551724137931034"/>
      <point x="198.48275862068965" y="58.0344827586207" type="curve" smooth="yes"/>
      <point x="198.48275862068965" y="107.24137931034483"/>
      <point x="172.55172413793105" y="123.06896551724137"/>
      <point x="143.0689655172414" y="123.06896551724137" type="curve" smooth="yes"/>
      <point x="111.58620689655173" y="123.06896551724137"/>
      <point x="87.6551724137931" y="107.24137931034483"/>
      <point x="87.6551724137931" y="58.0344827586207" type="curve" smooth="yes"/>
      <point x="87.6551724137931" y="8.551724137931034"/>
      <point x="111.58620689655173" y="-7.0"/>
    </contour>
  </outline>
</glyph>
<glyph name="quotedbl" format="2">
  <advance width="366.0689655172414"/>
  <unicode hex="0022"/>
  <outline>
    <contour>
      <point x="245.62068965517238" y="474.44827586206895" type="line"/>
      <point x="290.48275862068965" y="474.44827586206895" type="line"/>
      <point x="315.86206896551727" y="714.0" type="line"/>
      <point x="211.3793103448276" y="714.0" type="line"/>
    </contour>
    <contour>
      <point x="80.24137931034483" y="474.44827586206895" type="line"/>
      <point x="124.37931034482759" y="474.44827586206895" type="line"/>
      <point x="154.6896551724138" y="714.0" type="line"/>
      <point x="49.48275862068966" y="714.0" type="line"/>
    </contour>
  </outline>
</glyph>
<glyph name="numbersign" format="2">
  <advance width="446.58620689655174"/>
  <unicode hex="0023"/>
  <outline>
    <contour>
      <point x="45.379310344827594" y="0.0" type="line"/>
      <point x="103.96551724137933" y="0.0" type="line"/>
      <point x="142.96551724137933" y="206.34482758620692" type="line"/>
      <point x="241.17241379310343" y="206.34482758620692" type="line"/>
      <point x="202.72413793103448" y="0.0" type="line"/>
      <point x="261.3103448275862" y="0.0" type="line"/>
      <point x="300.0344827586207" y="206.34482758620692" type="line"/>
      <point x="405.7586206896552" y="206.34482758620692" type="line"/>
      <point x="405.7586206896552" y="261.48275862068965" type="line"/>
      <point x="310.86206896551727" y="261.48275862068965" type="line"/>
      <point x="348.0344827586207" y="457.51724137931035" type="line"/>
      <point x="437.75862068965523" y="457.51724137931035" type="line"/>
      <point x="437.75862068965523" y="514.3793103448276" type="line"/>
      <point x="358.58620689655174" y="514.3793103448276" type="line"/>
      <point x="396.3103448275862" y="714.0" type="line"/>
      <point x="337.0" y="714.0" type="line"/>
      <point x="299.7241379310345" y="514.3793103448276" type="line"/>
      <point x="201.51724137931035" y="514.3793103448276" type="line"/>
      <point x="238.96551724137933" y="714.0" type="line"/>
      <point x="179.3793103448276" y="714.0" type="line"/>
      <point x="142.6551724137931" y="514.3793103448276" type="line"/>
      <point x="40.10344827586207" y="514.3793103448276" type="line"/>
      <point x="40.10344827586207" y="457.51724137931035" type="line"/>
      <point x="131.10344827586206" y="457.51724137931035" type="line"/>
      <point x="94.6551724137931" y="261.48275862068965" type="line"/>
      <point x="8.10344827586207" y="261.48275862068965" type="line"/>
      <point x="8.10344827586207" y="206.34482758620692" type="line"/>
      <point x="84.10344827586208" y="206.34482758620692" type="line"/>
    </contour>
    <contour>
      <point x="153.51724137931035" y="261.48275862068965" type="line"/>
      <point x="190.96551724137933" y="457.51724137931035" type="line"/>
      <point x="289.44827586206895" y="457.51724137931035" type="line"/>
      <point x="252.27586206896552" y="261.48275862068965" type="line"/>
    </contour>
  </outline>
</glyph>
<glyph name="percent" format="2">
  <advance width="718.7241379310344"/>
  <unicode hex="0025"/>
  <outline>
    <contour>
      <point x="189.75862068965517" y="0.0" type="line"/>
      <point x="247.24137931034483" y="0.0" type="line"/>
      <point x="526.2413793103448" y="714.0" type="line"/>
      <point x="469.48275862068965" y="714.0" type="line"/>
    </contour>
    <contour>
      <point x="168.48275862068965" y="280.0" type="curve" smooth="yes"/>
      <point x="261.2413793103448" y="280.0"/>
      <point x="306.62068965517244" y="369.0"/>
      <point x="306.62068965517244" y="503.0" type="curve"/>
      <point x="306.62068965517244" y="637.0"/>
      <point x="261.2413793103448" y="724.0"/>
      <point x="169.20689655172413" y="724.0" type="curve" smooth="yes"/>
      <point x="71.44827586206897" y="724.0"/>
      <point x="31.068965517241377" y="637.0"/>
      <point x="31.068965517241377" y="503.0" type="curve" smooth="yes"/>
      <point x="31.068965517241377" y="369.0"/>
      <point x="71.44827586206897" y="280.0"/>
    </contour>
    <contour>
      <point x="168.48275862068965" y="318.48275862068965" type="curve" smooth="yes"/>
      <point x="122.13793103448276" y="318.48275862068965"/>
      <point x="106.41379310344828" y="384.6551724137931"/>
      <point x="106.41379310344828" y="503.0" type="curve"/>
      <point x="106.41379310344828" y="619.3448275862069"/>
      <point x="122.13793103448276" y="684.5172413793103"/>
      <point x="169.20689655172413" y="684.5172413793103" type="curve" smooth="yes"/>
      <point x="215.82758620689654" y="684.5172413793103"/>
      <point x="230.2758620689655" y="619.3448275862069"/>
      <point x="230.2758620689655" y="503.0" type="curve" smooth="yes"/>
      <point x="230.2758620689655" y="384.6551724137931"/>
      <point x="215.82758620689654" y="318.48275862068965"/>
    </contour>
    <contour>
      <point x="549.5172413793103" y="-10.0" type="curve" smooth="yes"/>
      <point x="642.551724137931" y="-10.0"/>
      <point x="687.655172413793" y="79.0"/>
      <point x="687.655172413793" y="213.0" type="curve" smooth="yes"/>
      <point x="687.655172413793" y="347.0"/>
      <point x="642.551724137931" y="434.0"/>
      <point x="550.5172413793103" y="434.0" type="curve" smooth="yes"/>
      <point x="453.48275862068965" y="434.0"/>
      <point x="412.37931034482756" y="347.0"/>
      <point x="412.37931034482756" y="213.0" type="curve" smooth="yes"/>
      <point x="412.37931034482756" y="79.0"/>
      <point x="453.48275862068965" y="-10.0"/>
    </contour>
    <contour>
      <point x="549.5172413793103" y="28.48275862068966" type="curve" smooth="yes"/>
      <point x="503.4482758620689" y="28.48275862068966"/>
      <point x="487.7241379310344" y="94.65517241379311"/>
      <point x="487.7241379310344" y="213.0" type="curve" smooth="yes"/>
      <point x="487.7241379310344" y="329.3448275862069"/>
      <point x="503.4482758620689" y="394.51724137931035"/>
      <point x="549.7931034482758" y="394.51724137931035" type="curve" smooth="yes"/>
      <point x="596.8620689655172" y="394.51724137931035"/>
      <point x="611.5862068965517" y="329.3448275862069"/>
      <point x="611.5862068965517" y="213.0" type="curve" smooth="yes"/>
      <point x="611.5862068965517" y="94.65517241379311"/>
      <point x="596.8620689655172" y="28.48275862068966"/>
    </contour>
  </outline>
</glyph>
<glyph name="quotesingle" format="2">
  <advance width="204.89655172413794"/>
  <unicode hex="0027"/>
  <outline>
    <contour>
      <point x="80.24137931034483" y="474.44827586206895" type="line"/>
      <point x="124.37931034482759" y="474.44827586206895" type="line"/>
      <point x="154.6896551724138" y="714.0" type="line"/>
      <point x="49.48275862068966" y="714.0" type="line"/>
    </contour>
  </outline>
</glyph>
<glyph name="parenleft" format="2">
  <advance width="296.9655172413793"/>
  <unicode hex="0028"/>
  <outline>
    <contour>
      <point x="272.6896551724138" y="-129.20689655172416" type="curve"/>
      <point x="272.6896551724138" y="-81.3448275862069" type="line"/>
      <point x="168.3448275862069" y="1.3793103448275863"/>
      <point x="151.86206896551724" y="158.0"/>
      <point x="151.86206896551724" y="317.0" type="curve" smooth="yes"/>
      <point x="151.86206896551724" y="476.0"/>
      <point x="168.3448275862069" y="630.8965517241379"/>
      <point x="272.6896551724138" y="714.6206896551723" type="curve"/>
      <point x="272.6896551724138" y="760.7586206896551" type="line"/>
      <point x="109.86206896551724" y="687.1724137931034"/>
      <point x="45.275862068965516" y="554.7586206896551"/>
      <point x="45.275862068965516" y="317.0" type="curve" smooth="yes"/>
      <point x="45.275862068965516" y="78.51724137931033"/>
      <point x="109.86206896551724" y="-53.89655172413793"/>
    </contour>
  </outline>
</glyph>
<glyph name="parenright" format="2">
  <advance width="296.9655172413793"/>
  <unicode hex="0029"/>
  <outline>
    <contour>
      <point x="25.0" y="-129.20689655172416" type="line"/>
      <point x="188.10344827586206" y="-53.89655172413793"/>
      <point x="252.41379310344826" y="78.51724137931033"/>
      <point x="252.41379310344826" y="317.0" type="curve" smooth="yes"/>
      <point x="252.41379310344826" y="554.7586206896551"/>
      <point x="188.10344827586206" y="687.1724137931034"/>
      <point x="25.0" y="760.7586206896551" type="curve"/>
      <point x="25.0" y="714.6206896551723" type="line"/>
      <point x="129.34482758620692" y="630.8965517241379"/>
      <point x="146.55172413793105" y="476.0"/>
      <point x="146.55172413793105" y="317.0" type="curve" smooth="yes"/>
      <point x="146.55172413793105" y="158.0"/>
      <point x="129.34482758620692" y="1.3793103448275863"/>
      <point x="25.0" y="-81.3448275862069" type="curve"/>
    </contour>
  </outline>
</glyph>
<glyph name="asterisk" format="2">
  <advance width="382.62068965517244"/>
  <unicode hex="002A"/>
  <outline>
    <contour>
      <point x="153.82758620689657" y="372.34482758620686" type="line"/>
      <point x="230.62068965517238" y="372.34482758620686" type="line"/>
      <point x="205.9655172413793" y="538.0689655172414" type="line"/>
      <point x="321.7931034482759" y="442.86206896551727" type="line"/>
      <point x="353.2758620689655" y="517.3793103448276" type="line"/>
      <point x="230.55172413793102" y="566.1724137931035" type="line"/>
      <point x="353.2758620689655" y="614.9655172413793" type="line"/>
      <point x="321.7931034482759" y="691.2068965517241" type="line"/>
      <point x="205.9655172413793" y="594.2758620689656" type="line"/>
      <point x="230.6206896551724" y="760.0" type="line"/>
      <point x="153.82758620689657" y="760.0" type="line"/>
      <point x="176.75862068965517" y="593.2758620689655" type="line"/>
      <point x="61.37931034482758" y="693.2068965517241" type="line"/>
      <point x="30.17241379310345" y="615.9655172413793" type="line"/>
      <point x="153.17241379310346" y="566.1724137931035" type="line"/>
      <point x="30.17241379310345" y="516.3793103448276" type="line"/>
      <point x="61.37931034482758" y="441.1379310344828" type="line"/>
      <point x="175.75862068965517" y="539.3448275862069" type="line"/>
    </contour>
  </outline>
</glyph>
<glyph name="plus" format="2">
  <advance width="425.0"/>
  <unicode hex="002B"/>
  <outline>
    <contour>
      <point x="180.6206896551724" y="143.0" type="line"/>
      <point x="242.65517241379308" y="143.0" type="line"/>
      <point x="242.65517241379308" y="327.62068965517244" type="line"/>
      <point x="383.37931034482756" y="327.62068965517244" type="line"/>
      <point x="383.37931034482756" y="387.37931034482756" type="line"/>
      <point x="242.65517241379308" y="387.37931034482756" type="line"/>
      <point x="242.65517241379308" y="572.0" type="line"/>
      <point x="180.6206896551724" y="572.0" type="line"/>
      <point x="180.6206896551724" y="387.37931034482756" type="line"/>
      <point x="41.62068965517241" y="387.37931034482756" type="line"/>
      <point x="41.62068965517241" y="327.62068965517244" type="line"/>
      <point x="180.6206896551724" y="327.62068965517244" type="line"/>
    </contour>
  </outline>
</glyph>
<glyph name="comma" format="2">
  <advance width="217.20689655172416"/>
  <unicode hex="002C"/>
  <outline>
    <contour>
      <point x="34.20689655172414" y="-154.0" type="line"/>
      <point x="128.34482758620692" y="-121.72413793103448"/>
      <point x="163.72413793103448" y="-50.89655172413793"/>
      <point x="163.72413793103448" y="27.93103448275862" type="curve" smooth="yes"/>
      <point x="163.72413793103448" y="88.13793103448276"/>
      <point x="139.44827586206898" y="123.06896551724137"/>
      <point x="100.41379310344828" y="123.06896551724137" type="curve" smooth="yes"/>
      <point x="71.75862068965517" y="123.06896551724137"/>
      <point x="49.103448275862064" y="102.24137931034483"/>
      <point x="49.103448275862064" y="67.3103448275862" type="curve" smooth="yes"/>
      <point x="49.103448275862064" y="8.620689655172415"/>
      <point x="101.75862068965517" y="11.000000000000002"/>
      <point x="101.75862068965517" y="-25.724137931034484" type="curve" smooth="yes"/>
      <point x="101.75862068965517" y="-61.0"/>
      <point x="79.20689655172414" y="-94.24137931034483"/>
      <point x="34.20689655172414" y="-113.51724137931035" type="curve"/>
    </contour>
  </outline>
</glyph>
<glyph name="hyphen" format="2">
  <advance width="247.93103448275863"/>
  <unicode hex="002D"/>
  <outline>
    <contour>
      <point x="20.275862068965516" y="232.9655172413793" type="line"/>
      <point x="227.93103448275863" y="232.9655172413793" type="line"/>
      <point x="227.93103448275863" y="312.03448275862064" type="line"/>
      <point x="20.275862068965516" y="312.03448275862064" type="line"/>
    </contour>
  </outline>
</glyph>
<glyph name="period" format="2">
  <advance width="217.20689655172416"/>
  <unicode hex="002E"/>
  <outline>
    <contour>
      <point x="108.96551724137933" y="-7.0" type="curve" smooth="yes"/>
      <point x="138.44827586206895" y="-7.0"/>
      <point x="164.6551724137931" y="8.551724137931034"/>
      <point x="164.6551724137931" y="58.0344827586207" type="curve" smooth="yes"/>
      <point x="164.6551724137931" y="107.24137931034483"/>
      <point x="138.44827586206895" y="123.06896551724137"/>
      <point x="108.96551724137933" y="123.06896551724137" type="curve" smooth="yes"/>
      <point x="77.48275862068967" y="123.06896551724137"/>
      <point x="52.55172413793104" y="107.24137931034483"/>
      <point x="52.55172413793104" y="58.0344827586207" type="curve" smooth="yes"/>
      <point x="52.55172413793104" y="8.551724137931034"/>
      <point x="77.48275862068967" y="-7.0"/>
    </contour>
  </outline>
</glyph>
<glyph name="slash" format="2">
  <advance width="229.93103448275863"/>
  <unicode hex="002F"/>
  <outline>
    <contour>
      <point x="0.0" y="-121.0" type="line"/>
      <point x="53.03448275862069" y="-121.0" type="line"/>
      <point x="229.93103448275863" y="760.0" type="line"/>
      <point x="179.17241379310343" y="760.0" type="line"/>
    </contour>
  </outline>
</glyph>
<glyph name="zero" format="2">
  <advance width="445.86206896551727"/>
  <unicode hex="0030"/>
  <outline>
    <contour>
      <point x="222.93103448275863" y="-10.0" type="curve" smooth="yes"/>
      <point x="357.7931034482759" y="-10.0"/>
      <point x="413.51724137931035" y="126.37931034482759"/>
      <point x="413.51724137931035" y="358.0" type="curve" smooth="yes"/>
      <point x="413.51724137931035" y="592.3448275862069"/>
      <point x="360.2413793103448" y="724.0"/>
      <point x="223.93103448275863" y="724.0" type="curve" smooth="yes"/>
      <point x="79.34482758620689" y="724.0"/>
      <point x="31.068965517241377" y="587.1724137931035"/>
      <point x="31.068965517241377" y="359.0" type="curve" smooth="yes"/>
      <point x="31.068965517241377" y="122.93103448275862"/>
      <point x="81.79310344827586" y="-10.0"/>
    </contour>
    <contour>
      <point x="222.93103448275863" y="42.758620689655174" type="curve" smooth="yes"/>
      <point x="152.79310344827584" y="42.758620689655174"/>
      <point x="133.10344827586206" y="158.6551724137931"/>
      <point x="133.10344827586206" y="358.0" type="curve" smooth="yes"/>
      <point x="133.10344827586206" y="557.3448275862069"/>
      <point x="152.79310344827584" y="671.2413793103448"/>
      <point x="223.93103448275863" y="671.2413793103448" type="curve" smooth="yes"/>
      <point x="292.7931034482758" y="671.2413793103448"/>
      <point x="313.48275862068965" y="557.3448275862069"/>
      <point x="313.48275862068965" y="358.0" type="curve" smooth="yes"/>
      <point x="313.48275862068965" y="158.6551724137931"/>
      <point x="292.7931034482758" y="42.758620689655174"/>
    </contour>
  </outline>
</glyph>
<glyph name="one" format="2">
  <advance width="445.86206896551727"/>
  <unicode hex="0031"/>
  <outline>
    <contour>
      <point x="76.79310344827587" y="0.0" type="line"/>
      <point x="385.3793103448276" y="0.0" type="line"/>
      <point x="385.3793103448276" y="43.206896551724135" type="line"/>
      <point x="348.62068965517244" y="43.206896551724135" type="line" smooth="yes"/>
      <point x="309.72413793103453" y="43.206896551724135"/>
      <point x="284.3793103448276" y="55.41379310344828"/>
      <point x="284.3793103448276" y="113.82758620689654" type="curve" smooth="yes"/>
      <point x="284.3793103448276" y="718.0" type="line"/>
      <point x="218.62068965517244" y="718.0" type="line"/>
      <point x="163.06896551724137" y="667.551724137931" type="line" smooth="yes"/>
      <point x="110.24137931034483" y="618.8275862068965"/>
      <point x="74.86206896551724" y="601.8275862068965"/>
      <point x="42.862068965517246" y="591.8275862068965" type="curve"/>
      <point x="42.862068965517246" y="558.0689655172414"/>
      <point x="60.96551724137931" y="537.1379310344828"/>
      <point x="85.51724137931035" y="537.1379310344828" type="curve" smooth="yes"/>
      <point x="117.06896551724137" y="537.1379310344828"/>
      <point x="149.3448275862069" y="577.4827586206897"/>
      <point x="188.6206896551724" y="634.7586206896551" type="curve"/>
      <point x="188.6206896551724" y="113.82758620689654" type="line" smooth="yes"/>
      <point x="188.6206896551724" y="51.310344827586206"/>
      <point x="162.17241379310346" y="43.206896551724135"/>
      <point x="124.37931034482759" y="43.206896551724135" type="curve" smooth="yes"/>
      <point x="76.79310344827587" y="43.206896551724135" type="line"/>
    </contour>
  </outline>
</glyph>
<glyph name="two" format="2">
  <advance width="445.86206896551727"/>
  <unicode hex="0032"/>
  <outline>
    <contour>
      <point x="34.79310344827586" y="0.0" type="line"/>
      <point x="401.8965517241379" y="0.0" type="line"/>
      <point x="405.17241379310343" y="177.72413793103448" type="line"/>
      <point x="362.86206896551727" y="177.72413793103448" type="line"/>
      <point x="358.03448275862064" y="156.24137931034483" type="line" smooth="yes"/>
      <point x="347.48275862068965" y="109.24137931034483"/>
      <point x="331.44827586206895" y="83.3448275862069"/>
      <point x="291.0344827586207" y="83.3448275862069" type="curve" smooth="yes"/>
      <point x="108.58620689655173" y="83.3448275862069" type="line"/>
      <point x="241.00000000000003" y="254.31034482758622" type="line" smooth="yes"/>
      <point x="325.1379310344828" y="361.86206896551727"/>
      <point x="386.8965517241379" y="438.3448275862069"/>
      <point x="386.8965517241379" y="553.448275862069" type="curve" smooth="yes"/>
      <point x="386.8965517241379" y="655.0"/>
      <point x="322.0689655172414" y="724.0"/>
      <point x="210.10344827586206" y="724.0" type="curve" smooth="yes"/>
      <point x="97.51724137931035" y="724.0"/>
      <point x="41.41379310344828" y="663.5172413793103"/>
      <point x="41.41379310344828" y="593.0689655172414" type="curve" smooth="yes"/>
      <point x="41.41379310344828" y="539.2068965517241"/>
      <point x="82.0" y="523.3793103448276"/>
      <point x="124.41379310344827" y="523.3793103448276" type="curve"/>
      <point x="124.41379310344827" y="606.8275862068965"/>
      <point x="142.79310344827587" y="672.7931034482758"/>
      <point x="210.10344827586206" y="672.7931034482758" type="curve" smooth="yes"/>
      <point x="259.9655172413793" y="672.7931034482758"/>
      <point x="285.6896551724138" y="625.1034482758621"/>
      <point x="285.6896551724138" y="545.551724137931" type="curve" smooth="yes"/>
      <point x="285.6896551724138" y="447.448275862069"/>
      <point x="256.58620689655174" y="379.3448275862069"/>
      <point x="167.82758620689654" y="256.41379310344826" type="curve" smooth="yes"/>
      <point x="34.79310344827586" y="72.51724137931035" type="line"/>
    </contour>
  </outline>
</glyph>
<glyph name="three" format="2">
  <advance width="445.86206896551727"/>
  <unicode hex="0033"/>
  <outline>
    <contour>
      <point x="198.55172413793105" y="-10.0" type="curve" smooth="yes"/>
      <point x="305.6896551724138" y="-10.0"/>
      <point x="407.62068965517244" y="43.0"/>
      <point x="407.62068965517244" y="197.3793103448276" type="curve" smooth="yes"/>
      <point x="407.62068965517244" y="321.3448275862069"/>
      <point x="334.6206896551724" y="367.1724137931035"/>
      <point x="267.0689655172414" y="378.2758620689655" type="curve"/>
      <point x="335.7931034482759" y="400.9310344827586"/>
      <point x="387.3448275862069" y="469.0"/>
      <point x="387.3448275862069" y="559.0" type="curve" smooth="yes"/>
      <point x="387.3448275862069" y="665.0"/>
      <point x="318.9655172413793" y="724.0"/>
      <point x="217.0" y="724.0" type="curve" smooth="yes"/>
      <point x="104.41379310344827" y="724.0"/>
      <point x="47.58620689655172" y="662.8965517241379"/>
      <point x="47.58620689655172" y="590.7241379310344" type="curve" smooth="yes"/>
      <point x="47.58620689655172" y="543.9655172413793"/>
      <point x="82.79310344827586" y="527.5862068965516"/>
      <point x="126.0344827586207" y="527.5862068965516" type="curve"/>
      <point x="126.0344827586207" y="606.5862068965517"/>
      <point x="148.48275862068965" y="672.7931034482758"/>
      <point x="209.72413793103445" y="672.7931034482758" type="curve" smooth="yes"/>
      <point x="260.4137931034483" y="672.7931034482758"/>
      <point x="286.86206896551727" y="627.0689655172414"/>
      <point x="286.86206896551727" y="549.448275862069" type="curve" smooth="yes"/>
      <point x="286.86206896551727" y="454.82758620689657"/>
      <point x="251.17241379310346" y="396.10344827586204"/>
      <point x="181.17241379310346" y="396.10344827586204" type="curve"/>
      <point x="137.75862068965517" y="396.10344827586204" type="line"/>
      <point x="137.75862068965517" y="346.3448275862069" type="line"/>
      <point x="179.3448275862069" y="346.3448275862069" type="line" smooth="yes"/>
      <point x="265.41379310344826" y="346.3448275862069"/>
      <point x="306.86206896551727" y="289.62068965517244"/>
      <point x="306.86206896551727" y="198.3793103448276" type="curve" smooth="yes"/>
      <point x="306.86206896551727" y="86.37931034482759"/>
      <point x="255.51724137931035" y="45.310344827586206"/>
      <point x="197.0" y="45.310344827586206" type="curve" smooth="yes"/>
      <point x="136.10344827586206" y="45.310344827586206"/>
      <point x="97.27586206896551" y="98.75862068965517"/>
      <point x="97.27586206896551" y="170.79310344827584" type="curve"/>
      <point x="63.344827586206904" y="170.79310344827584"/>
      <point x="37.586206896551715" y="146.24137931034483"/>
      <point x="37.586206896551715" y="105.03448275862068" type="curve" smooth="yes"/>
      <point x="37.586206896551715" y="41.827586206896555"/>
      <point x="85.86206896551724" y="-10.0"/>
    </contour>
  </outline>
</glyph>
<glyph name="four" format="2">
  <advance width="445.86206896551727"/>
  <unicode hex="0034"/>
  <outline>
    <contour>
      <point x="159.20689655172413" y="0.0" type="line"/>
      <point x="418.3448275862069" y="0.0" type="line"/>
      <point x="418.3448275862069" y="43.206896551724135" type="line"/>
      <point x="408.06896551724134" y="43.206896551724135" type="line" smooth="yes"/>
      <point x="371.06896551724134" y="43.206896551724135"/>
      <point x="341.7931034482758" y="52.206896551724135"/>
      <point x="341.7931034482758" y="115.20689655172414" type="curve" smooth="yes"/>
      <point x="341.7931034482758" y="195.06896551724137" type="line"/>
      <point x="431.7586206896552" y="195.06896551724137" type="line"/>
      <point x="431.7586206896552" y="252.0" type="line"/>
      <point x="341.7931034482758" y="252.0" type="line"/>
      <point x="341.7931034482758" y="714.0" type="line"/>
      <point x="245.86206896551724" y="714.0" type="line"/>
      <point x="12.448275862068964" y="237.93103448275863" type="line"/>
      <point x="12.448275862068964" y="195.06896551724137" type="line"/>
      <point x="247.0344827586207" y="195.06896551724137" type="line"/>
      <point x="247.0344827586207" y="115.20689655172414" type="line" smooth="yes"/>
      <point x="247.0344827586207" y="52.206896551724135"/>
      <point x="218.48275862068968" y="43.206896551724135"/>
      <point x="180.75862068965517" y="43.206896551724135" type="curve" smooth="yes"/>
      <point x="159.20689655172413" y="43.206896551724135" type="line"/>
    </contour>
    <contour>
      <point x="72.10344827586206" y="252.0" type="line"/>
      <point x="182.24137931034483" y="480.4827586206897" type="line" smooth="yes"/>
      <point x="203.24137931034483" y="524.3103448275862"/>
      <point x="239.48275862068968" y="604.3448275862069"/>
      <point x="252.0344827586207" y="639.3793103448276" type="curve"/>
      <point x="248.0344827586207" y="577.3793103448276"/>
      <point x="247.0344827586207" y="498.17241379310343"/>
      <point x="247.0344827586207" y="440.17241379310343" type="curve" smooth="yes"/>
      <point x="247.0344827586207" y="252.0" type="line"/>
    </contour>
  </outline>
</glyph>
<glyph name="five" format="2">
  <advance width="445.86206896551727"/>
  <unicode hex="0035"/>
  <outline>
    <contour>
      <point x="194.93103448275863" y="-10.0" type="curve" smooth="yes"/>
      <point x="303.6896551724138" y="-10.0"/>
      <point x="395.17241379310343" y="77.55172413793103"/>
      <point x="395.17241379310343" y="218.27586206896552" type="curve" smooth="yes"/>
      <point x="395.17241379310343" y="358.82758620689657"/>
      <point x="315.7931034482759" y="430.10344827586204"/>
      <point x="199.55172413793105" y="430.10344827586204" type="curve" smooth="yes"/>
      <point x="167.48275862068965" y="430.10344827586204"/>
      <point x="130.55172413793105" y="421.37931034482756"/>
      <point x="110.82758620689654" y="412.37931034482756" type="curve"/>
      <point x="127.55172413793105" y="629.9310344827586" type="line"/>
      <point x="285.41379310344826" y="629.9310344827586" type="line" smooth="yes"/>
      <point x="315.7586206896552" y="629.9310344827586"/>
      <point x="316.58620689655174" y="618.3793103448277"/>
      <point x="325.3103448275862" y="581.5862068965516" type="curve" smooth="yes"/>
      <point x="330.8620689655172" y="558.6551724137931" type="line"/>
      <point x="372.62068965517244" y="558.6551724137931" type="line"/>
      <point x="369.62068965517244" y="713.0" type="line"/>
      <point x="89.06896551724137" y="713.0" type="line"/>
      <point x="61.517241379310335" y="362.6551724137931" type="line"/>
      <point x="83.55172413793103" y="351.0" type="line"/>
      <point x="105.93103448275862" y="362.17241379310343"/>
      <point x="138.55172413793105" y="376.3448275862069"/>
      <point x="181.34482758620692" y="376.3448275862069" type="curve" smooth="yes"/>
      <point x="250.0689655172414" y="376.3448275862069"/>
      <point x="293.6896551724138" y="322.44827586206895"/>
      <point x="293.6896551724138" y="218.27586206896552" type="curve" smooth="yes"/>
      <point x="293.6896551724138" y="86.93103448275863"/>
      <point x="246.96551724137933" y="44.03448275862069"/>
      <point x="186.72413793103448" y="44.03448275862069" type="curve" smooth="yes"/>
      <point x="122.17241379310344" y="44.03448275862069"/>
      <point x="94.37931034482759" y="100.79310344827587"/>
      <point x="94.37931034482759" y="160.51724137931035" type="curve"/>
      <point x="60.44827586206896" y="160.51724137931035"/>
      <point x="37.51724137931034" y="135.51724137931035"/>
      <point x="37.51724137931034" y="97.86206896551724" type="curve" smooth="yes"/>
      <point x="37.51724137931034" y="51.0"/>
      <point x="75.55172413793103" y="-10.0"/>
    </contour>
  </outline>
</glyph>
<glyph name="six" format="2">
  <advance width="445.86206896551727"/>
  <unicode hex="0036"/>
  <outline>
    <contour>
      <point x="233.93103448275863" y="-10.0" type="curve" smooth="yes"/>
      <point x="348.06896551724134" y="-10.0"/>
      <point x="411.6206896551724" y="88.0"/>
      <point x="411.6206896551724" y="229.27586206896552" type="curve" smooth="yes"/>
      <point x="411.6206896551724" y="356.82758620689657"/>
      <point x="348.06896551724134" y="433.82758620689657"/>
      <point x="253.9655172413793" y="433.82758620689657" type="curve" smooth="yes"/>
      <point x="198.41379310344828" y="433.82758620689657"/>
      <point x="163.79310344827587" y="407.48275862068965"/>
      <point x="140.34482758620692" y="382.86206896551727" type="curve"/>
      <point x="143.89655172413794" y="573.6206896551724"/>
      <point x="180.24137931034483" y="674.7931034482758"/>
      <point x="249.9310344827586" y="674.7931034482758" type="curve" smooth="yes"/>
      <point x="299.44827586206895" y="674.7931034482758"/>
      <point x="321.17241379310343" y="626.5862068965516"/>
      <point x="321.17241379310343" y="557.0344827586207" type="curve"/>
      <point x="370.5172413793103" y="557.0344827586207"/>
      <point x="394.62068965517244" y="578.5172413793103"/>
      <point x="394.62068965517244" y="617.8965517241379" type="curve" smooth="yes"/>
      <point x="394.62068965517244" y="672.7241379310344"/>
      <point x="348.6206896551724" y="724.0"/>
      <point x="253.20689655172413" y="724.0" type="curve" smooth="yes"/>
      <point x="108.72413793103449" y="724.0"/>
      <point x="42.241379310344826" y="582.2758620689655"/>
      <point x="42.241379310344826" y="338.6206896551724" type="curve" smooth="yes"/>
      <point x="42.241379310344826" y="97.0"/>
      <point x="122.06896551724138" y="-10.0"/>
    </contour>
    <contour>
      <point x="235.93103448275863" y="42.758620689655174" type="curve" smooth="yes"/>
      <point x="178.51724137931035" y="42.758620689655174"/>
      <point x="141.34482758620692" y="136.0344827586207"/>
      <point x="139.6206896551724" y="328.93103448275866" type="curve"/>
      <point x="157.79310344827584" y="352.0"/>
      <point x="187.13793103448276" y="383.0689655172414"/>
      <point x="232.3793103448276" y="383.0689655172414" type="curve" smooth="yes"/>
      <point x="285.7931034482759" y="383.0689655172414"/>
      <point x="314.9655172413793" y="333.17241379310343"/>
      <point x="314.9655172413793" y="219.27586206896552" type="curve" smooth="yes"/>
      <point x="314.9655172413793" y="96.93103448275862"/>
      <point x="286.3448275862069" y="42.758620689655174"/>
    </contour>
  </outline>
</glyph>
<glyph name="seven" format="2">
  <advance width="445.86206896551727"/>
  <unicode hex="0037"/>
  <outline>
    <contour>
      <point x="132.24137931034483" y="0.0" type="line"/>
      <point x="199.20689655172416" y="0.0" type="line"/>
      <point x="407.96551724137936" y="681.8620689655172" type="line"/>
      <point x="407.96551724137936" y="713.0" type="line"/>
      <point x="44.89655172413793" y="713.0" type="line"/>
      <point x="39.89655172413793" y="528.9310344827586" type="line"/>
      <point x="84.93103448275862" y="528.9310344827586" type="line"/>
      <point x="89.20689655172414" y="576.2068965517241" type="line" smooth="yes"/>
      <point x="92.48275862068967" y="613.655172413793"/>
      <point x="104.75862068965517" y="629.9310344827586"/>
      <point x="134.0344827586207" y="629.9310344827586" type="curve" smooth="yes"/>
      <point x="341.37931034482756" y="629.9310344827586" type="line"/>
    </contour>
  </outline>
</glyph>
<glyph name="eight" format="2">
  <advance width="445.86206896551727"/>
  <unicode hex="0038"/>
  <outline>
    <contour>
      <point x="219.6551724137931" y="-10.0" type="curve" smooth="yes"/>
      <point x="341.5172413793103" y="-10.0"/>
      <point x="415.6206896551724" y="61.37931034482759"/>
      <point x="415.6206896551724" y="179.10344827586206" type="curve" smooth="yes"/>
      <point x="415.6206896551724" y="283.2758620689655"/>
      <point x="367.10344827586204" y="335.0"/>
      <point x="287.06896551724134" y="380.65517241379314" type="curve"/>
      <point x="351.8965517241379" y="416.6551724137931"/>
      <point x="392.8965517241379" y="466.8275862068965"/>
      <point x="392.8965517241379" y="558.2758620689656" type="curve" smooth="yes"/>
      <point x="392.8965517241379" y="654.448275862069"/>
      <point x="334.06896551724134" y="724.0"/>
      <point x="226.20689655172413" y="724.0" type="curve" smooth="yes"/>
      <point x="103.79310344827586" y="724.0"/>
      <point x="49.24137931034483" y="645.448275862069"/>
      <point x="49.24137931034483" y="547.1724137931035" type="curve" smooth="yes"/>
      <point x="49.24137931034483" y="457.89655172413796"/>
      <point x="91.9655172413793" y="407.1724137931035"/>
      <point x="153.06896551724137" y="366.17241379310343" type="curve"/>
      <point x="85.9655172413793" y="331.0"/>
      <point x="31.96551724137931" y="275.55172413793105"/>
      <point x="31.96551724137931" y="173.0" type="curve" smooth="yes"/>
      <point x="31.96551724137931" y="70.82758620689656"/>
      <point x="92.24137931034483" y="-10.0"/>
    </contour>
    <contour>
      <point x="221.93103448275863" y="40.93103448275862" type="curve" smooth="yes"/>
      <point x="159.24137931034483" y="40.93103448275862"/>
      <point x="122.24137931034484" y="89.82758620689656"/>
      <point x="122.24137931034484" y="177.10344827586206" type="curve" smooth="yes"/>
      <point x="122.24137931034484" y="250.44827586206895"/>
      <point x="147.86206896551724" y="304.7931034482759"/>
      <point x="192.55172413793102" y="339.2413793103448" type="curve"/>
      <point x="281.86206896551727" y="284.17241379310343"/>
      <point x="320.13793103448273" y="236.17241379310346"/>
      <point x="320.13793103448273" y="166.72413793103448" type="curve" smooth="yes"/>
      <point x="320.13793103448273" y="86.37931034482759"/>
      <point x="280.3448275862069" y="40.93103448275862"/>
    </contour>
    <contour>
      <point x="244.48275862068968" y="404.31034482758616" type="curve"/>
      <point x="180.79310344827584" y="443.6551724137931"/>
      <point x="142.89655172413794" y="482.6551724137931"/>
      <point x="142.89655172413794" y="560.0" type="curve" smooth="yes"/>
      <point x="142.89655172413794" y="628.1724137931034"/>
      <point x="171.24137931034483" y="673.0689655172414"/>
      <point x="224.20689655172413" y="673.0689655172414" type="curve" smooth="yes"/>
      <point x="281.6206896551724" y="673.0689655172414"/>
      <point x="307.0689655172414" y="617.7241379310345"/>
      <point x="307.0689655172414" y="556.0" type="curve" smooth="yes"/>
      <point x="307.0689655172414" y="485.0"/>
      <point x="289.06896551724134" y="439.37931034482756"/>
    </contour>
  </outline>
</glyph>
<glyph name="nine" format="2">
  <advance width="445.86206896551727"/>
  <unicode hex="0039"/>
  <outline>
    <contour>
      <point x="181.3793103448276" y="-11.0" type="curve"/>
      <point x="339.9655172413793" y="-11.0"/>
      <point x="404.34482758620686" y="153.82758620689654"/>
      <point x="404.34482758620686" y="388.0" type="curve"/>
      <point x="404.34482758620686" y="627.1034482758621"/>
      <point x="319.9655172413793" y="724.0"/>
      <point x="208.9310344827586" y="724.0" type="curve" smooth="yes"/>
      <point x="97.44827586206897" y="724.0"/>
      <point x="34.241379310344826" y="624.551724137931"/>
      <point x="34.241379310344826" y="484.2758620689655" type="curve" smooth="yes"/>
      <point x="34.241379310344826" y="352.0"/>
      <point x="99.51724137931035" y="280.44827586206895"/>
      <point x="191.0689655172414" y="280.44827586206895" type="curve" smooth="yes"/>
      <point x="246.6206896551724" y="280.44827586206895"/>
      <point x="287.6896551724138" y="314.2413793103448"/>
      <point x="308.0689655172414" y="345.0689655172414" type="curve"/>
      <point x="302.7931034482759" y="142.9310344827586"/>
      <point x="266.3448275862069" y="44.931034482758626"/>
      <point x="188.3793103448276" y="44.931034482758626" type="curve" smooth="yes"/>
      <point x="131.10344827586206" y="44.931034482758626"/>
      <point x="106.93103448275863" y="84.6896551724138"/>
      <point x="92.37931034482759" y="129.55172413793102" type="curve"/>
      <point x="68.79310344827587" y="122.27586206896552"/>
      <point x="57.96551724137931" y="101.06896551724138"/>
      <point x="57.96551724137931" y="75.24137931034483" type="curve" smooth="yes"/>
      <point x="57.96551724137931" y="31.93103448275862"/>
      <point x="91.34482758620689" y="-11.0"/>
    </contour>
    <contour>
      <point x="217.7586206896552" y="333.0344827586207" type="curve" smooth="yes"/>
      <point x="158.79310344827587" y="335.2068965517242"/>
      <point x="131.34482758620692" y="387.0344827586207"/>
      <point x="131.34482758620692" y="488.0" type="curve" smooth="yes"/>
      <point x="131.34482758620692" y="605.6206896551724"/>
      <point x="159.51724137931035" y="670.9655172413793"/>
      <point x="213.75862068965515" y="670.9655172413793" type="curve" smooth="yes"/>
      <point x="272.7241379310345" y="670.9655172413793"/>
      <point x="307.0689655172414" y="592.448275862069"/>
      <point x="309.51724137931035" y="399.0" type="curve"/>
      <point x="294.0689655172414" y="371.44827586206895"/>
      <point x="265.41379310344826" y="335.2068965517242"/>
    </contour>
  </outline>
</glyph>
<glyph name="colon" format="2">
  <advance width="227.17241379310343"/>
  <unicode hex="003A"/>
  <outline>
    <contour>
      <point x="113.31034482758619" y="404.3103448275862" type="curve" smooth="yes"/>
      <point x="142.79310344827584" y="404.3103448275862"/>
      <point x="169.0" y="419.4137931034483"/>
      <point x="169.0" y="468.62068965517244" type="curve" smooth="yes"/>
      <point x="169.0" y="518.103448275862"/>
      <point x="142.79310344827584" y="532.9310344827586"/>
      <point x="113.31034482758619" y="532.9310344827586" type="curve" smooth="yes"/>
      <point x="81.82758620689656" y="532.9310344827586"/>
      <point x="57.89655172413792" y="518.103448275862"/>
      <point x="57.89655172413792" y="468.62068965517244" type="curve" smooth="yes"/>
      <point x="57.89655172413792" y="419.4137931034483"/>
      <point x="81.82758620689656" y="404.3103448275862"/>
    </contour>
    <contour>
      <point x="113.31034482758619" y="-7.0" type="curve" smooth="yes"/>
      <point x="142.79310344827584" y="-7.0"/>
      <point x="169.0" y="8.551724137931034"/>
      <point x="169.0" y="58.0344827586207" type="curve" smooth="yes"/>
      <point x="169.0" y="107.24137931034483"/>
      <point x="142.79310344827584" y="123.06896551724137"/>
      <point x="113.31034482758619" y="123.06896551724137" type="curve" smooth="yes"/>
      <point x="81.82758620689656" y="123.06896551724137"/>
      <point x="57.89655172413792" y="107.24137931034483"/>
      <point x="57.89655172413792" y="58.0344827586207" type="curve" smooth="yes"/>
      <point x="57.89655172413792" y="8.551724137931034"/>
      <point x="81.82758620689656" y="-7.0"/>
    </contour>
  </outline>
</glyph>
<glyph name="semicolon" format="2">
  <advance width="227.17241379310343"/>
  <unicode hex="003B"/>
  <outline>
    <contour>
      <point x="40.37931034482759" y="-154.0" type="line"/>
      <point x="135.24137931034483" y="-121.72413793103448"/>
      <point x="170.62068965517244" y="-50.89655172413793"/>
      <point x="170.62068965517244" y="27.93103448275862" type="curve" smooth="yes"/>
      <point x="170.62068965517244" y="88.13793103448276"/>
      <point x="146.62068965517244" y="123.06896551724137"/>
      <point x="106.58620689655174" y="123.06896551724137" type="curve" smooth="yes"/>
      <point x="78.93103448275862" y="123.06896551724137"/>
      <point x="56.275862068965516" y="102.24137931034483"/>
      <point x="56.275862068965516" y="67.3103448275862" type="curve" smooth="yes"/>
      <point x="56.275862068965516" y="8.620689655172415"/>
      <point x="109.65517241379311" y="11.000000000000002"/>
      <point x="109.65517241379311" y="-25.724137931034484" type="curve" smooth="yes"/>
      <point x="109.65517241379311" y="-62.0"/>
      <point x="87.10344827586206" y="-94.24137931034483"/>
      <point x="40.37931034482759" y="-113.51724137931035" type="curve"/>
    </contour>
    <contour>
      <point x="113.31034482758619" y="404.3103448275862" type="curve" smooth="yes"/>
      <point x="143.79310344827584" y="404.3103448275862"/>
      <point x="169.0" y="419.4137931034483"/>
      <point x="169.0" y="468.62068965517244" type="curve" smooth="yes"/>
      <point x="169.0" y="518.103448275862"/>
      <point x="143.79310344827584" y="532.9310344827586"/>
      <point x="113.31034482758619" y="532.9310344827586" type="curve" smooth="yes"/>
      <point x="81.82758620689656" y="532.9310344827586"/>
      <point x="57.89655172413792" y="518.103448275862"/>
      <point x="57.89655172413792" y="468.62068965517244" type="curve" smooth="yes"/>
      <point x="57.89655172413792" y="419.4137931034483"/>
      <point x="81.82758620689656" y="404.3103448275862"/>
    </contour>
  </outline>
</glyph>
<glyph name="less" format="2">
  <advance width="425.0"/>
  <unicode hex="003C"/>
  <outline>
    <contour>
      <point x="383.37931034482756" y="109.62068965517241" type="line"/>
      <point x="383.37931034482756" y="178.3793103448276" type="line"/>
      <point x="120.93103448275862" y="357.0" type="line"/>
      <point x="383.37931034482756" y="538.3448275862069" type="line"/>
      <point x="383.37931034482756" y="606.3793103448277" type="line"/>
      <point x="41.62068965517241" y="375.55172413793105" type="line"/>
      <point x="41.62068965517241" y="339.44827586206895" type="line"/>
    </contour>
  </outline>
</glyph>
<glyph name="equal" format="2">
  <advance width="425.0"/>
  <unicode hex="003D"/>
  <outline>
    <contour>
      <point x="41.06896551724138" y="420.51724137931035" type="line"/>
      <point x="383.9310344827586" y="420.51724137931035" type="line"/>
      <point x="383.9310344827586" y="481.0" type="line"/>
      <point x="41.06896551724138" y="481.0" type="line"/>
    </contour>
    <contour>
      <point x="41.06896551724138" y="233.0" type="line"/>
      <point x="383.9310344827586" y="233.0" type="line"/>
      <point x="383.9310344827586" y="293.48275862068965" type="line"/>
      <point x="41.06896551724138" y="293.48275862068965" type="line"/>
    </contour>
  </outline>
</glyph>
<glyph name="greater" format="2">
  <advance width="425.0"/>
  <unicode hex="003E"/>
  <outline>
    <contour>
      <point x="41.62068965517241" y="109.62068965517241" type="line"/>
      <point x="383.37931034482756" y="339.44827586206895" type="line"/>
      <point x="383.37931034482756" y="375.55172413793105" type="line"/>
      <point x="41.62068965517241" y="606.3793103448277" type="line"/>
      <point x="41.62068965517241" y="538.3448275862069" type="line"/>
      <point x="303.06896551724134" y="357.0" type="line"/>
      <point x="41.62068965517241" y="178.3793103448276" type="line"/>
    </contour>
  </outline>
</glyph>
<glyph name="question" format="2">
  <advance width="424.13793103448273"/>
  <unicode hex="003F"/>
  <outline>
    <contour>
      <point x="171.86206896551724" y="212.3103448275862" type="line"/>
      <point x="209.34482758620692" y="212.3103448275862" type="line"/>
      <point x="225.82758620689657" y="323.0" type="line"/>
      <point x="328.3103448275862" y="373.82758620689657"/>
      <point x="377.13793103448273" y="435.7241379310345"/>
      <point x="377.13793103448273" y="545.896551724138" type="curve" smooth="yes"/>
      <point x="377.13793103448273" y="659.4482758620691"/>
      <point x="307.10344827586204" y="724.0"/>
      <point x="196.41379310344828" y="724.0" type="curve" smooth="yes"/>
      <point x="89.44827586206897" y="724.0"/>
      <point x="33.17241379310345" y="672.344827586207"/>
      <point x="33.17241379310345" y="610.6206896551724" type="curve" smooth="yes"/>
      <point x="33.17241379310345" y="564.8620689655172"/>
      <point x="66.20689655172414" y="548.5862068965517"/>
      <point x="118.10344827586206" y="548.5862068965517" type="curve"/>
      <point x="118.10344827586206" y="624.5172413793103"/>
      <point x="138.82758620689654" y="673.7931034482758"/>
      <point x="195.9655172413793" y="673.7931034482758" type="curve" smooth="yes"/>
      <point x="248.10344827586206" y="673.7931034482758"/>
      <point x="274.7241379310345" y="619.1724137931035"/>
      <point x="274.7241379310345" y="548.551724137931" type="curve" smooth="yes"/>
      <point x="274.7241379310345" y="462.6551724137931"/>
      <point x="247.9310344827586" y="394.0"/>
      <point x="156.3793103448276" y="346.55172413793105" type="curve"/>
    </contour>
    <contour>
      <point x="189.96551724137933" y="-7.0" type="curve" smooth="yes"/>
      <point x="220.89655172413794" y="-7.0"/>
      <point x="247.10344827586206" y="8.551724137931034"/>
      <point x="247.10344827586206" y="58.0344827586207" type="curve" smooth="yes"/>
      <point x="247.10344827586206" y="107.24137931034483"/>
      <point x="220.89655172413794" y="123.06896551724137"/>
      <point x="189.96551724137933" y="123.06896551724137" type="curve" smooth="yes"/>
      <point x="159.20689655172413" y="123.06896551724137"/>
      <point x="135.0" y="107.24137931034483"/>
      <point x="135.0" y="58.0344827586207" type="curve" smooth="yes"/>
      <point x="135.0" y="8.551724137931034"/>
      <point x="159.20689655172413" y="-7.0"/>
    </contour>
  </outline>
</glyph>
<glyph name="bracketleft" format="2">
  <advance width="308.9655172413793"/>
  <unicode hex="005B"/>
  <outline>
    <contour>
      <point x="79.55172413793103" y="-128.0" type="line"/>
      <point x="279.6896551724138" y="-128.0" type="line"/>
      <point x="279.6896551724138" y="-84.79310344827586" type="line"/>
      <point x="245.41379310344826" y="-84.79310344827586" type="line" smooth="yes"/>
      <point x="209.86206896551724" y="-84.79310344827586"/>
      <point x="179.86206896551724" y="-75.79310344827586"/>
      <point x="179.86206896551724" y="-12.793103448275861" type="curve" smooth="yes"/>
      <point x="179.86206896551724" y="644.7931034482758" type="line" smooth="yes"/>
      <point x="179.86206896551724" y="707.7931034482758"/>
      <point x="209.86206896551724" y="716.7931034482758"/>
      <point x="245.41379310344826" y="716.7931034482758" type="curve" smooth="yes"/>
      <point x="279.6896551724138" y="716.7931034482758" type="line"/>
      <point x="279.6896551724138" y="760.0" type="line"/>
      <point x="79.55172413793103" y="760.0" type="line"/>
    </contour>
  </outline>
</glyph>
<glyph name="backslash" format="2">
  <advance width="229.93103448275863"/>
  <unicode hex="005C"/>
  <outline>
    <contour>
      <point x="177.89655172413794" y="-121.0" type="line"/>
      <point x="229.93103448275863" y="-121.0" type="line"/>
      <point x="52.03448275862069" y="760.0" type="line"/>
      <point x="0.0" y="760.0" type="line"/>
    </contour>
  </outline>
</glyph>
<glyph name="bracketright" format="2">
  <advance width="308.9655172413793"/>
  <unicode hex="005D"/>
  <outline>
    <contour>
      <point x="30.0" y="-128.0" type="line"/>
      <point x="229.41379310344826" y="-128.0" type="line"/>
      <point x="229.41379310344826" y="760.0" type="line"/>
      <point x="30.0" y="760.0" type="line"/>
      <point x="30.0" y="716.7931034482758" type="line"/>
      <point x="63.55172413793103" y="716.7931034482758" type="line" smooth="yes"/>
      <point x="99.82758620689656" y="716.7931034482758"/>
      <point x="129.10344827586206" y="707.7931034482758"/>
      <point x="129.10344827586206" y="644.7931034482758" type="curve" smooth="yes"/>
      <point x="129.10344827586206" y="-12.793103448275861" type="line" smooth="yes"/>
      <point x="129.10344827586206" y="-75.79310344827586"/>
      <point x="99.82758620689656" y="-84.79310344827586"/>
      <point x="63.55172413793103" y="-84.79310344827586" type="curve" smooth="yes"/>
      <point x="30.0" y="-84.79310344827586" type="line"/>
    </contour>
  </outline>
</glyph>
<glyph name="asciicircum" format="2">
  <advance width="425.0"/>
  <unicode hex="005E"/>
  <outline>
    <contour>
      <point x="27.79310344827586" y="266.17241379310343" type="line"/>
      <point x="85.27586206896552" y="266.17241379310343" type="line"/>
      <point x="211.0" y="620.1379310344827" type="line"/>
      <point x="338.0" y="266.17241379310343" type="line"/>
      <point x="396.2068965517241" y="266.17241379310343" type="line"/>
      <point x="226.82758620689657" y="714.0" type="line"/>
      <point x="196.17241379310343" y="714.0" type="line"/>
    </contour>
  </outline>
</glyph>
<glyph name="underscore" format="2">
  <advance width="365.0344827586207"/>
  <unicode hex="005F"/>
  <outline>
    <contour>
      <point x="-4.275862068965517" y="-142.0" type="line"/>
      <point x="369.0344827586207" y="-142.0" type="line"/>
      <point x="369.0344827586207" y="-83.0" type="line"/>
      <point x="-4.275862068965517" y="-83.0" type="line"/>
    </contour>
  </outline>
</glyph>
<glyph name="braceleft" format="2">
  <advance width="346.51724137931035"/>
  <unicode hex="007B"/>
  <outline>
    <contour>
      <point x="251.03448275862067" y="-127.44827586206897" type="curve" smooth="yes"/>
      <point x="315.10344827586204" y="-127.44827586206897" type="line"/>
      <point x="315.10344827586204" y="-83.24137931034483" type="line"/>
      <point x="287.8965517241379" y="-83.24137931034483" type="line" smooth="yes"/>
      <point x="241.8965517241379" y="-83.24137931034483"/>
      <point x="226.55172413793102" y="-46.793103448275865"/>
      <point x="226.55172413793102" y="20.379310344827587" type="curve" smooth="yes"/>
      <point x="226.55172413793102" y="192.82758620689654" type="line" smooth="yes"/>
      <point x="226.55172413793102" y="258.7241379310345"/>
      <point x="198.82758620689654" y="303.3448275862069"/>
      <point x="139.0" y="316.7241379310345" type="curve"/>
      <point x="139.0" y="319.10344827586204" type="line"/>
      <point x="199.10344827586206" y="331.2068965517241"/>
      <point x="226.55172413793102" y="375.82758620689657"/>
      <point x="226.55172413793102" y="441.0" type="curve" smooth="yes"/>
      <point x="226.55172413793102" y="611.7241379310344" type="line" smooth="yes"/>
      <point x="226.55172413793102" y="680.3448275862069"/>
      <point x="241.8965517241379" y="716.0689655172414"/>
      <point x="287.8965517241379" y="716.0689655172414" type="curve" smooth="yes"/>
      <point x="315.10344827586204" y="716.0689655172414" type="line"/>
      <point x="315.10344827586204" y="760.0" type="line"/>
      <point x="251.03448275862067" y="760.0" type="line" smooth="yes"/>
      <point x="168.6206896551724" y="760.0"/>
      <point x="124.9655172413793" y="708.0"/>
      <point x="124.9655172413793" y="616.448275862069" type="curve" smooth="yes"/>
      <point x="124.9655172413793" y="443.0" type="line" smooth="yes"/>
      <point x="124.9655172413793" y="363.10344827586204"/>
      <point x="84.6896551724138" y="341.2068965517241"/>
      <point x="31.41379310344827" y="339.2068965517241" type="curve"/>
      <point x="31.41379310344827" y="295.3448275862069" type="line"/>
      <point x="84.6896551724138" y="292.3448275862069"/>
      <point x="124.9655172413793" y="271.7241379310345"/>
      <point x="124.9655172413793" y="189.82758620689654" type="curve" smooth="yes"/>
      <point x="124.9655172413793" y="17.379310344827584" type="line" smooth="yes"/>
      <point x="124.9655172413793" y="-72.17241379310346"/>
      <point x="168.6206896551724" y="-127.44827586206897"/>
    </contour>
  </outline>
</glyph>
<glyph name="bar" format="2">
  <advance width="445.86206896551727"/>
  <unicode hex="007C"/>
  <outline>
    <contour>
      <point x="195.55172413793102" y="-240.0" type="line"/>
      <point x="249.3103448275862" y="-240.0" type="line"/>
      <point x="249.3103448275862" y="760.0" type="line"/>
      <point x="195.55172413793102" y="760.0" type="line"/>
    </contour>
  </outline>
</glyph>
<glyph name="braceright" format="2">
  <advance width="346.51724137931035"/>
  <unicode hex="007D"/>
  <outline>
    <contour>
      <point x="31.41379310344827" y="-127.44827586206897" type="line"/>
      <point x="96.20689655172413" y="-127.44827586206897" type="line" smooth="yes"/>
      <point x="178.6206896551724" y="-127.44827586206897"/>
      <point x="221.55172413793102" y="-72.17241379310346"/>
      <point x="221.55172413793102" y="17.379310344827584" type="curve" smooth="yes"/>
      <point x="221.55172413793102" y="189.82758620689654" type="line" smooth="yes"/>
      <point x="221.55172413793102" y="271.7241379310345"/>
      <point x="263.8275862068965" y="292.3448275862069"/>
      <point x="315.10344827586204" y="295.3448275862069" type="curve"/>
      <point x="315.10344827586204" y="339.2068965517241" type="line"/>
      <point x="263.8275862068965" y="341.2068965517241"/>
      <point x="221.55172413793102" y="363.10344827586204"/>
      <point x="221.55172413793102" y="443.0" type="curve" smooth="yes"/>
      <point x="221.55172413793102" y="616.448275862069" type="line" smooth="yes"/>
      <point x="221.55172413793102" y="708.0"/>
      <point x="178.6206896551724" y="760.0"/>
      <point x="96.20689655172413" y="760.0" type="curve" smooth="yes"/>
      <point x="31.41379310344827" y="760.0" type="line"/>
      <point x="31.41379310344827" y="716.0689655172414" type="line"/>
      <point x="59.34482758620689" y="716.0689655172414" type="line" smooth="yes"/>
      <point x="106.0689655172414" y="716.0689655172414"/>
      <point x="119.9655172413793" y="680.3448275862069"/>
      <point x="119.9655172413793" y="611.7241379310344" type="curve" smooth="yes"/>
      <point x="119.9655172413793" y="441.0" type="line" smooth="yes"/>
      <point x="119.9655172413793" y="375.82758620689657"/>
      <point x="148.13793103448276" y="331.2068965517241"/>
      <point x="209.2413793103448" y="319.10344827586204" type="curve"/>
      <point x="209.2413793103448" y="316.7241379310345" type="line"/>
      <point x="146.96551724137933" y="303.3448275862069"/>
      <point x="119.9655172413793" y="258.7241379310345"/>
      <point x="119.9655172413793" y="192.82758620689654" type="curve" smooth="yes"/>
      <point x="119.9655172413793" y="20.379310344827587" type="line" smooth="yes"/>
      <point x="119.9655172413793" y="-46.793103448275865"/>
      <point x="106.0689655172414" y="-83.24137931034483"/>
      <point x="59.34482758620689" y="-83.24137931034483" type="curve" smooth="yes"/>
      <point x="31.41379310344827" y="-83.24137931034483" type="line"/>
    </contour>
  </outline>
</glyph>
<glyph name="asciitilde" format="2">
  <advance width="425.0"/>
  <unicode hex="007E"/>
  <outline>
    <contour>
      <point x="26.965517241379313" y="268.3448275862069" type="curve"/>
      <point x="83.0" y="268.3448275862069" type="line"/>
      <point x="88.89655172413794" y="349.8965517241379"/>
      <point x="102.44827586206895" y="387.0689655172414"/>
      <point x="133.17241379310343" y="387.0689655172414" type="curve" smooth="yes"/>
      <point x="153.6206896551724" y="387.0689655172414"/>
      <point x="168.06896551724137" y="369.17241379310343"/>
      <point x="198.17241379310346" y="333.3448275862069" type="curve" smooth="yes"/>
      <point x="245.44827586206895" y="276.62068965517244"/>
      <point x="269.0" y="268.3448275862069"/>
      <point x="299.0" y="268.3448275862069" type="curve" smooth="yes"/>
      <point x="373.0344827586207" y="268.3448275862069"/>
      <point x="395.86206896551727" y="359.51724137931035"/>
      <point x="400.7586206896552" y="445.37931034482756" type="curve"/>
      <point x="343.7241379310345" y="445.37931034482756" type="line"/>
      <point x="338.82758620689657" y="363.55172413793105"/>
      <point x="326.27586206896547" y="326.9310344827586"/>
      <point x="296.2758620689655" y="326.9310344827586" type="curve" smooth="yes"/>
      <point x="274.551724137931" y="326.9310344827586"/>
      <point x="261.37931034482756" y="346.10344827586204"/>
      <point x="232.10344827586204" y="379.10344827586204" type="curve" smooth="yes"/>
      <point x="193.89655172413794" y="421.7586206896552"/>
      <point x="167.89655172413794" y="445.37931034482756"/>
      <point x="130.17241379310346" y="445.37931034482756" type="curve" smooth="yes"/>
      <point x="53.241379310344826" y="445.37931034482756"/>
      <point x="31.86206896551724" y="355.93103448275866"/>
    </contour>
  </outline>
</glyph>
<glyph name="twosuperior" format="2">
  <advance width="318.7586206896552"/>
  <unicode hex="00B2"/>
  <outline>
    <contour>
      <point x="27.344827586206897" y="387.0" type="line"/>
      <point x="280.2413793103448" y="387.0" type="line"/>
      <point x="282.51724137931035" y="511.9655172413793" type="line"/>
      <point x="259.13793103448273" y="511.9655172413793" type="line"/>
      <point x="254.8620689655172" y="489.31034482758616" type="line"/>
      <point x="250.8620689655172" y="467.13793103448273"/>
      <point x="244.3103448275862" y="450.2413793103448"/>
      <point x="220.86206896551724" y="450.2413793103448" type="curve"/>
      <point x="85.10344827586206" y="450.2413793103448" type="line"/>
      <point x="153.24137931034483" y="526.0689655172414" type="line"/>
      <point x="237.79310344827587" y="602.551724137931"/>
      <point x="273.3448275862069" y="640.448275862069"/>
      <point x="273.3448275862069" y="709.448275862069" type="curve" smooth="yes"/>
      <point x="273.3448275862069" y="780.6206896551724"/>
      <point x="233.62068965517244" y="824.2758620689655"/>
      <point x="153.20689655172413" y="824.2758620689655" type="curve" smooth="yes"/>
      <point x="71.89655172413794" y="824.2758620689655"/>
      <point x="33.51724137931034" y="785.0"/>
      <point x="33.51724137931034" y="738.448275862069" type="curve" smooth="yes"/>
      <point x="33.51724137931034" y="710.0689655172413"/>
      <point x="51.34482758620689" y="696.5172413793103"/>
      <point x="92.0344827586207" y="696.5172413793103" type="curve"/>
      <point x="92.0344827586207" y="754.8620689655172"/>
      <point x="107.10344827586208" y="787.2413793103449"/>
      <point x="146.10344827586206" y="787.2413793103449" type="curve" smooth="yes"/>
      <point x="180.44827586206895" y="787.2413793103449"/>
      <point x="197.6206896551724" y="757.3448275862069"/>
      <point x="197.6206896551724" y="710.0" type="curve" smooth="yes"/>
      <point x="197.6206896551724" y="645.3793103448276"/>
      <point x="169.3448275862069" y="605.2068965517241"/>
      <point x="121.86206896551722" y="549.1034482758621" type="curve" smooth="yes"/>
      <point x="27.344827586206897" y="437.34482758620686" type="line"/>
    </contour>
  </outline>
</glyph>
<glyph name="threesuperior" format="2">
  <advance width="318.7586206896552"/>
  <unicode hex="00B3"/>
  <outline>
    <contour>
      <point x="142.82758620689657" y="380.0" type="curve" smooth="yes"/>
      <point x="231.51724137931032" y="380.0"/>
      <point x="286.51724137931035" y="425.1034482758621"/>
      <point x="286.51724137931035" y="508.2758620689655" type="curve" smooth="yes"/>
      <point x="286.51724137931035" y="580.448275862069"/>
      <point x="238.24137931034485" y="603.7241379310345"/>
      <point x="193.41379310344826" y="612.0" type="curve"/>
      <point x="193.41379310344826" y="615.0" type="line"/>
      <point x="235.68965517241378" y="630.0"/>
      <point x="273.2413793103448" y="664.0"/>
      <point x="273.2413793103448" y="723.0" type="curve" smooth="yes"/>
      <point x="273.2413793103448" y="785.0"/>
      <point x="233.51724137931032" y="823.2758620689655"/>
      <point x="151.9310344827586" y="823.2758620689655" type="curve" smooth="yes"/>
      <point x="70.17241379310346" y="823.2758620689655"/>
      <point x="32.62068965517241" y="781.551724137931"/>
      <point x="32.62068965517241" y="738.0" type="curve" smooth="yes"/>
      <point x="32.62068965517241" y="707.1724137931035"/>
      <point x="53.0" y="695.8965517241379"/>
      <point x="87.58620689655173" y="695.8965517241379" type="curve"/>
      <point x="87.58620689655173" y="747.344827586207"/>
      <point x="97.48275862068965" y="786.7931034482759"/>
      <point x="143.55172413793105" y="786.7931034482759" type="curve" smooth="yes"/>
      <point x="178.3448275862069" y="786.7931034482759"/>
      <point x="196.79310344827587" y="764.0689655172414"/>
      <point x="196.79310344827587" y="717.4482758620691" type="curve" smooth="yes"/>
      <point x="196.79310344827587" y="664.2758620689655"/>
      <point x="171.17241379310346" y="629.103448275862"/>
      <point x="124.72413793103449" y="629.103448275862" type="curve" smooth="yes"/>
      <point x="95.44827586206897" y="629.103448275862" type="line"/>
      <point x="95.44827586206897" y="590.344827586207" type="line"/>
      <point x="123.0" y="590.344827586207" type="line" smooth="yes"/>
      <point x="182.17241379310346" y="590.344827586207"/>
      <point x="207.51724137931038" y="559.896551724138"/>
      <point x="207.51724137931038" y="509.551724137931" type="curve" smooth="yes"/>
      <point x="207.51724137931038" y="444.9310344827586"/>
      <point x="177.3448275862069" y="420.7586206896552"/>
      <point x="137.72413793103448" y="420.7586206896552" type="curve" smooth="yes"/>
      <point x="86.48275862068965" y="420.7586206896552"/>
      <point x="70.93103448275863" y="463.10344827586204"/>
      <point x="70.93103448275863" y="509.9310344827586" type="curve"/>
      <point x="40.89655172413793" y="509.9310344827586"/>
      <point x="23.068965517241377" y="495.37931034482756"/>
      <point x="23.068965517241377" y="463.1034482758621" type="curve" smooth="yes"/>
      <point x="23.068965517241377" y="414.1034482758621"/>
      <point x="60.344827586206904" y="380.0"/>
    </contour>
  </outline>
</glyph>
<glyph name="multiply" format="2">
  <advance width="425.0"/>
  <unicode hex="00D7"/>
  <outline>
    <contour>
      <point x="87.55172413793103" y="152.93103448275863" type="line"/>
      <point x="214.44827586206895" y="312.3448275862069" type="line"/>
      <point x="340.7931034482759" y="153.48275862068965" type="line"/>
      <point x="385.44827586206895" y="190.13793103448276" type="line"/>
      <point x="252.10344827586206" y="358.2758620689655" type="line"/>
      <point x="385.44827586206895" y="525.4137931034483" type="line"/>
      <point x="340.51724137931035" y="562.0689655172414" type="line"/>
      <point x="214.44827586206895" y="404.9310344827586" type="line"/>
      <point x="88.55172413793103" y="563.344827586207" type="line"/>
      <point x="42.896551724137936" y="526.6896551724138" type="line"/>
      <point x="177.51724137931035" y="358.2758620689655" type="line"/>
      <point x="42.896551724137936" y="188.86206896551724" type="line"/>
    </contour>
  </outline>
</glyph>
<glyph name="divide" format="2">
  <advance width="425.0"/>
  <unicode hex="00F7"/>
  <outline>
    <contour>
      <point x="41.62068965517241" y="327.62068965517244" type="line"/>
      <point x="383.37931034482756" y="327.62068965517244" type="line"/>
      <point x="383.37931034482756" y="387.37931034482756" type="line"/>
      <point x="41.62068965517241" y="387.37931034482756" type="line"/>
    </contour>
    <contour>
      <point x="213.0" y="112.62068965517241" type="curve" smooth="yes"/>
      <point x="237.55172413793105" y="112.62068965517241"/>
      <point x="257.37931034482756" y="127.17241379310346"/>
      <point x="257.37931034482756" y="168.0" type="curve" smooth="yes"/>
      <point x="257.37931034482756" y="209.82758620689654"/>
      <point x="237.55172413793105" y="223.3793103448276"/>
      <point x="213.0" y="223.3793103448276" type="curve" smooth="yes"/>
      <point x="187.17241379310346" y="223.3793103448276"/>
      <point x="167.6206896551724" y="209.82758620689654"/>
      <point x="167.6206896551724" y="168.0" type="curve" smooth="yes"/>
      <point x="167.6206896551724" y="127.17241379310346"/>
      <point x="187.17241379310346" y="112.62068965517241"/>
    </contour>
    <contour>
      <point x="213.0" y="491.62068965517244" type="curve" smooth="yes"/>
      <point x="237.55172413793105" y="491.62068965517244"/>
      <point x="257.37931034482756" y="506.17241379310343"/>
      <point x="257.37931034482756" y="547.0" type="curve" smooth="yes"/>
      <point x="257.37931034482756" y="588.8275862068966"/>
      <point x="237.55172413793105" y="602.3793103448277"/>
      <point x="213.0" y="602.3793103448277" type="curve" smooth="yes"/>
      <point x="187.17241379310346" y="602.3793103448277"/>
      <point x="167.6206896551724" y="588.8275862068966"/>
      <point x="167.6206896551724" y="547.0" type="curve" smooth="yes"/>
      <point x="167.6206896551724" y="506.17241379310343"/>
      <point x="187.17241379310346" y="491.62068965517244"/>
    </contour>
  </outline>
</glyph>
<glyph name="udatta-deva" format="2">
  <unicode hex="0951"/>
  <anchor x="0.0" y="557.0344827586207" name="_vedic"/>
  <outline>
    <contour>
      <point x="-26.379310344827587" y="922.5172413793103" type="line"/>
      <point x="26.379310344827587" y="922.5172413793103" type="line"/>
      <point x="26.379310344827587" y="1119.1724137931035" type="line"/>
      <point x="-26.379310344827587" y="1119.1724137931035" type="line"/>
    </contour>
  </outline>
</glyph>
<glyph name="anudatta-deva" format="2">
  <unicode hex="0952"/>
  <anchor x="0.0" y="0.0" name="_bottom"/>
  <outline>
    <contour>
      <point x="-201.27586206896552" y="-528.5172413793103" type="line"/>
      <point x="201.27586206896552" y="-528.5172413793103" type="line"/>
      <point x="201.27586206896552" y="-457.10344827586204" type="line"/>
      <point x="-201.27586206896552" y="-457.10344827586204" type="line"/>
    </contour>
  </outline>
</glyph>
<glyph name="danda-deva" format="2">
  <advance width="254.2758620689655"/>
  <unicode hex="0964"/>
  <outline>
    <contour>
      <point x="74.6896551724138" y="0.0" type="line"/>
      <point x="179.31034482758622" y="0.0" type="line"/>
      <point x="179.31034482758622" y="557.0344827586207" type="line"/>
      <point x="74.6896551724138" y="557.0344827586207" type="line"/>
    </contour>
  </outline>
</glyph>
<glyph name="dbldanda-deva" format="2">
  <advance width="461.3793103448277"/>
  <unicode hex="0965"/>
  <outline>
    <contour>
      <point x="282.0689655172414" y="0.0" type="line"/>
      <point x="386.68965517241384" y="0.0" type="line"/>
      <point x="386.68965517241384" y="557.0344827586207" type="line"/>
      <point x="282.0689655172414" y="557.0344827586207" type="line"/>
    </contour>
    <contour>
      <point x="74.6896551724138" y="0.0" type="line"/>
      <point x="179.31034482758622" y="0.0" type="line"/>
      <point x="179.31034482758622" y="557.0344827586207" type="line"/>
      <point x="74.6896551724138" y="557.0344827586207" type="line"/>
    </contour>
  </outline>
</glyph>
<glyph name="anusvara-tamil" format="2">
  <unicode hex="0B82"/>
  <note>
uni0B82
</note>
  <anchor x="0.0" y="557.0344827586207" name="_top"/>
  <outline>
    <contour>
      <point x="0.0" y="631.6206896551724" type="curve" smooth="yes"/>
      <point x="63.03448275862068" y="631.6206896551724"/>
      <point x="110.3448275862069" y="674.9310344827586"/>
      <point x="110.3448275862069" y="738.6896551724137" type="curve" smooth="yes"/>
      <point x="110.3448275862069" y="801.7241379310344"/>
      <point x="63.03448275862068" y="845.4827586206897"/>
      <point x="0.0" y="845.4827586206897" type="curve" smooth="yes"/>
      <point x="-63.03448275862068" y="845.4827586206897"/>
      <point x="-110.3448275862069" y="801.7241379310344"/>
      <point x="-110.3448275862069" y="738.6896551724137" type="curve" smooth="yes"/>
      <point x="-110.3448275862069" y="674.9310344827586"/>
      <point x="-63.03448275862068" y="631.6206896551724"/>
    </contour>
    <contour>
      <point x="0.0" y="690.0344827586206" type="curve" smooth="yes"/>
      <point x="-27.551724137931032" y="690.0344827586206"/>
      <point x="-47.206896551724135" y="710.1379310344828"/>
      <point x="-47.206896551724135" y="738.6896551724137" type="curve" smooth="yes"/>
      <point x="-47.206896551724135" y="767.2413793103448"/>
      <point x="-27.551724137931032" y="787.3448275862069"/>
      <point x="0.0" y="787.3448275862069" type="curve" smooth="yes"/>
      <point x="27.551724137931032" y="787.3448275862069"/>
      <point x="47.206896551724135" y="767.2413793103448"/>
      <point x="47.206896551724135" y="738.6896551724137" type="curve" smooth="yes"/>
      <point x="47.206896551724135" y="710.1379310344828"/>
      <point x="27.551724137931032" y="690.0344827586206"/>
    </contour>
  </outline>
</glyph>
<glyph name="visarga-tamil" format="2">
  <advance width="694.2758620689655"/>
  <unicode hex="0B83"/>
  <note>
uni0B83
</note>
  <outline>
    <contour>
      <point x="508.44827586206895" y="-0.5517241379310347" type="curve" smooth="yes"/>
      <point x="589.3793103448276" y="-0.5517241379310347"/>
      <point x="643.0344827586207" y="72.79310344827586"/>
      <point x="643.0344827586207" y="185.27586206896552" type="curve" smooth="yes"/>
      <point x="643.0344827586207" y="296.7586206896552"/>
      <point x="590.1034482758621" y="370.1034482758621"/>
      <point x="509.7241379310345" y="370.1034482758621" type="curve" smooth="yes"/>
      <point x="428.96551724137925" y="370.1034482758621"/>
      <point x="381.13793103448273" y="295.1034482758621"/>
      <point x="381.13793103448273" y="184.44827586206895" type="curve" smooth="yes"/>
      <point x="381.13793103448273" y="73.89655172413794"/>
      <point x="427.41379310344826" y="-0.5517241379310347"/>
    </contour>
    <contour>
      <point x="178.3793103448276" y="-0.5517241379310347" type="curve" smooth="yes"/>
      <point x="259.3103448275862" y="-0.5517241379310347"/>
      <point x="312.68965517241384" y="72.79310344827586"/>
      <point x="312.68965517241384" y="185.27586206896552" type="curve" smooth="yes"/>
      <point x="312.68965517241384" y="296.7586206896552"/>
      <point x="259.7586206896552" y="370.1034482758621"/>
      <point x="179.3793103448276" y="370.1034482758621" type="curve" smooth="yes"/>
      <point x="99.34482758620689" y="370.1034482758621"/>
      <point x="51.51724137931034" y="295.1034482758621"/>
      <point x="51.51724137931034" y="184.44827586206895" type="curve" smooth="yes"/>
      <point x="51.51724137931034" y="73.89655172413794"/>
      <point x="97.79310344827586" y="-0.5517241379310347"/>
    </contour>
    <contour>
      <point x="345.41379310344826" y="415.8620689655172" type="curve" smooth="yes"/>
      <point x="426.3448275862069" y="415.8620689655172"/>
      <point x="480.0" y="488.48275862068965"/>
      <point x="480.0" y="600.9655172413793" type="curve" smooth="yes"/>
      <point x="480.0" y="713.1724137931034"/>
      <point x="427.0689655172414" y="785.7931034482758"/>
      <point x="346.6896551724138" y="785.7931034482758" type="curve" smooth="yes"/>
      <point x="266.65517241379314" y="785.7931034482758"/>
      <point x="218.82758620689654" y="711.5172413793103"/>
      <point x="218.82758620689654" y="600.4137931034483" type="curve" smooth="yes"/>
      <point x="218.82758620689654" y="489.8620689655172"/>
      <point x="265.1034482758621" y="415.8620689655172"/>
    </contour>
    <contour>
      <point x="167.06896551724137" y="55.75862068965517" type="curve" smooth="yes"/>
      <point x="124.89655172413794" y="55.75862068965517"/>
      <point x="101.82758620689656" y="106.10344827586206"/>
      <point x="101.82758620689656" y="185.27586206896552" type="curve" smooth="yes"/>
      <point x="101.82758620689656" y="262.44827586206895"/>
      <point x="125.17241379310346" y="313.06896551724134"/>
      <point x="167.6206896551724" y="313.06896551724134" type="curve" smooth="yes"/>
      <point x="211.41379310344828" y="313.06896551724134"/>
      <point x="235.0344827586207" y="270.17241379310343"/>
      <point x="235.0344827586207" y="185.27586206896552" type="curve" smooth="yes"/>
      <point x="235.0344827586207" y="99.10344827586206"/>
      <point x="211.41379310344828" y="55.75862068965517"/>
    </contour>
    <contour>
      <point x="334.37931034482756" y="472.17241379310343" type="curve" smooth="yes"/>
      <point x="292.2068965517241" y="472.17241379310343"/>
      <point x="269.1379310344828" y="522.7931034482759"/>
      <point x="269.1379310344828" y="600.9655172413793" type="curve" smooth="yes"/>
      <point x="269.1379310344828" y="678.8620689655172"/>
      <point x="292.2068965517241" y="729.4827586206897"/>
      <point x="334.6551724137931" y="729.4827586206897" type="curve" smooth="yes"/>
      <point x="378.7241379310345" y="729.4827586206897"/>
      <point x="402.34482758620686" y="685.8620689655173"/>
      <point x="402.34482758620686" y="600.9655172413793" type="curve" smooth="yes"/>
      <point x="402.34482758620686" y="515.5172413793103"/>
      <point x="378.44827586206895" y="472.17241379310343"/>
    </contour>
    <contour>
      <point x="497.41379310344826" y="55.75862068965517" type="curve" smooth="yes"/>
      <point x="455.2413793103448" y="55.75862068965517"/>
      <point x="431.17241379310343" y="106.10344827586206"/>
      <point x="431.17241379310343" y="185.27586206896552" type="curve" smooth="yes"/>
      <point x="431.17241379310343" y="262.44827586206895"/>
      <point x="455.2413793103448" y="313.06896551724134"/>
      <point x="497.6896551724138" y="313.06896551724134" type="curve" smooth="yes"/>
      <point x="541.7586206896551" y="313.06896551724134"/>
      <point x="565.3793103448276" y="270.17241379310343"/>
      <point x="565.3793103448276" y="185.27586206896552" type="curve" smooth="yes"/>
      <point x="565.3793103448276" y="99.10344827586206"/>
      <point x="541.4827586206897" y="55.75862068965517"/>
    </contour>
  </outline>
</glyph>
<glyph name="a-tamil" format="2">
  <advance width="1009.6206896551726"/>
  <unicode hex="0B85"/>
  <note>
uni0B85
</note>
  <anchor x="494.0" y="0.0" name="bottom"/>
  <anchor x="343.7931034482759" y="-126.9655172413793" name="nukta"/>
  <anchor x="502.0689655172414" y="557.0344827586207" name="top"/>
  <anchor x="503.7931034482759" y="557.0344827586207" name="vedic"/>
  <outline>
    <contour>
      <point x="832.5862068965517" y="-189.24137931034483" type="line"/>
      <point x="937.2068965517242" y="-189.24137931034483" type="line"/>
      <point x="937.2068965517242" y="557.0344827586207" type="line"/>
      <point x="832.5862068965517" y="557.0344827586207" type="line"/>
      <point x="832.5862068965517" y="169.06896551724137" type="line"/>
      <point x="101.10344827586206" y="169.06896551724137" type="line" smooth="yes"/>
      <point x="56.275862068965516" y="169.06896551724137"/>
      <point x="32.06896551724138" y="140.24137931034483"/>
      <point x="32.06896551724138" y="95.41379310344828" type="curve" smooth="yes"/>
      <point x="32.06896551724138" y="-4.5517241379310365"/>
      <point x="153.68965517241378" y="-126.9655172413793"/>
      <point x="343.7931034482759" y="-126.9655172413793" type="curve" smooth="yes"/>
      <point x="580.0344827586207" y="-126.9655172413793"/>
      <point x="734.344827586207" y="11.482758620689653"/>
      <point x="734.344827586207" y="247.51724137931035" type="curve" smooth="yes"/>
      <point x="734.344827586207" y="443.9310344827586"/>
      <point x="625.7241379310344" y="562.0344827586207"/>
      <point x="478.55172413793105" y="562.0344827586207" type="curve" smooth="yes"/>
      <point x="367.7241379310345" y="562.0344827586207"/>
      <point x="298.1724137931035" y="493.51724137931035"/>
      <point x="298.1724137931035" y="383.3448275862069" type="curve" smooth="yes"/>
      <point x="298.1724137931035" y="302.58620689655174"/>
      <point x="349.2068965517241" y="242.0344827586207"/>
      <point x="421.68965517241384" y="242.0344827586207" type="curve" smooth="yes"/>
      <point x="494.0689655172414" y="242.0344827586207"/>
      <point x="542.4827586206897" y="290.7586206896552"/>
      <point x="542.4827586206897" y="375.06896551724134" type="curve" smooth="yes"/>
      <point x="542.4827586206897" y="451.1724137931035"/>
      <point x="493.48275862068965" y="512.1724137931035"/>
      <point x="435.0344827586207" y="522.0344827586207" type="curve"/>
      <point x="390.62068965517244" y="517.3793103448276" type="line"/>
      <point x="433.55172413793105" y="499.17241379310343"/>
      <point x="465.1724137931035" y="439.2758620689655"/>
      <point x="465.1724137931035" y="385.44827586206895" type="curve" smooth="yes"/>
      <point x="465.1724137931035" y="337.0"/>
      <point x="444.8965517241379" y="300.1724137931035"/>
      <point x="407.2413793103448" y="300.1724137931035" type="curve" smooth="yes"/>
      <point x="376.4137931034483" y="300.1724137931035"/>
      <point x="349.5862068965517" y="327.1724137931035"/>
      <point x="349.5862068965517" y="382.2758620689655" type="curve" smooth="yes"/>
      <point x="349.5862068965517" y="458.51724137931035"/>
      <point x="392.7586206896551" y="505.82758620689657"/>
      <point x="465.62068965517244" y="505.82758620689657" type="curve" smooth="yes"/>
      <point x="554.6896551724138" y="505.82758620689657"/>
      <point x="632.6551724137931" y="409.9310344827586"/>
      <point x="632.6551724137931" y="250.2758620689655" type="curve" smooth="yes"/>
      <point x="632.6551724137931" y="50.103448275862064"/>
      <point x="504.24137931034477" y="-70.75862068965517"/>
      <point x="333.93103448275866" y="-70.75862068965517" type="curve" smooth="yes"/>
      <point x="185.6896551724138" y="-70.75862068965517"/>
      <point x="91.20689655172413" y="23.48275862068965"/>
      <point x="91.20689655172413" y="86.58620689655173" type="curve" smooth="yes"/>
      <point x="91.20689655172413" y="102.86206896551724"/>
      <point x="98.0344827586207" y="113.13793103448275"/>
      <point x="117.0344827586207" y="113.13793103448275" type="curve" smooth="yes"/>
      <point x="832.5862068965517" y="113.13793103448275" type="line"/>
    </contour>
  </outline>
</glyph>
<glyph name="aa-tamil" format="2">
  <advance width="1157.0"/>
  <unicode hex="0B86"/>
  <note>
uni0B86
</note>
  <anchor x="560.1379310344828" y="0.0" name="bottom"/>
  <anchor x="343.7931034482759" y="-126.9655172413793" name="nukta"/>
  <anchor x="568.2068965517242" y="557.0344827586207" name="top"/>
  <anchor x="569.2068965517242" y="557.0344827586207" name="vedic"/>
  <outline>
    <contour>
      <point x="778.9655172413793" y="-408.7241379310345" type="curve" smooth="yes"/>
      <point x="953.4827586206897" y="-408.7241379310345"/>
      <point x="1140.551724137931" y="-293.7241379310345"/>
      <point x="1140.551724137931" y="-89.48275862068965" type="curve" smooth="yes"/>
      <point x="1140.551724137931" y="7.000000000000001"/>
      <point x="1097.7931034482758" y="55.48275862068966"/>
      <point x="1032.6551724137933" y="55.48275862068966" type="curve" smooth="yes"/>
      <point x="960.2413793103448" y="55.48275862068966"/>
      <point x="920.6551724137933" y="-9.79310344827586"/>
      <point x="914.551724137931" y="-101.6896551724138" type="curve"/>
      <point x="934.2068965517241" y="-109.6896551724138" type="line"/>
      <point x="933.2068965517241" y="-57.862068965517246"/>
      <point x="958.9310344827586" y="-27.689655172413794"/>
      <point x="987.7586206896552" y="-27.689655172413794" type="curve" smooth="yes"/>
      <point x="1019.7586206896551" y="-27.689655172413794"/>
      <point x="1040.2068965517242" y="-52.689655172413794"/>
      <point x="1040.2068965517242" y="-101.13793103448276" type="curve" smooth="yes"/>
      <point x="1039.2068965517242" y="-267.51724137931035"/>
      <point x="895.7241379310344" y="-353.0689655172414"/>
      <point x="773.4137931034483" y="-353.0689655172414" type="curve" smooth="yes"/>
      <point x="701.6551724137931" y="-353.0689655172414"/>
      <point x="645.9655172413793" y="-327.3448275862069"/>
      <point x="645.9655172413793" y="-269.6206896551724" type="curve" smooth="yes"/>
      <point x="645.9655172413793" y="-225.17241379310346"/>
      <point x="676.1379310344827" y="-198.82758620689654"/>
      <point x="727.6896551724138" y="-185.82758620689657" type="curve"/>
      <point x="713.9655172413793" y="-131.44827586206895" type="line"/>
      <point x="637.655172413793" y="-152.44827586206895"/>
      <point x="586.7586206896551" y="-197.6206896551724"/>
      <point x="586.7586206896551" y="-265.17241379310343" type="curve" smooth="yes"/>
      <point x="586.7586206896551" y="-357.44827586206895"/>
      <point x="666.6206896551723" y="-408.7241379310345"/>
    </contour>
    <component base="a-tamil"/>
  </outline>
</glyph>
<glyph name="i-tamil" format="2">
  <advance width="788.7931034482759"/>
  <unicode hex="0B87"/>
  <note>
uni0B87
</note>
  <anchor x="377.1034482758621" y="0.0" name="bottom"/>
  <anchor x="375.1034482758621" y="-273.3793103448276" name="nukta"/>
  <anchor x="390.65517241379314" y="819.4137931034483" name="top"/>
  <anchor x="383.1034482758621" y="557.0344827586207" name="vedic"/>
  <outline>
    <contour>
      <point x="187.20689655172413" y="-301.6896551724138" type="curve" smooth="yes"/>
      <point x="422.1724137931035" y="-301.6896551724138"/>
      <point x="606.6206896551724" y="-40.86206896551724"/>
      <point x="606.6206896551724" y="236.51724137931035" type="curve" smooth="yes"/>
      <point x="606.6206896551724" y="435.27586206896547"/>
      <point x="514.4137931034483" y="562.0344827586207"/>
      <point x="367.9655172413793" y="562.0344827586207" type="curve" smooth="yes"/>
      <point x="269.9310344827586" y="562.0344827586207"/>
      <point x="198.65517241379308" y="496.2413793103448"/>
      <point x="198.65517241379308" y="380.62068965517244" type="curve" smooth="yes"/>
      <point x="198.65517241379308" y="296.6896551724138"/>
      <point x="247.68965517241378" y="242.75862068965517"/>
      <point x="315.7241379310345" y="242.75862068965517" type="curve" smooth="yes"/>
      <point x="386.65517241379314" y="242.75862068965517"/>
      <point x="433.34482758620686" y="292.4827586206897"/>
      <point x="433.34482758620686" y="372.0689655172414" type="curve" smooth="yes"/>
      <point x="433.34482758620686" y="437.10344827586204"/>
      <point x="393.86206896551727" y="500.10344827586204"/>
      <point x="331.5172413793103" y="520.3103448275862" type="curve"/>
      <point x="283.9310344827586" y="514.2068965517242" type="line"/>
      <point x="329.3103448275862" y="496.7241379310345"/>
      <point x="356.48275862068965" y="440.0"/>
      <point x="356.48275862068965" y="383.44827586206895" type="curve" smooth="yes"/>
      <point x="356.48275862068965" y="336.0"/>
      <point x="337.48275862068965" y="299.44827586206895"/>
      <point x="302.2758620689655" y="299.44827586206895" type="curve" smooth="yes"/>
      <point x="269.7241379310345" y="299.44827586206895"/>
      <point x="250.0689655172414" y="332.3448275862069"/>
      <point x="250.0689655172414" y="380.55172413793105" type="curve" smooth="yes"/>
      <point x="250.0689655172414" y="457.7931034482759"/>
      <point x="286.3448275862069" y="505.82758620689657"/>
      <point x="358.2068965517241" y="505.82758620689657" type="curve" smooth="yes"/>
      <point x="458.34482758620686" y="505.82758620689657"/>
      <point x="505.7586206896552" y="402.7241379310345"/>
      <point x="505.7586206896552" y="259.2413793103448" type="curve" smooth="yes"/>
      <point x="505.7586206896552" y="1.655172413793105"/>
      <point x="401.7241379310344" y="-245.20689655172413"/>
      <point x="192.3793103448276" y="-245.20689655172413" type="curve" smooth="yes"/>
      <point x="133.27586206896552" y="-245.20689655172413"/>
      <point x="101.0" y="-213.48275862068968"/>
      <point x="101.0" y="-152.75862068965517" type="curve" smooth="yes"/>
      <point x="101.0" y="-22.24137931034483"/>
      <point x="244.20689655172413" y="54.793103448275865"/>
      <point x="374.82758620689657" y="54.793103448275865" type="curve" smooth="yes"/>
      <point x="506.7586206896552" y="54.793103448275865"/>
      <point x="655.8965517241379" y="-13.965517241379311"/>
      <point x="655.8965517241379" y="-146.41379310344828" type="curve" smooth="yes"/>
      <point x="655.8965517241379" y="-216.20689655172416"/>
      <point x="615.0" y="-245.20689655172413"/>
      <point x="554.0" y="-245.20689655172413" type="curve" smooth="yes"/>
      <point x="351.1034482758621" y="-245.20689655172413"/>
      <point x="116.17241379310344" y="80.20689655172414"/>
      <point x="116.17241379310344" y="382.7586206896552" type="curve" smooth="yes"/>
      <point x="116.17241379310344" y="636.7241379310345"/>
      <point x="235.10344827586206" y="722.9655172413793"/>
      <point x="389.93103448275866" y="722.9655172413793" type="curve" smooth="yes"/>
      <point x="574.4137931034483" y="722.9655172413793"/>
      <point x="681.7931034482758" y="583.655172413793"/>
      <point x="681.7931034482758" y="367.9310344827586" type="curve" smooth="yes"/>
      <point x="681.7931034482758" y="88.48275862068967" type="line"/>
      <point x="739.551724137931" y="88.48275862068967" type="line"/>
      <point x="739.551724137931" y="369.0344827586207" type="line" smooth="yes"/>
      <point x="739.551724137931" y="673.8620689655172"/>
      <point x="605.2758620689655" y="819.4137931034483"/>
      <point x="390.65517241379314" y="819.4137931034483" type="curve" smooth="yes"/>
      <point x="180.9310344827586" y="819.4137931034483"/>
      <point x="52.586206896551715" y="665.0"/>
      <point x="52.586206896551715" y="418.6896551724138" type="curve" smooth="yes"/>
      <point x="52.586206896551715" y="64.34482758620689"/>
      <point x="306.7241379310345" y="-301.6896551724138"/>
      <point x="572.2413793103449" y="-301.6896551724138" type="curve" smooth="yes"/>
      <point x="656.5862068965517" y="-301.6896551724138"/>
      <point x="719.7586206896552" y="-251.3103448275862"/>
      <point x="719.7586206896552" y="-160.13793103448273" type="curve" smooth="yes"/>
      <point x="719.7586206896552" y="23.517241379310345"/>
      <point x="539.7931034482758" y="109.17241379310344"/>
      <point x="374.551724137931" y="109.17241379310344" type="curve" smooth="yes"/>
      <point x="209.82758620689654" y="109.17241379310344"/>
      <point x="38.96551724137931" y="16.310344827586206"/>
      <point x="38.96551724137931" y="-154.0344827586207" type="curve" smooth="yes"/>
      <point x="38.96551724137931" y="-247.9655172413793"/>
      <point x="100.79310344827586" y="-301.6896551724138"/>
    </contour>
  </outline>
</glyph>
<glyph name="ii-tamil" format="2">
  <advance width="627.6896551724138"/>
  <unicode hex="0B88"/>
  <note>
uni0B88
</note>
  <anchor x="326.51724137931035" y="0.0" name="bottom"/>
  <anchor x="327.2413793103448" y="0.0" name="nukta"/>
  <anchor x="328.7931034482759" y="557.0344827586207" name="top"/>
  <anchor x="329.51724137931035" y="557.0344827586207" name="vedic"/>
  <outline>
    <contour>
      <point x="71.9655172413793" y="0.0" type="line"/>
      <point x="129.72413793103448" y="0.0" type="line"/>
      <point x="129.72413793103448" y="501.3793103448276" type="line"/>
      <point x="325.7241379310345" y="501.3793103448276" type="line"/>
      <point x="325.7241379310345" y="0.0" type="line"/>
      <point x="430.8965517241379" y="0.0" type="line"/>
      <point x="430.8965517241379" y="501.3793103448276" type="line"/>
      <point x="585.8620689655172" y="501.3793103448276" type="line"/>
      <point x="585.8620689655172" y="557.0344827586207" type="line"/>
      <point x="71.9655172413793" y="557.0344827586207" type="line"/>
    </contour>
    <contour>
      <point x="226.72413793103448" y="212.6206896551724" type="curve" smooth="yes"/>
      <point x="257.3793103448276" y="212.6206896551724"/>
      <point x="281.31034482758616" y="237.7241379310345"/>
      <point x="281.31034482758616" y="266.1034482758621" type="curve" smooth="yes"/>
      <point x="281.31034482758616" y="294.48275862068965"/>
      <point x="257.65517241379314" y="318.86206896551727"/>
      <point x="226.99999999999997" y="318.86206896551727" type="curve" smooth="yes"/>
      <point x="195.3448275862069" y="318.86206896551727"/>
      <point x="171.6896551724138" y="294.48275862068965"/>
      <point x="171.6896551724138" y="266.1034482758621" type="curve" smooth="yes"/>
      <point x="171.6896551724138" y="237.7241379310345"/>
      <point x="195.3448275862069" y="212.6206896551724"/>
    </contour>
    <contour>
      <point x="527.896551724138" y="212.6206896551724" type="curve" smooth="yes"/>
      <point x="558.551724137931" y="212.6206896551724"/>
      <point x="582.4827586206898" y="237.7241379310345"/>
      <point x="582.4827586206898" y="266.1034482758621" type="curve" smooth="yes"/>
      <point x="582.4827586206898" y="294.48275862068965"/>
      <point x="558.8275862068966" y="318.86206896551727"/>
      <point x="528.1724137931035" y="318.86206896551727" type="curve" smooth="yes"/>
      <point x="496.5172413793103" y="318.86206896551727"/>
      <point x="472.8620689655172" y="294.48275862068965"/>
      <point x="472.8620689655172" y="266.1034482758621" type="curve" smooth="yes"/>
      <point x="472.8620689655172" y="237.7241379310345"/>
      <point x="496.5172413793103" y="212.6206896551724"/>
    </contour>
  </outline>
</glyph>
<glyph name="u-tamil" format="2">
  <advance width="754.8275862068966"/>
  <unicode hex="0B89"/>
  <note>
uni0B89
</note>
  <anchor x="400.1379310344828" y="0.0" name="bottom"/>
  <anchor x="400.86206896551727" y="0.0" name="nukta"/>
  <anchor x="404.13793103448273" y="557.0344827586207" name="top"/>
  <anchor x="403.1379310344828" y="557.0344827586207" name="vedic"/>
  <outline>
    <contour>
      <point x="129.89655172413794" y="0.0" type="curve" smooth="yes"/>
      <point x="738.9310344827587" y="0.0" type="line"/>
      <point x="738.9310344827587" y="55.93103448275862" type="line"/>
      <point x="132.51724137931035" y="55.93103448275862" type="line" smooth="yes"/>
      <point x="115.51724137931033" y="55.93103448275862"/>
      <point x="95.17241379310344" y="70.65517241379311"/>
      <point x="95.17241379310344" y="94.82758620689656" type="curve" smooth="yes"/>
      <point x="95.17241379310344" y="119.72413793103449"/>
      <point x="115.24137931034483" y="134.44827586206895"/>
      <point x="132.51724137931035" y="134.44827586206895" type="curve" smooth="yes"/>
      <point x="301.2413793103448" y="134.44827586206895" type="line" smooth="yes"/>
      <point x="426.3103448275862" y="134.44827586206895"/>
      <point x="516.2758620689655" y="198.89655172413794"/>
      <point x="516.2758620689655" y="336.55172413793105" type="curve" smooth="yes"/>
      <point x="516.2758620689655" y="482.1034482758621"/>
      <point x="416.34482758620686" y="562.0344827586207"/>
      <point x="286.8620689655172" y="562.0344827586207" type="curve" smooth="yes"/>
      <point x="179.0689655172414" y="562.0344827586207"/>
      <point x="103.86206896551724" y="492.0"/>
      <point x="103.86206896551724" y="382.82758620689657" type="curve" smooth="yes"/>
      <point x="103.86206896551724" y="301.3448275862069"/>
      <point x="148.17241379310346" y="246.17241379310343"/>
      <point x="218.27586206896552" y="246.17241379310343" type="curve" smooth="yes"/>
      <point x="287.93103448275866" y="246.17241379310343"/>
      <point x="336.68965517241384" y="291.7241379310345"/>
      <point x="336.68965517241384" y="373.7241379310345" type="curve" smooth="yes"/>
      <point x="336.68965517241384" y="448.55172413793105"/>
      <point x="291.31034482758616" y="510.7241379310345"/>
      <point x="234.58620689655172" y="521.4827586206897" type="curve"/>
      <point x="188.6206896551724" y="518.2068965517241" type="line"/>
      <point x="231.20689655172413" y="499.17241379310343"/>
      <point x="259.3793103448276" y="438.2068965517242"/>
      <point x="259.3793103448276" y="384.37931034482756" type="curve" smooth="yes"/>
      <point x="259.3793103448276" y="334.93103448275866"/>
      <point x="241.55172413793102" y="303.2068965517241"/>
      <point x="207.0" y="303.2068965517241" type="curve" smooth="yes"/>
      <point x="178.44827586206898" y="303.2068965517241"/>
      <point x="155.27586206896552" y="328.0344827586207"/>
      <point x="155.27586206896552" y="380.9310344827586" type="curve" smooth="yes"/>
      <point x="155.27586206896552" y="458.0"/>
      <point x="202.48275862068965" y="506.3793103448276"/>
      <point x="270.93103448275866" y="506.3793103448276" type="curve" smooth="yes"/>
      <point x="351.7931034482759" y="506.3793103448276"/>
      <point x="414.13793103448273" y="448.3793103448276"/>
      <point x="414.13793103448273" y="348.7241379310345" type="curve" smooth="yes"/>
      <point x="414.13793103448273" y="244.55172413793102"/>
      <point x="366.3103448275862" y="188.82758620689654"/>
      <point x="286.3103448275862" y="188.82758620689654" type="curve" smooth="yes"/>
      <point x="129.89655172413794" y="188.82758620689654" type="line" smooth="yes"/>
      <point x="79.9655172413793" y="188.82758620689654"/>
      <point x="41.241379310344826" y="154.82758620689654"/>
      <point x="41.241379310344826" y="94.82758620689656" type="curve" smooth="yes"/>
      <point x="41.241379310344826" y="35.275862068965516"/>
      <point x="80.24137931034483" y="0.0"/>
    </contour>
  </outline>
</glyph>
<glyph name="uu-tamil" format="2">
  <advance width="1316.5172413793105"/>
  <unicode hex="0B8A"/>
  <note>
uni0B8A
</note>
  <anchor x="673.8620689655172" y="0.0" name="bottom"/>
  <anchor x="673.8620689655173" y="0.0" name="nukta"/>
  <anchor x="676.0344827586207" y="557.0344827586207" name="top"/>
  <anchor x="676.8620689655172" y="557.0344827586207" name="vedic"/>
  <outline>
    <contour>
      <point x="125.0" y="0.0" type="curve" smooth="yes"/>
      <point x="1288.1724137931035" y="0.0" type="line"/>
      <point x="1288.1724137931035" y="55.93103448275862" type="line"/>
      <point x="127.62068965517241" y="55.93103448275862" type="line" smooth="yes"/>
      <point x="109.62068965517241" y="55.93103448275862"/>
      <point x="95.17241379310344" y="70.65517241379311"/>
      <point x="95.17241379310344" y="94.82758620689656" type="curve" smooth="yes"/>
      <point x="95.17241379310344" y="119.72413793103449"/>
      <point x="109.62068965517241" y="134.44827586206895"/>
      <point x="127.62068965517241" y="134.44827586206895" type="curve" smooth="yes"/>
      <point x="301.2413793103448" y="134.44827586206895" type="line" smooth="yes"/>
      <point x="426.3103448275862" y="134.44827586206895"/>
      <point x="516.2758620689655" y="198.89655172413794"/>
      <point x="516.2758620689655" y="336.55172413793105" type="curve" smooth="yes"/>
      <point x="516.2758620689655" y="482.1034482758621"/>
      <point x="416.34482758620686" y="562.0344827586207"/>
      <point x="286.8620689655172" y="562.0344827586207" type="curve" smooth="yes"/>
      <point x="179.0689655172414" y="562.0344827586207"/>
      <point x="103.86206896551724" y="492.0"/>
      <point x="103.86206896551724" y="382.82758620689657" type="curve" smooth="yes"/>
      <point x="103.86206896551724" y="301.3448275862069"/>
      <point x="148.17241379310346" y="246.17241379310343"/>
      <point x="218.27586206896552" y="246.17241379310343" type="curve" smooth="yes"/>
      <point x="287.93103448275866" y="246.17241379310343"/>
      <point x="336.68965517241384" y="291.7241379310345"/>
      <point x="336.68965517241384" y="373.7241379310345" type="curve" smooth="yes"/>
      <point x="336.68965517241384" y="448.55172413793105"/>
      <point x="291.31034482758616" y="510.7241379310345"/>
      <point x="234.58620689655172" y="521.4827586206897" type="curve"/>
      <point x="188.6206896551724" y="518.2068965517241" type="line"/>
      <point x="231.20689655172413" y="499.17241379310343"/>
      <point x="259.3793103448276" y="438.2068965517242"/>
      <point x="259.3793103448276" y="384.37931034482756" type="curve" smooth="yes"/>
      <point x="259.3793103448276" y="334.93103448275866"/>
      <point x="241.55172413793102" y="303.2068965517241"/>
      <point x="207.0" y="303.2068965517241" type="curve" smooth="yes"/>
      <point x="178.44827586206898" y="303.2068965517241"/>
      <point x="155.27586206896552" y="328.0344827586207"/>
      <point x="155.27586206896552" y="380.9310344827586" type="curve" smooth="yes"/>
      <point x="155.27586206896552" y="458.0"/>
      <point x="202.48275862068965" y="506.3793103448276"/>
      <point x="270.93103448275866" y="506.3793103448276" type="curve" smooth="yes"/>
      <point x="351.7931034482759" y="506.3793103448276"/>
      <point x="414.13793103448273" y="448.3793103448276"/>
      <point x="414.13793103448273" y="348.7241379310345" type="curve" smooth="yes"/>
      <point x="414.13793103448273" y="244.55172413793102"/>
      <point x="366.3103448275862" y="188.82758620689654"/>
      <point x="286.3103448275862" y="188.82758620689654" type="curve" smooth="yes"/>
      <point x="125.0" y="188.82758620689654" type="line" smooth="yes"/>
      <point x="74.79310344827586" y="188.82758620689654"/>
      <point x="41.241379310344826" y="154.82758620689654"/>
      <point x="41.241379310344826" y="94.82758620689656" type="curve" smooth="yes"/>
      <point x="41.241379310344826" y="35.275862068965516"/>
      <point x="75.06896551724137" y="0.0"/>
    </contour>
    <contour>
      <point x="718.5172413793103" y="105.75862068965517" type="curve" smooth="yes"/>
      <point x="797.0689655172414" y="105.75862068965517"/>
      <point x="846.2068965517242" y="162.1034482758621"/>
      <point x="846.2068965517242" y="245.58620689655172" type="curve" smooth="yes"/>
      <point x="846.2068965517242" y="342.7586206896552"/>
      <point x="795.5517241379309" y="392.2068965517241"/>
      <point x="729.7241379310345" y="392.2068965517241" type="curve" smooth="yes"/>
      <point x="664.2068965517242" y="392.2068965517241"/>
      <point x="618.5862068965517" y="331.51724137931035"/>
      <point x="611.9655172413794" y="248.13793103448276" type="curve"/>
      <point x="629.8275862068965" y="208.17241379310343" type="line"/>
      <point x="635.448275862069" y="272.551724137931"/>
      <point x="669.5172413793103" y="328.1034482758621"/>
      <point x="708.0689655172414" y="328.1034482758621" type="curve" smooth="yes"/>
      <point x="738.344827586207" y="328.1034482758621"/>
      <point x="763.5172413793103" y="305.2758620689655"/>
      <point x="763.5172413793103" y="248.0344827586207" type="curve" smooth="yes"/>
      <point x="763.5172413793103" y="194.41379310344826"/>
      <point x="743.9655172413793" y="161.24137931034483"/>
      <point x="706.9655172413793" y="161.24137931034483" type="curve" smooth="yes"/>
      <point x="662.4137931034483" y="161.24137931034483"/>
      <point x="624.551724137931" y="208.9655172413793"/>
      <point x="624.551724137931" y="322.3103448275862" type="curve" smooth="yes"/>
      <point x="624.551724137931" y="427.58620689655174"/>
      <point x="675.4827586206897" y="506.3793103448276"/>
      <point x="762.9655172413793" y="506.3793103448276" type="curve" smooth="yes"/>
      <point x="854.2758620689655" y="506.3793103448276"/>
      <point x="908.9310344827586" y="421.31034482758616"/>
      <point x="909.655172413793" y="306.2413793103448" type="curve"/>
      <point x="957.6896551724137" y="306.2413793103448" type="line"/>
      <point x="955.8620689655172" y="464.06896551724134"/>
      <point x="883.1379310344827" y="562.0344827586207"/>
      <point x="761.5172413793102" y="562.0344827586207" type="curve" smooth="yes"/>
      <point x="640.3103448275862" y="562.0344827586207"/>
      <point x="570.3448275862069" y="456.41379310344826"/>
      <point x="570.3448275862069" y="320.3103448275862" type="curve" smooth="yes"/>
      <point x="570.3448275862069" y="184.3103448275862"/>
      <point x="629.8620689655172" y="105.75862068965517"/>
    </contour>
    <contour>
      <point x="909.655172413793" y="109.48275862068967" type="line"/>
      <point x="1006.5862068965519" y="109.48275862068967" type="line"/>
      <point x="1006.5862068965519" y="503.9310344827586" type="line"/>
      <point x="1117.5862068965516" y="503.9310344827586" type="line"/>
      <point x="1117.5862068965516" y="109.48275862068967" type="line"/>
      <point x="1213.5172413793102" y="109.48275862068967" type="line"/>
      <point x="1213.5172413793102" y="503.9310344827586" type="line"/>
      <point x="1288.1724137931035" y="503.9310344827586" type="line"/>
      <point x="1288.1724137931035" y="557.0344827586207" type="line"/>
      <point x="925.9655172413794" y="557.0344827586207" type="line"/>
      <point x="926.7931034482759" y="382.31034482758616" type="line"/>
      <point x="909.655172413793" y="378.58620689655174" type="line"/>
    </contour>
  </outline>
</glyph>
<glyph name="e-tamil" format="2">
  <advance width="724.3103448275863"/>
  <unicode hex="0B8E"/>
  <note>
uni0B8E
</note>
  <anchor x="374.41379310344826" y="0.0" name="bottom"/>
  <anchor x="375.1379310344828" y="0.0" name="nukta"/>
  <anchor x="377.4137931034483" y="557.0344827586207" name="top"/>
  <anchor x="377.41379310344826" y="557.0344827586207" name="vedic"/>
  <outline>
    <contour>
      <point x="216.51724137931035" y="-5.0" type="curve" smooth="yes"/>
      <point x="308.55172413793105" y="-5.0"/>
      <point x="364.1379310344828" y="57.827586206896555"/>
      <point x="364.1379310344828" y="155.31034482758622" type="curve" smooth="yes"/>
      <point x="364.1379310344828" y="248.0344827586207"/>
      <point x="313.8620689655172" y="308.51724137931035"/>
      <point x="237.2758620689655" y="308.51724137931035" type="curve" smooth="yes"/>
      <point x="146.96551724137933" y="308.51724137931035"/>
      <point x="98.58620689655174" y="217.13793103448276"/>
      <point x="96.31034482758622" y="117.72413793103448" type="curve"/>
      <point x="126.79310344827586" y="91.72413793103449" type="line"/>
      <point x="127.34482758620689" y="171.10344827586206"/>
      <point x="158.13793103448276" y="235.72413793103448"/>
      <point x="205.75862068965517" y="235.72413793103448" type="curve" smooth="yes"/>
      <point x="248.72413793103445" y="235.72413793103448"/>
      <point x="267.0" y="192.20689655172416"/>
      <point x="267.0" y="147.93103448275863" type="curve" smooth="yes"/>
      <point x="267.0" y="93.20689655172414"/>
      <point x="248.27586206896552" y="52.86206896551724"/>
      <point x="198.48275862068968" y="52.86206896551724" type="curve" smooth="yes"/>
      <point x="140.13793103448276" y="52.86206896551724"/>
      <point x="99.75862068965517" y="120.6896551724138"/>
      <point x="99.75862068965517" y="251.37931034482756" type="curve" smooth="yes"/>
      <point x="99.75862068965517" y="415.55172413793105"/>
      <point x="174.24137931034483" y="501.3793103448276"/>
      <point x="319.6896551724138" y="501.3793103448276" type="curve" smooth="yes"/>
      <point x="482.9310344827586" y="501.3793103448276" type="line"/>
      <point x="482.9310344827586" y="0.0" type="line"/>
      <point x="587.8275862068966" y="0.0" type="line"/>
      <point x="587.8275862068966" y="501.3793103448276" type="line"/>
      <point x="702.6896551724138" y="501.3793103448276" type="line"/>
      <point x="702.6896551724138" y="557.0344827586207" type="line"/>
      <point x="314.48275862068965" y="557.0344827586207" type="line" smooth="yes"/>
      <point x="147.1034482758621" y="557.0344827586207"/>
      <point x="43.724137931034484" y="450.55172413793105"/>
      <point x="43.724137931034484" y="252.65517241379308" type="curve" smooth="yes"/>
      <point x="43.724137931034484" y="86.58620689655173"/>
      <point x="114.10344827586208" y="-5.0"/>
    </contour>
  </outline>
</glyph>
<glyph name="ee-tamil" format="2">
  <advance width="724.3103448275863"/>
  <unicode hex="0B8F"/>
  <note>
uni0B8F
</note>
  <anchor x="374.41379310344826" y="0.0" name="bottom"/>
  <anchor x="375.1379310344828" y="-168.24137931034483" name="nukta"/>
  <anchor x="378.1379310344828" y="557.0344827586207" name="top"/>
  <anchor x="377.41379310344826" y="557.0344827586207" name="vedic"/>
  <outline>
    <contour>
      <point x="391.3103448275862" y="-208.41379310344828" type="line"/>
      <point x="587.8275862068966" y="29.96551724137931" type="line"/>
      <point x="587.8275862068966" y="501.3793103448276" type="line"/>
      <point x="702.6896551724138" y="501.3793103448276" type="line"/>
      <point x="702.6896551724138" y="557.0344827586207" type="line"/>
      <point x="314.48275862068965" y="557.0344827586207" type="line" smooth="yes"/>
      <point x="147.10344827586206" y="557.0344827586207"/>
      <point x="43.724137931034484" y="450.55172413793105"/>
      <point x="43.724137931034484" y="252.65517241379308" type="curve" smooth="yes"/>
      <point x="43.724137931034484" y="86.58620689655173"/>
      <point x="114.10344827586208" y="-5.0"/>
      <point x="216.51724137931035" y="-5.0" type="curve" smooth="yes"/>
      <point x="308.55172413793105" y="-5.0"/>
      <point x="364.1379310344828" y="57.82758620689655"/>
      <point x="364.1379310344828" y="155.31034482758622" type="curve" smooth="yes"/>
      <point x="364.1379310344828" y="248.0344827586207"/>
      <point x="313.8620689655172" y="308.51724137931035"/>
      <point x="237.2758620689655" y="308.51724137931035" type="curve" smooth="yes"/>
      <point x="146.96551724137933" y="308.51724137931035"/>
      <point x="98.58620689655174" y="217.13793103448276"/>
      <point x="96.31034482758622" y="117.72413793103448" type="curve"/>
      <point x="126.79310344827586" y="91.72413793103448" type="line"/>
      <point x="127.34482758620689" y="171.10344827586206"/>
      <point x="158.6896551724138" y="235.72413793103448"/>
      <point x="206.0344827586207" y="235.72413793103448" type="curve" smooth="yes"/>
      <point x="248.99999999999997" y="235.72413793103448"/>
      <point x="267.0" y="192.20689655172413"/>
      <point x="267.0" y="147.93103448275863" type="curve" smooth="yes"/>
      <point x="267.0" y="93.20689655172414"/>
      <point x="248.27586206896552" y="52.86206896551724"/>
      <point x="198.7586206896552" y="52.86206896551724" type="curve" smooth="yes"/>
      <point x="140.68965517241378" y="52.86206896551724"/>
      <point x="100.0344827586207" y="120.6896551724138"/>
      <point x="100.0344827586207" y="251.37931034482756" type="curve" smooth="yes"/>
      <point x="100.0344827586207" y="415.55172413793105"/>
      <point x="174.24137931034483" y="501.3793103448276"/>
      <point x="319.6896551724138" y="501.3793103448276" type="curve" smooth="yes"/>
      <point x="482.9310344827586" y="501.3793103448276" type="line"/>
      <point x="482.9310344827586" y="-3.1379310344827593" type="line"/>
      <point x="346.6551724137931" y="-171.75862068965517" type="line"/>
    </contour>
  </outline>
</glyph>
<glyph name="ai-tamil" format="2">
  <advance width="769.1034482758621"/>
  <unicode hex="0B90"/>
  <note>
uni0B90
</note>
  <anchor x="386.4482758620689" y="0.0" name="bottom"/>
  <anchor x="383.0" y="-300.9655172413793" name="nukta"/>
  <anchor x="399.37931034482756" y="557.0344827586207" name="top"/>
  <anchor x="394.48275862068965" y="557.0344827586207" name="vedic"/>
  <outline>
    <contour>
      <point x="230.75862068965517" y="-300.9655172413793" type="curve" smooth="yes"/>
      <point x="315.17241379310343" y="-300.9655172413793"/>
      <point x="379.89655172413796" y="-256.58620689655174"/>
      <point x="397.55172413793105" y="-183.75862068965517" type="curve"/>
      <point x="411.9310344827586" y="-251.86206896551724"/>
      <point x="464.3103448275863" y="-300.9655172413793"/>
      <point x="554.5862068965517" y="-300.9655172413793" type="curve" smooth="yes"/>
      <point x="654.3448275862069" y="-300.9655172413793"/>
      <point x="725.3793103448276" y="-238.41379310344828"/>
      <point x="725.3793103448276" y="-102.0344827586207" type="curve" smooth="yes"/>
      <point x="725.3793103448276" y="-37.20689655172414"/>
      <point x="707.7241379310345" y="14.17241379310345"/>
      <point x="676.448275862069" y="73.62068965517241" type="curve"/>
      <point x="626.9655172413793" y="45.51724137931035" type="line"/>
      <point x="652.5172413793103" y="-2.7586206896551726"/>
      <point x="670.0689655172414" y="-48.310344827586206"/>
      <point x="670.0689655172414" y="-96.3103448275862" type="curve" smooth="yes"/>
      <point x="670.0689655172414" y="-192.86206896551727"/>
      <point x="626.4137931034483" y="-238.3103448275862"/>
      <point x="554.4137931034483" y="-238.3103448275862" type="curve" smooth="yes"/>
      <point x="483.2413793103448" y="-238.3103448275862"/>
      <point x="447.75862068965523" y="-176.24137931034483"/>
      <point x="447.75862068965523" y="-79.79310344827587" type="curve" smooth="yes"/>
      <point x="447.75862068965523" y="-38.51724137931034" type="line"/>
      <point x="350.4137931034483" y="-38.51724137931034" type="line"/>
      <point x="350.4137931034483" y="-93.51724137931033" type="line" smooth="yes"/>
      <point x="350.4137931034483" y="-191.31034482758622"/>
      <point x="310.62068965517244" y="-243.20689655172416"/>
      <point x="247.17241379310343" y="-243.20689655172416" type="curve" smooth="yes"/>
      <point x="186.44827586206895" y="-243.20689655172416"/>
      <point x="146.75862068965517" y="-198.6551724137931"/>
      <point x="146.75862068965517" y="-118.10344827586206" type="curve" smooth="yes"/>
      <point x="146.75862068965517" y="28.137931034482758"/>
      <point x="243.51724137931035" y="63.24137931034482"/>
      <point x="413.72413793103453" y="77.72413793103448" type="curve" smooth="yes"/>
      <point x="582.6896551724138" y="92.48275862068965"/>
      <point x="724.3793103448276" y="140.3103448275862"/>
      <point x="724.3793103448276" y="342.2068965517241" type="curve" smooth="yes"/>
      <point x="724.3793103448276" y="504.1724137931035"/>
      <point x="647.1034482758621" y="562.0344827586206"/>
      <point x="550.8620689655173" y="562.0344827586206" type="curve" smooth="yes"/>
      <point x="478.58620689655174" y="562.0344827586206"/>
      <point x="423.7241379310345" y="526.1379310344827"/>
      <point x="401.89655172413796" y="447.8620689655172" type="curve"/>
      <point x="376.62068965517244" y="526.3103448275862"/>
      <point x="310.0" y="562.0344827586206"/>
      <point x="233.24137931034483" y="562.0344827586206" type="curve" smooth="yes"/>
      <point x="123.65517241379311" y="562.0344827586206"/>
      <point x="47.275862068965516" y="477.37931034482756"/>
      <point x="47.275862068965516" y="348.7241379310345" type="curve" smooth="yes"/>
      <point x="47.275862068965516" y="237.17241379310346"/>
      <point x="101.65517241379311" y="155.44827586206895"/>
      <point x="181.58620689655172" y="155.44827586206895" type="curve" smooth="yes"/>
      <point x="248.13793103448276" y="155.44827586206895"/>
      <point x="295.7931034482759" y="203.89655172413794"/>
      <point x="295.7931034482759" y="277.3793103448276" type="curve" smooth="yes"/>
      <point x="295.7931034482759" y="361.2758620689655"/>
      <point x="256.2413793103448" y="411.7241379310345"/>
      <point x="196.68965517241378" y="411.7241379310345" type="curve" smooth="yes"/>
      <point x="144.3793103448276" y="411.7241379310345"/>
      <point x="95.93103448275862" y="375.51724137931035"/>
      <point x="88.93103448275862" y="257.3103448275862" type="curve"/>
      <point x="110.13793103448276" y="222.6206896551724" type="line"/>
      <point x="113.41379310344828" y="320.34482758620686"/>
      <point x="144.75862068965517" y="346.3448275862069"/>
      <point x="173.93103448275863" y="346.3448275862069" type="curve" smooth="yes"/>
      <point x="202.8275862068965" y="346.3448275862069"/>
      <point x="217.2758620689655" y="320.89655172413796"/>
      <point x="217.2758620689655" y="279.55172413793105" type="curve" smooth="yes"/>
      <point x="217.2758620689655" y="239.3793103448276"/>
      <point x="200.10344827586206" y="212.20689655172416"/>
      <point x="169.93103448275863" y="212.20689655172416" type="curve" smooth="yes"/>
      <point x="133.6551724137931" y="212.20689655172416"/>
      <point x="103.75862068965517" y="246.86206896551724"/>
      <point x="103.75862068965517" y="344.2758620689655" type="curve" smooth="yes"/>
      <point x="103.75862068965517" y="448.2758620689655"/>
      <point x="157.13793103448276" y="505.55172413793105"/>
      <point x="226.06896551724137" y="505.55172413793105" type="curve" smooth="yes"/>
      <point x="301.7931034482759" y="505.55172413793105"/>
      <point x="350.4137931034483" y="460.2068965517241"/>
      <point x="350.4137931034483" y="351.3448275862069" type="curve" smooth="yes"/>
      <point x="350.4137931034483" y="213.89655172413794" type="line"/>
      <point x="447.75862068965523" y="213.89655172413794" type="line"/>
      <point x="447.75862068965523" y="375.41379310344826" type="line" smooth="yes"/>
      <point x="447.75862068965523" y="455.7586206896552"/>
      <point x="478.9310344827586" y="505.2758620689655"/>
      <point x="533.551724137931" y="505.2758620689655" type="curve" smooth="yes"/>
      <point x="594.0689655172414" y="505.2758620689655"/>
      <point x="621.3448275862069" y="447.2068965517241"/>
      <point x="621.3448275862069" y="352.7586206896552" type="curve" smooth="yes"/>
      <point x="621.3448275862069" y="188.58620689655172"/>
      <point x="533.1034482758621" y="133.13793103448276"/>
      <point x="344.5862068965517" y="116.82758620689656" type="curve" smooth="yes"/>
      <point x="178.72413793103448" y="102.72413793103448"/>
      <point x="43.724137931034484" y="61.44827586206896"/>
      <point x="43.724137931034484" y="-107.48275862068967" type="curve" smooth="yes"/>
      <point x="43.724137931034484" y="-229.68965517241378"/>
      <point x="121.89655172413794" y="-300.9655172413793"/>
    </contour>
  </outline>
</glyph>
<glyph name="o-tamil" format="2">
  <advance width="787.4137931034481"/>
  <unicode hex="0B92"/>
  <note>
uni0B92
</note>
  <anchor x="401.1379310344828" y="0.0" name="bottom"/>
  <anchor x="399.1379310344828" y="-335.0" name="nukta"/>
  <anchor x="394.1379310344828" y="557.0344827586207" name="top"/>
  <anchor x="394.1379310344828" y="557.0344827586207" name="vedic"/>
  <outline>
    <contour>
      <point x="295.6206896551724" y="-298.4137931034483" type="curve" smooth="yes"/>
      <point x="449.44827586206895" y="-298.4137931034483"/>
      <point x="476.58620689655174" y="-134.17241379310346"/>
      <point x="605.1379310344828" y="-134.17241379310346" type="curve" smooth="yes"/>
      <point x="642.0" y="-134.17241379310346" type="line"/>
      <point x="642.0" y="-78.51724137931035" type="line"/>
      <point x="593.9310344827586" y="-78.51724137931035" type="line" smooth="yes"/>
      <point x="468.62068965517244" y="-78.51724137931035"/>
      <point x="399.62068965517244" y="27.20689655172414"/>
      <point x="475.89655172413796" y="191.6896551724138" type="curve"/>
      <point x="481.8965517241379" y="188.6896551724138" type="line"/>
      <point x="460.8965517241379" y="78.03448275862068"/>
      <point x="484.93103448275866" y="-4.724137931034483"/>
      <point x="592.8965517241379" y="-4.724137931034483" type="curve" smooth="yes"/>
      <point x="677.9310344827587" y="-4.724137931034483"/>
      <point x="743.6896551724138" y="68.17241379310344"/>
      <point x="743.6896551724138" y="193.82758620689657" type="curve" smooth="yes"/>
      <point x="743.6896551724138" y="425.86206896551727"/>
      <point x="585.8620689655172" y="562.0344827586207"/>
      <point x="374.13793103448273" y="562.0344827586207" type="curve" smooth="yes"/>
      <point x="186.55172413793102" y="562.0344827586207"/>
      <point x="43.724137931034484" y="417.2758620689655"/>
      <point x="43.724137931034484" y="242.10344827586206" type="curve" smooth="yes"/>
      <point x="43.724137931034484" y="78.13793103448276"/>
      <point x="114.10344827586208" y="-5.0"/>
      <point x="216.51724137931038" y="-5.0" type="curve" smooth="yes"/>
      <point x="308.55172413793105" y="-5.0"/>
      <point x="364.1379310344828" y="57.82758620689655"/>
      <point x="364.1379310344828" y="155.31034482758622" type="curve" smooth="yes"/>
      <point x="364.1379310344828" y="248.0344827586207"/>
      <point x="313.8620689655172" y="308.51724137931035"/>
      <point x="237.27586206896552" y="308.51724137931035" type="curve" smooth="yes"/>
      <point x="146.96551724137933" y="308.51724137931035"/>
      <point x="98.58620689655172" y="217.13793103448276"/>
      <point x="96.3103448275862" y="117.72413793103449" type="curve"/>
      <point x="126.79310344827586" y="91.72413793103448" type="line"/>
      <point x="126.62068965517243" y="171.10344827586206"/>
      <point x="158.13793103448276" y="235.72413793103448"/>
      <point x="205.75862068965515" y="235.72413793103448" type="curve" smooth="yes"/>
      <point x="248.72413793103445" y="235.72413793103448"/>
      <point x="267.0" y="192.20689655172413"/>
      <point x="267.0" y="147.93103448275863" type="curve" smooth="yes"/>
      <point x="267.0" y="93.20689655172414"/>
      <point x="248.27586206896552" y="52.86206896551724"/>
      <point x="198.48275862068965" y="52.86206896551724" type="curve" smooth="yes"/>
      <point x="140.13793103448276" y="52.86206896551724"/>
      <point x="99.75862068965517" y="111.51724137931033"/>
      <point x="99.75862068965517" y="241.10344827586206" type="curve" smooth="yes"/>
      <point x="99.75862068965517" y="395.72413793103453"/>
      <point x="227.2413793103448" y="505.82758620689657"/>
      <point x="369.8275862068965" y="505.82758620689657" type="curve" smooth="yes"/>
      <point x="532.6896551724138" y="505.82758620689657"/>
      <point x="643.0" y="396.2068965517241"/>
      <point x="643.0" y="205.20689655172413" type="curve" smooth="yes"/>
      <point x="643.0" y="111.65517241379311"/>
      <point x="614.0" y="54.241379310344826"/>
      <point x="568.3793103448276" y="54.241379310344826" type="curve" smooth="yes"/>
      <point x="507.4137931034482" y="54.241379310344826"/>
      <point x="507.448275862069" y="147.1034482758621"/>
      <point x="541.0" y="253.48275862068962" type="curve"/>
      <point x="473.68965517241384" y="282.41379310344826" type="line"/>
      <point x="337.89655172413796" y="55.79310344827587"/>
      <point x="400.3793103448276" y="-59.86206896551724"/>
      <point x="498.89655172413796" y="-101.06896551724138" type="curve"/>
      <point x="498.89655172413796" y="-106.06896551724138" type="line"/>
      <point x="392.7586206896551" y="-128.17241379310343"/>
      <point x="372.06896551724134" y="-231.75862068965517"/>
      <point x="275.2413793103448" y="-231.75862068965517" type="curve" smooth="yes"/>
      <point x="234.86206896551724" y="-231.75862068965517"/>
      <point x="203.5862068965517" y="-209.20689655172416"/>
      <point x="203.5862068965517" y="-163.20689655172413" type="curve" smooth="yes"/>
      <point x="203.5862068965517" y="-131.20689655172416"/>
      <point x="216.68965517241378" y="-111.37931034482757"/>
      <point x="243.41379310344828" y="-83.37931034482759" type="curve"/>
      <point x="203.13793103448276" y="-47.27586206896552" type="line"/>
      <point x="166.58620689655174" y="-86.27586206896552"/>
      <point x="148.65517241379308" y="-114.93103448275863"/>
      <point x="148.65517241379308" y="-162.20689655172413" type="curve" smooth="yes"/>
      <point x="148.65517241379308" y="-249.20689655172413"/>
      <point x="210.65517241379308" y="-298.4137931034483"/>
    </contour>
  </outline>
</glyph>
<glyph name="oo-tamil" format="2">
  <advance width="787.4137931034481"/>
  <unicode hex="0B93"/>
  <note>
uni0B93
</note>
  <anchor x="392.6896551724138" y="0.0" name="bottom"/>
  <anchor x="390.6896551724138" y="-276.2413793103449" name="nukta"/>
  <anchor x="385.6896551724138" y="557.0344827586207" name="top"/>
  <anchor x="385.6896551724138" y="557.0344827586207" name="vedic"/>
  <outline>
    <contour>
      <point x="274.6206896551724" y="-309.4137931034483" type="curve" smooth="yes"/>
      <point x="437.6206896551724" y="-309.4137931034483"/>
      <point x="476.58620689655174" y="-134.17241379310346"/>
      <point x="605.1379310344827" y="-134.17241379310346" type="curve" smooth="yes"/>
      <point x="635.3793103448276" y="-134.17241379310346" type="line"/>
      <point x="635.3793103448276" y="-78.51724137931035" type="line"/>
      <point x="593.9310344827586" y="-78.51724137931035" type="line" smooth="yes"/>
      <point x="468.6206896551725" y="-78.51724137931035"/>
      <point x="398.17241379310343" y="27.206896551724146"/>
      <point x="475.8965517241379" y="191.6896551724138" type="curve"/>
      <point x="481.8965517241379" y="188.6896551724138" type="line"/>
      <point x="460.8965517241379" y="78.0344827586207"/>
      <point x="484.93103448275866" y="-4.724137931034483"/>
      <point x="592.8965517241379" y="-4.724137931034483" type="curve" smooth="yes"/>
      <point x="677.9310344827587" y="-4.724137931034483"/>
      <point x="743.6896551724138" y="68.17241379310344"/>
      <point x="743.6896551724138" y="193.82758620689657" type="curve" smooth="yes"/>
      <point x="743.6896551724138" y="425.86206896551727"/>
      <point x="585.8620689655172" y="562.0344827586207"/>
      <point x="374.13793103448273" y="562.0344827586207" type="curve" smooth="yes"/>
      <point x="186.55172413793102" y="562.0344827586207"/>
      <point x="43.724137931034484" y="417.2758620689655"/>
      <point x="43.724137931034484" y="242.10344827586206" type="curve" smooth="yes"/>
      <point x="43.724137931034484" y="78.13793103448276"/>
      <point x="114.10344827586208" y="-5.0"/>
      <point x="216.51724137931038" y="-5.0" type="curve" smooth="yes"/>
      <point x="308.55172413793105" y="-5.0"/>
      <point x="364.1379310344828" y="57.82758620689655"/>
      <point x="364.1379310344828" y="155.31034482758622" type="curve" smooth="yes"/>
      <point x="364.1379310344828" y="248.0344827586207"/>
      <point x="313.8620689655172" y="308.51724137931035"/>
      <point x="237.27586206896552" y="308.51724137931035" type="curve" smooth="yes"/>
      <point x="146.96551724137933" y="308.51724137931035"/>
      <point x="98.58620689655172" y="217.13793103448276"/>
      <point x="96.3103448275862" y="117.72413793103449" type="curve"/>
      <point x="126.79310344827586" y="91.72413793103448" type="line"/>
      <point x="126.62068965517243" y="171.10344827586206"/>
      <point x="158.13793103448276" y="235.72413793103448"/>
      <point x="205.75862068965515" y="235.72413793103448" type="curve" smooth="yes"/>
      <point x="248.72413793103445" y="235.72413793103448"/>
      <point x="267.0" y="192.20689655172413"/>
      <point x="267.0" y="147.93103448275863" type="curve" smooth="yes"/>
      <point x="267.0" y="93.20689655172414"/>
      <point x="248.27586206896552" y="52.86206896551724"/>
      <point x="198.48275862068965" y="52.86206896551724" type="curve" smooth="yes"/>
      <point x="140.13793103448276" y="52.86206896551724"/>
      <point x="99.75862068965517" y="111.51724137931033"/>
      <point x="99.75862068965517" y="241.10344827586206" type="curve" smooth="yes"/>
      <point x="99.75862068965517" y="395.72413793103453"/>
      <point x="227.2413793103448" y="505.82758620689657"/>
      <point x="369.8275862068965" y="505.82758620689657" type="curve" smooth="yes"/>
      <point x="532.6896551724138" y="505.82758620689657"/>
      <point x="643.0" y="396.2068965517241"/>
      <point x="643.0" y="205.20689655172413" type="curve" smooth="yes"/>
      <point x="643.0" y="111.65517241379311"/>
      <point x="614.0" y="54.241379310344826"/>
      <point x="568.3793103448276" y="54.241379310344826" type="curve" smooth="yes"/>
      <point x="507.4137931034482" y="54.241379310344826"/>
      <point x="507.44827586206895" y="147.1034482758621"/>
      <point x="541.0" y="253.48275862068962" type="curve"/>
      <point x="473.6896551724138" y="282.41379310344826" type="line"/>
      <point x="336.17241379310343" y="55.79310344827585"/>
      <point x="400.3793103448276" y="-59.862068965517246"/>
      <point x="498.89655172413796" y="-101.06896551724138" type="curve"/>
      <point x="498.89655172413796" y="-106.06896551724138" type="line"/>
      <point x="392.7586206896552" y="-128.17241379310343"/>
      <point x="363.41379310344826" y="-246.48275862068968"/>
      <point x="251.51724137931032" y="-246.48275862068968" type="curve" smooth="yes"/>
      <point x="204.0344827586207" y="-246.48275862068968"/>
      <point x="173.58620689655174" y="-220.3103448275862"/>
      <point x="173.58620689655174" y="-180.6551724137931" type="curve" smooth="yes"/>
      <point x="173.58620689655174" y="-149.55172413793105"/>
      <point x="198.31034482758622" y="-125.0"/>
      <point x="226.8620689655172" y="-125.0" type="curve" smooth="yes"/>
      <point x="257.6896551724138" y="-125.0"/>
      <point x="279.68965517241384" y="-141.55172413793102"/>
      <point x="290.9655172413793" y="-177.20689655172413" type="curve"/>
      <point x="319.51724137931035" y="-164.9310344827586"/>
      <point x="338.7931034482759" y="-141.20689655172413"/>
      <point x="338.7931034482759" y="-115.82758620689656" type="curve" smooth="yes"/>
      <point x="338.7931034482759" y="-76.0"/>
      <point x="298.2413793103448" y="-51.172413793103445"/>
      <point x="250.7586206896552" y="-51.172413793103445" type="curve" smooth="yes"/>
      <point x="182.17241379310346" y="-51.172413793103445"/>
      <point x="125.00000000000001" y="-102.93103448275862"/>
      <point x="125.00000000000001" y="-176.6551724137931" type="curve" smooth="yes"/>
      <point x="125.00000000000001" y="-260.3793103448276"/>
      <point x="191.10344827586206" y="-309.4137931034483"/>
    </contour>
  </outline>
</glyph>
<glyph name="au-tamil" format="2">
  <advance width="1746.034482758621"/>
  <unicode hex="0B94"/>
  <note>
uni0B94
</note>
  <anchor x="901.6206896551726" y="0.0" name="bottom"/>
  <anchor x="976.2068965517241" y="0.0" name="nukta"/>
  <anchor x="894.896551724138" y="557.0344827586207" name="top"/>
  <anchor x="894.896551724138" y="557.0344827586207" name="vedic"/>
  <outline>
    <contour>
      <point x="989.9999999999999" y="-5.0" type="curve" smooth="yes"/>
      <point x="1081.0344827586207" y="-5.0"/>
      <point x="1137.6206896551726" y="57.82758620689655"/>
      <point x="1137.6206896551726" y="155.31034482758622" type="curve" smooth="yes"/>
      <point x="1137.6206896551726" y="248.0344827586207"/>
      <point x="1087.344827586207" y="308.51724137931035"/>
      <point x="1010.0344827586207" y="308.51724137931035" type="curve" smooth="yes"/>
      <point x="920.448275862069" y="308.51724137931035"/>
      <point x="872.0689655172413" y="217.13793103448276"/>
      <point x="869.0689655172414" y="117.72413793103448" type="curve"/>
      <point x="899.2758620689654" y="91.72413793103448" type="line"/>
      <point x="899.8275862068965" y="171.10344827586206"/>
      <point x="931.6206896551723" y="235.72413793103448"/>
      <point x="978.5172413793103" y="235.72413793103448" type="curve" smooth="yes"/>
      <point x="1021.2068965517241" y="235.72413793103448"/>
      <point x="1039.4827586206898" y="192.20689655172413"/>
      <point x="1039.4827586206898" y="147.93103448275863" type="curve" smooth="yes"/>
      <point x="1039.4827586206898" y="93.20689655172414"/>
      <point x="1021.4827586206897" y="52.86206896551724"/>
      <point x="971.9655172413793" y="52.86206896551724" type="curve" smooth="yes"/>
      <point x="912.8965517241379" y="52.86206896551724"/>
      <point x="873.2413793103449" y="120.6896551724138"/>
      <point x="873.2413793103449" y="251.37931034482756" type="curve" smooth="yes"/>
      <point x="873.2413793103449" y="415.0"/>
      <point x="942.9310344827585" y="504.44827586206895"/>
      <point x="1066.2758620689656" y="504.44827586206895" type="curve" smooth="yes"/>
      <point x="1172.5172413793102" y="504.44827586206895"/>
      <point x="1252.9655172413793" y="432.2413793103448"/>
      <point x="1252.9655172413793" y="279.3793103448276" type="curve"/>
      <point x="1309.1724137931035" y="285.7586206896552" type="line"/>
      <point x="1297.448275862069" y="482.7586206896551"/>
      <point x="1193.103448275862" y="562.0344827586207"/>
      <point x="1061.8275862068965" y="562.0344827586207" type="curve" smooth="yes"/>
      <point x="912.9655172413794" y="562.0344827586207"/>
      <point x="817.2068965517242" y="453.1724137931035"/>
      <point x="817.2068965517242" y="252.65517241379308" type="curve" smooth="yes"/>
      <point x="817.2068965517242" y="86.58620689655173"/>
      <point x="887.3103448275862" y="-5.0"/>
    </contour>
    <contour>
      <point x="1253.689655172414" y="0.0" type="line"/>
      <point x="1357.8620689655172" y="0.0" type="line"/>
      <point x="1357.8620689655172" y="501.3793103448276" type="line"/>
      <point x="1505.6551724137933" y="501.3793103448276" type="line"/>
      <point x="1505.6551724137933" y="0.0" type="line"/>
      <point x="1608.8275862068967" y="0.0" type="line"/>
      <point x="1608.8275862068967" y="501.3793103448276" type="line"/>
      <point x="1724.4137931034481" y="501.3793103448276" type="line"/>
      <point x="1724.4137931034481" y="557.0344827586207" type="line"/>
      <point x="1275.3793103448274" y="557.0344827586207" type="line"/>
      <point x="1275.3793103448274" y="379.27586206896547" type="line"/>
      <point x="1253.689655172414" y="377.8620689655172" type="line"/>
    </contour>
    <component base="o-tamil"/>
  </outline>
</glyph>
<glyph name="nya-tamil" format="2">
  <advance width="1028.3103448275863"/>
  <unicode hex="0B9E"/>
  <note>
uni0B9E
</note>
  <anchor x="535.6896551724137" y="0.0" name="bottom"/>
  <anchor x="797.2068965517241" y="557.0344827586207" name="imatra"/>
  <anchor x="524.551724137931" y="-308.68965517241384" name="nukta"/>
  <anchor x="554.6206896551724" y="557.0344827586207" name="top"/>
  <anchor x="532.4137931034483" y="557.0344827586207" name="vedic"/>
  <outline>
    <contour>
      <point x="524.551724137931" y="-308.68965517241384" type="curve" smooth="yes"/>
      <point x="774.344827586207" y="-308.68965517241384"/>
      <point x="981.4137931034483" y="-154.44827586206895"/>
      <point x="981.4137931034483" y="128.86206896551724" type="curve" smooth="yes"/>
      <point x="981.4137931034483" y="273.82758620689657"/>
      <point x="922.9310344827586" y="345.27586206896547"/>
      <point x="838.9310344827587" y="345.27586206896547" type="curve" smooth="yes"/>
      <point x="764.1724137931035" y="345.27586206896547"/>
      <point x="716.3448275862069" y="278.2413793103448"/>
      <point x="716.3448275862069" y="181.6896551724138" type="curve" smooth="yes"/>
      <point x="716.3448275862069" y="137.17241379310343" type="line"/>
      <point x="739.7931034482759" y="137.17241379310343" type="line"/>
      <point x="739.7931034482759" y="179.6896551724138" type="line" smooth="yes"/>
      <point x="739.7931034482759" y="232.13793103448273"/>
      <point x="766.6896551724138" y="275.65517241379314"/>
      <point x="803.1379310344829" y="275.65517241379314" type="curve" smooth="yes"/>
      <point x="853.3793103448277" y="275.65517241379314"/>
      <point x="878.8275862068966" y="231.20689655172413"/>
      <point x="878.8275862068966" y="124.06896551724138" type="curve" smooth="yes"/>
      <point x="878.8275862068966" y="-132.58620689655172"/>
      <point x="713.5862068965517" y="-251.9310344827586"/>
      <point x="518.8275862068965" y="-251.9310344827586" type="curve" smooth="yes"/>
      <point x="290.37931034482756" y="-251.9310344827586"/>
      <point x="104.0344827586207" y="-76.51724137931035"/>
      <point x="104.0344827586207" y="223.6551724137931" type="curve" smooth="yes"/>
      <point x="104.0344827586207" y="400.0"/>
      <point x="148.93103448275863" y="505.2068965517242"/>
      <point x="239.75862068965517" y="616.1379310344828" type="curve"/>
      <point x="198.44827586206895" y="651.7931034482759" type="line"/>
      <point x="99.51724137931033" y="536.1034482758621"/>
      <point x="48.44827586206896" y="401.9310344827586"/>
      <point x="48.44827586206896" y="222.82758620689657" type="curve" smooth="yes"/>
      <point x="48.44827586206896" y="-78.82758620689656"/>
      <point x="239.55172413793105" y="-308.68965517241384"/>
    </contour>
    <component base="e-tamil" xOffset="154.68965517241378"/>
  </outline>
</glyph>
<glyph name="tta-tamil" format="2">
  <advance width="696.655172413793"/>
  <unicode hex="0B9F"/>
  <note>
uni0B9F
</note>
  <anchor x="362.1724137931035" y="0.0" name="bottom"/>
  <anchor x="362.1724137931035" y="0.0" name="nukta"/>
  <anchor x="369.00000000000006" y="557.0344827586207" name="top"/>
  <anchor x="375.72413793103453" y="557.0344827586207" name="vedic"/>
  <outline>
    <contour>
      <point x="71.9655172413793" y="0.0" type="line"/>
      <point x="680.0344827586207" y="0.0" type="line"/>
      <point x="680.0344827586207" y="55.93103448275862" type="line"/>
      <point x="176.86206896551724" y="55.93103448275862" type="line"/>
      <point x="176.86206896551724" y="557.0344827586207" type="line"/>
      <point x="71.9655172413793" y="557.0344827586207" type="line"/>
    </contour>
  </outline>
</glyph>
<glyph name="ta-tamil" format="2">
  <advance width="669.0689655172414"/>
  <unicode hex="0BA4"/>
  <note>
uni0BA4
</note>
  <anchor x="329.82758620689657" y="0.0" name="bottom"/>
  <anchor x="455.17241379310343" y="557.0344827586207" name="imatra"/>
  <anchor x="357.9655172413793" y="-139.17241379310346" name="nukta"/>
  <anchor x="347.8275862068965" y="557.0344827586207" name="top"/>
  <anchor x="338.7931034482759" y="557.0344827586207" name="vedic"/>
  <outline>
    <contour>
      <point x="142.1034482758621" y="-242.55172413793105" type="curve"/>
      <point x="142.1034482758621" y="-169.58620689655174"/>
      <point x="158.20689655172413" y="-125.55172413793105"/>
      <point x="238.44827586206895" y="-125.55172413793105" type="curve" smooth="yes"/>
      <point x="359.41379310344826" y="-125.55172413793105" type="line" smooth="yes"/>
      <point x="526.5862068965517" y="-125.55172413793105"/>
      <point x="626.0689655172413" y="-52.689655172413794"/>
      <point x="626.0689655172413" y="106.37931034482759" type="curve" smooth="yes"/>
      <point x="626.0689655172413" y="248.17241379310346"/>
      <point x="548.0" y="320.3103448275862"/>
      <point x="423.7241379310345" y="320.3103448275862" type="curve" smooth="yes"/>
      <point x="408.0689655172414" y="320.3103448275862" type="line"/>
      <point x="408.0689655172414" y="501.1034482758621" type="line"/>
      <point x="529.7241379310345" y="501.1034482758621" type="line"/>
      <point x="529.7241379310345" y="557.0344827586207" type="line"/>
      <point x="143.68965517241378" y="557.0344827586207" type="line"/>
      <point x="143.68965517241378" y="288.2068965517241" type="line"/>
      <point x="201.44827586206895" y="288.2068965517241" type="line"/>
      <point x="201.44827586206895" y="501.1034482758621" type="line"/>
      <point x="302.6206896551724" y="501.1034482758621" type="line"/>
      <point x="302.6206896551724" y="320.3103448275862" type="line"/>
      <point x="185.3793103448276" y="320.3103448275862" type="line" smooth="yes"/>
      <point x="104.48275862068965" y="320.3103448275862"/>
      <point x="45.89655172413793" y="258.7586206896552"/>
      <point x="45.89655172413793" y="164.20689655172413" type="curve" smooth="yes"/>
      <point x="45.89655172413793" y="64.37931034482759"/>
      <point x="104.27586206896551" y="-4.0"/>
      <point x="217.2413793103448" y="-4.0" type="curve" smooth="yes"/>
      <point x="341.551724137931" y="-4.0"/>
      <point x="408.0689655172414" y="66.72413793103448"/>
      <point x="408.0689655172414" y="200.55172413793102" type="curve" smooth="yes"/>
      <point x="408.0689655172414" y="264.3793103448276" type="line"/>
      <point x="420.51724137931035" y="264.3793103448276" type="line" smooth="yes"/>
      <point x="484.1034482758621" y="264.3793103448276"/>
      <point x="521.0344827586207" y="214.0344827586207"/>
      <point x="521.0344827586207" y="108.27586206896552" type="curve" smooth="yes"/>
      <point x="521.0344827586207" y="-16.20689655172414"/>
      <point x="446.17241379310343" y="-76.89655172413794"/>
      <point x="329.0344827586207" y="-76.89655172413794" type="curve" smooth="yes"/>
      <point x="199.58620689655172" y="-76.89655172413794" type="line" smooth="yes"/>
      <point x="123.24137931034481" y="-76.89655172413794"/>
      <point x="55.00000000000001" y="-92.72413793103448"/>
      <point x="55.00000000000001" y="-167.86206896551724" type="curve" smooth="yes"/>
      <point x="55.00000000000001" y="-219.8965517241379"/>
      <point x="88.13793103448276" y="-242.55172413793105"/>
    </contour>
    <contour>
      <point x="202.17241379310343" y="53.13793103448276" type="curve" smooth="yes"/>
      <point x="141.93103448275863" y="53.13793103448276"/>
      <point x="106.10344827586208" y="91.58620689655173"/>
      <point x="106.10344827586208" y="162.20689655172413" type="curve" smooth="yes"/>
      <point x="106.10344827586208" y="224.3793103448276"/>
      <point x="131.1034482758621" y="264.37931034482756"/>
      <point x="191.55172413793105" y="264.37931034482756" type="curve" smooth="yes"/>
      <point x="302.6206896551724" y="264.37931034482756" type="line"/>
      <point x="302.6206896551724" y="189.27586206896552" type="line" smooth="yes"/>
      <point x="302.6206896551724" y="89.58620689655172"/>
      <point x="258.0" y="53.13793103448276"/>
    </contour>
  </outline>
</glyph>
<glyph name="na-tamil" format="2">
  <advance width="626.2413793103449"/>
  <unicode hex="0BA8"/>
  <note>
uni0BA8
</note>
  <anchor x="299.82758620689657" y="0.0" name="bottom"/>
  <anchor x="426.17241379310343" y="557.0344827586207" name="imatra"/>
  <anchor x="338.93103448275866" y="-186.51724137931035" name="nukta"/>
  <anchor x="303.0" y="557.0344827586207" name="top"/>
  <anchor x="315.48275862068965" y="557.0344827586207" name="vedic"/>
  <outline>
    <contour>
      <point x="145.89655172413794" y="-255.3448275862069" type="curve"/>
      <point x="145.89655172413794" y="-181.6551724137931"/>
      <point x="162.0" y="-137.6206896551724"/>
      <point x="242.24137931034485" y="-137.6206896551724" type="curve" smooth="yes"/>
      <point x="319.0" y="-137.6206896551724" type="line" smooth="yes"/>
      <point x="473.13793103448273" y="-137.6206896551724"/>
      <point x="579.3448275862069" y="-60.62068965517241"/>
      <point x="579.3448275862069" y="143.0" type="curve" smooth="yes"/>
      <point x="579.3448275862069" y="276.1034482758621"/>
      <point x="526.0344827586207" y="346.37931034482756"/>
      <point x="446.10344827586204" y="346.37931034482756" type="curve" smooth="yes"/>
      <point x="390.7241379310345" y="346.37931034482756"/>
      <point x="363.51724137931035" y="313.82758620689657"/>
      <point x="348.7586206896552" y="287.0689655172414" type="curve"/>
      <point x="348.7586206896552" y="501.3793103448276" type="line"/>
      <point x="482.1034482758621" y="501.3793103448276" type="line"/>
      <point x="482.1034482758621" y="557.0344827586207" type="line"/>
      <point x="71.96551724137932" y="557.0344827586207" type="line"/>
      <point x="71.96551724137932" y="0.0" type="line"/>
      <point x="129.72413793103448" y="0.0" type="line"/>
      <point x="129.72413793103448" y="501.3793103448276" type="line"/>
      <point x="243.8620689655172" y="501.3793103448276" type="line"/>
      <point x="243.8620689655172" y="0.0" type="line"/>
      <point x="348.7586206896552" y="0.0" type="line"/>
      <point x="348.7586206896552" y="197.31034482758622" type="line" smooth="yes"/>
      <point x="348.7586206896552" y="239.6896551724138"/>
      <point x="368.5862068965517" y="273.3103448275862"/>
      <point x="406.0344827586207" y="273.3103448275862" type="curve" smooth="yes"/>
      <point x="447.13793103448273" y="273.3103448275862"/>
      <point x="475.7586206896552" y="233.75862068965517"/>
      <point x="475.7586206896552" y="131.72413793103448" type="curve" smooth="yes"/>
      <point x="475.7586206896552" y="-26.96551724137931"/>
      <point x="424.3793103448276" y="-89.24137931034483"/>
      <point x="297.96551724137936" y="-89.24137931034483" type="curve" smooth="yes"/>
      <point x="203.6551724137931" y="-89.24137931034483" type="line" smooth="yes"/>
      <point x="127.75862068965517" y="-89.24137931034483"/>
      <point x="58.79310344827586" y="-105.79310344827586"/>
      <point x="58.79310344827586" y="-180.6551724137931" type="curve" smooth="yes"/>
      <point x="58.79310344827586" y="-230.24137931034483"/>
      <point x="92.65517241379311" y="-255.3448275862069"/>
    </contour>
  </outline>
</glyph>
<glyph name="nnna-tamil" format="2">
  <advance width="1037.896551724138"/>
  <unicode hex="0BA9"/>
  <note>
uni0BA9
</note>
  <anchor x="510.68965517241384" y="0.0" name="bottom"/>
  <anchor x="908.1379310344828" y="557.0344827586207" name="imatra"/>
  <anchor x="511.2413793103449" y="0.0" name="nukta"/>
  <anchor x="538.3793103448276" y="557.0344827586207" name="top"/>
  <anchor x="534.7241379310344" y="557.0344827586207" name="vedic"/>
  <outline>
    <contour>
      <point x="215.06896551724137" y="-5.0" type="curve" smooth="yes"/>
      <point x="306.82758620689657" y="-5.0"/>
      <point x="363.4137931034483" y="57.82758620689655"/>
      <point x="363.4137931034483" y="155.31034482758622" type="curve" smooth="yes"/>
      <point x="363.4137931034483" y="248.0344827586207"/>
      <point x="313.13793103448273" y="308.51724137931035"/>
      <point x="235.55172413793102" y="308.51724137931035" type="curve" smooth="yes"/>
      <point x="146.24137931034483" y="308.51724137931035"/>
      <point x="98.58620689655174" y="217.13793103448276"/>
      <point x="96.31034482758622" y="117.72413793103448" type="curve"/>
      <point x="126.79310344827586" y="91.72413793103448" type="line"/>
      <point x="126.6206896551724" y="171.10344827586206"/>
      <point x="157.41379310344828" y="235.72413793103448"/>
      <point x="204.0344827586207" y="235.72413793103448" type="curve" smooth="yes"/>
      <point x="247.2758620689655" y="235.72413793103448"/>
      <point x="265.2758620689655" y="192.20689655172413"/>
      <point x="265.2758620689655" y="147.93103448275863" type="curve" smooth="yes"/>
      <point x="265.2758620689655" y="93.20689655172414"/>
      <point x="247.27586206896552" y="52.86206896551724"/>
      <point x="197.7586206896552" y="52.86206896551724" type="curve" smooth="yes"/>
      <point x="138.41379310344828" y="52.86206896551724"/>
      <point x="99.75862068965517" y="120.6896551724138"/>
      <point x="99.75862068965517" y="251.3793103448276" type="curve" smooth="yes"/>
      <point x="99.75862068965517" y="417.7241379310345"/>
      <point x="203.89655172413796" y="505.55172413793105"/>
      <point x="334.06896551724134" y="505.55172413793105" type="curve" smooth="yes"/>
      <point x="490.96551724137936" y="505.55172413793105"/>
      <point x="598.0344827586207" y="385.41379310344826"/>
      <point x="598.0344827586207" y="183.44827586206895" type="curve" smooth="yes"/>
      <point x="598.0344827586207" y="95.75862068965517"/>
      <point x="572.6896551724138" y="53.13793103448276"/>
      <point x="532.2413793103448" y="53.13793103448276" type="curve" smooth="yes"/>
      <point x="493.62068965517244" y="53.13793103448276"/>
      <point x="471.62068965517244" y="94.31034482758622"/>
      <point x="471.62068965517244" y="182.55172413793102" type="curve" smooth="yes"/>
      <point x="471.62068965517244" y="368.17241379310343"/>
      <point x="557.3103448275862" y="501.3793103448276"/>
      <point x="726.8275862068966" y="501.3793103448276" type="curve" smooth="yes"/>
      <point x="1016.2758620689656" y="501.3793103448276" type="line"/>
      <point x="1016.2758620689656" y="557.0344827586207" type="line"/>
      <point x="727.1724137931035" y="557.0344827586207" type="line" smooth="yes"/>
      <point x="523.5172413793103" y="557.0344827586207"/>
      <point x="414.8620689655172" y="402.51724137931035"/>
      <point x="414.8620689655172" y="186.82758620689657" type="curve" smooth="yes"/>
      <point x="414.8620689655172" y="62.20689655172414"/>
      <point x="457.6896551724138" y="-4.724137931034483"/>
      <point x="547.103448275862" y="-4.724137931034483" type="curve" smooth="yes"/>
      <point x="635.2413793103448" y="-4.724137931034483"/>
      <point x="698.7931034482759" y="62.655172413793096"/>
      <point x="698.7931034482759" y="185.6551724137931" type="curve" smooth="yes"/>
      <point x="698.7931034482759" y="407.9310344827586"/>
      <point x="560.8275862068965" y="562.0344827586207"/>
      <point x="341.82758620689657" y="562.0344827586207" type="curve" smooth="yes"/>
      <point x="173.7241379310345" y="562.0344827586207"/>
      <point x="43.724137931034484" y="452.7931034482758"/>
      <point x="43.724137931034484" y="252.6551724137931" type="curve" smooth="yes"/>
      <point x="43.724137931034484" y="86.58620689655173"/>
      <point x="113.10344827586206" y="-5.0"/>
    </contour>
    <contour>
      <point x="796.7931034482758" y="0.0" type="line"/>
      <point x="900.6896551724138" y="0.0" type="line"/>
      <point x="900.6896551724138" y="530.9310344827586" type="line"/>
      <point x="796.7931034482758" y="530.9310344827586" type="line"/>
    </contour>
  </outline>
</glyph>
<glyph name="pa-tamil" format="2">
  <advance width="696.2758620689655"/>
  <unicode hex="0BAA"/>
  <note>
uni0BAA
</note>
  <anchor x="351.551724137931" y="0.0" name="bottom"/>
  <anchor x="618.0344827586207" y="557.0344827586207" name="imatra"/>
  <anchor x="351.551724137931" y="0.0" name="nukta"/>
  <anchor x="350.3793103448276" y="557.0344827586207" name="top"/>
  <anchor x="350.44827586206895" y="557.0344827586207" name="vedic"/>
  <outline>
    <contour>
      <point x="71.9655172413793" y="0.0" type="line"/>
      <point x="623.8620689655172" y="0.0" type="line"/>
      <point x="623.8620689655172" y="557.0344827586207" type="line"/>
      <point x="519.9655172413793" y="557.0344827586207" type="line"/>
      <point x="519.9655172413793" y="55.93103448275862" type="line"/>
      <point x="176.86206896551724" y="55.93103448275862" type="line"/>
      <point x="176.86206896551724" y="557.0344827586207" type="line"/>
      <point x="71.9655172413793" y="557.0344827586207" type="line"/>
    </contour>
  </outline>
</glyph>
<glyph name="ma-tamil" format="2">
  <advance width="703.448275862069"/>
  <unicode hex="0BAE"/>
  <note>
uni0BAE
</note>
  <anchor x="351.06896551724134" y="0.0" name="bottom"/>
  <anchor x="629.5862068965517" y="557.0344827586207" name="imatra"/>
  <anchor x="352.06896551724134" y="0.0" name="nukta"/>
  <anchor x="377.1724137931035" y="557.0344827586207" name="top"/>
  <anchor x="364.72413793103453" y="557.0344827586207" name="vedic"/>
  <outline>
    <contour>
      <point x="71.9655172413793" y="0.0" type="line"/>
      <point x="524.5172413793103" y="0.0" type="line" smooth="yes"/>
      <point x="618.8620689655173" y="0.0"/>
      <point x="657.448275862069" y="61.82758620689655"/>
      <point x="657.448275862069" y="234.0" type="curve" smooth="yes"/>
      <point x="657.448275862069" y="440.3793103448276"/>
      <point x="580.7241379310345" y="562.0344827586206"/>
      <point x="460.93103448275866" y="562.0344827586206" type="curve" smooth="yes"/>
      <point x="368.9655172413793" y="562.0344827586206"/>
      <point x="335.8620689655172" y="499.1034482758621"/>
      <point x="335.8620689655172" y="399.0" type="curve" smooth="yes"/>
      <point x="335.8620689655172" y="55.93103448275862" type="line"/>
      <point x="176.86206896551724" y="55.93103448275862" type="line"/>
      <point x="176.86206896551724" y="557.0344827586207" type="line"/>
      <point x="71.9655172413793" y="557.0344827586207" type="line"/>
    </contour>
    <contour>
      <point x="440.75862068965523" y="55.93103448275862" type="line"/>
      <point x="440.75862068965523" y="400.82758620689657" type="line" smooth="yes"/>
      <point x="440.75862068965523" y="469.8965517241379"/>
      <point x="453.20689655172407" y="497.7931034482759"/>
      <point x="488.2758620689656" y="497.7931034482759" type="curve" smooth="yes"/>
      <point x="540.3448275862069" y="497.7931034482759"/>
      <point x="598.6896551724138" y="409.17241379310343"/>
      <point x="598.6896551724138" y="232.55172413793102" type="curve" smooth="yes"/>
      <point x="598.6896551724138" y="104.82758620689657"/>
      <point x="579.3103448275863" y="55.93103448275862"/>
      <point x="518.0689655172414" y="55.93103448275862" type="curve" smooth="yes"/>
    </contour>
  </outline>
</glyph>
<glyph name="ya-tamil" format="2">
  <advance width="767.1724137931034"/>
  <unicode hex="0BAF"/>
  <note>
uni0BAF
</note>
  <anchor x="380.8275862068965" y="0.0" name="bottom"/>
  <anchor x="688.3103448275862" y="557.0344827586207" name="imatra"/>
  <anchor x="382.7241379310344" y="0.0" name="nukta"/>
  <anchor x="396.6551724137931" y="557.0344827586207" name="top"/>
  <anchor x="386.31034482758616" y="557.0344827586207" name="vedic"/>
  <outline>
    <contour>
      <point x="189.93103448275863" y="-5.827586206896552" type="curve" smooth="yes"/>
      <point x="251.82758620689657" y="-5.827586206896552"/>
      <point x="282.0344827586207" y="32.41379310344828"/>
      <point x="295.89655172413796" y="58.55172413793103" type="curve"/>
      <point x="295.89655172413796" y="0.0" type="line"/>
      <point x="694.7586206896551" y="0.0" type="line"/>
      <point x="694.7586206896551" y="557.0344827586207" type="line"/>
      <point x="589.8620689655172" y="557.0344827586207" type="line"/>
      <point x="589.8620689655172" y="55.93103448275862" type="line"/>
      <point x="391.2068965517241" y="55.93103448275862" type="line"/>
      <point x="391.2068965517241" y="557.0344827586207" type="line"/>
      <point x="287.68965517241384" y="557.0344827586207" type="line"/>
      <point x="287.68965517241384" y="146.6206896551724" type="line" smooth="yes"/>
      <point x="287.68965517241384" y="89.37931034482759"/>
      <point x="262.51724137931035" y="59.03448275862069"/>
      <point x="228.0" y="59.03448275862069" type="curve" smooth="yes"/>
      <point x="196.82758620689654" y="59.03448275862069"/>
      <point x="174.03448275862067" y="81.37931034482759"/>
      <point x="174.03448275862067" y="139.2758620689655" type="curve" smooth="yes"/>
      <point x="174.03448275862067" y="557.0344827586207" type="line"/>
      <point x="69.41379310344827" y="557.0344827586207" type="line"/>
      <point x="69.41379310344827" y="149.3793103448276" type="line" smooth="yes"/>
      <point x="69.41379310344827" y="42.275862068965516"/>
      <point x="117.44827586206895" y="-5.827586206896552"/>
    </contour>
  </outline>
</glyph>
<glyph name="la-tamil" format="2">
  <advance width="826.5172413793103"/>
  <unicode hex="0BB2"/>
  <note>
uni0BB2
</note>
  <anchor x="411.3793103448276" y="0.0" name="bottom"/>
  <anchor x="411.1034482758621" y="0.0" name="nukta"/>
  <anchor x="433.0689655172414" y="557.0344827586207" name="top"/>
  <anchor x="411.2068965517242" y="557.0344827586207" name="vedic"/>
  <outline>
    <contour>
      <point x="216.51724137931035" y="-5.0" type="curve" smooth="yes"/>
      <point x="308.55172413793105" y="-5.0"/>
      <point x="364.1379310344828" y="57.82758620689655"/>
      <point x="364.1379310344828" y="155.31034482758622" type="curve" smooth="yes"/>
      <point x="364.1379310344828" y="248.0344827586207"/>
      <point x="313.8620689655172" y="308.51724137931035"/>
      <point x="237.2758620689655" y="308.51724137931035" type="curve" smooth="yes"/>
      <point x="146.9655172413793" y="308.51724137931035"/>
      <point x="98.58620689655173" y="217.13793103448276"/>
      <point x="96.3103448275862" y="117.72413793103448" type="curve"/>
      <point x="126.79310344827586" y="91.72413793103448" type="line"/>
      <point x="126.62068965517243" y="171.10344827586206"/>
      <point x="158.13793103448276" y="235.72413793103448"/>
      <point x="205.75862068965517" y="235.72413793103448" type="curve" smooth="yes"/>
      <point x="248.7241379310345" y="235.72413793103448"/>
      <point x="267.0" y="192.20689655172413"/>
      <point x="267.0" y="147.93103448275863" type="curve" smooth="yes"/>
      <point x="267.0" y="93.20689655172414"/>
      <point x="248.2758620689655" y="52.86206896551724"/>
      <point x="198.48275862068968" y="52.86206896551724" type="curve" smooth="yes"/>
      <point x="140.13793103448276" y="52.86206896551724"/>
      <point x="99.75862068965517" y="120.68965517241378"/>
      <point x="99.75862068965517" y="251.37931034482762" type="curve" smooth="yes"/>
      <point x="99.75862068965517" y="410.8275862068965"/>
      <point x="167.51724137931035" y="504.7241379310345"/>
      <point x="284.68965517241384" y="504.7241379310345" type="curve" smooth="yes"/>
      <point x="394.93103448275866" y="504.7241379310345"/>
      <point x="442.37931034482756" y="430.2413793103448"/>
      <point x="442.6551724137931" y="314.7586206896551" type="curve" smooth="yes"/>
      <point x="442.6551724137931" y="164.3793103448276" type="line" smooth="yes"/>
      <point x="442.6551724137931" y="51.6551724137931"/>
      <point x="495.0" y="-0.5517241379310347"/>
      <point x="583.448275862069" y="-0.5517241379310347" type="curve" smooth="yes"/>
      <point x="701.2068965517242" y="-0.5517241379310347"/>
      <point x="779.7931034482758" y="108.3448275862069"/>
      <point x="779.7931034482758" y="282.58620689655174" type="curve" smooth="yes"/>
      <point x="779.7931034482758" y="391.48275862068965"/>
      <point x="756.1379310344828" y="465.8620689655172"/>
      <point x="700.1379310344827" y="562.0344827586207" type="curve"/>
      <point x="650.655172413793" y="533.9310344827586" type="line"/>
      <point x="697.9310344827586" y="452.6551724137931"/>
      <point x="723.4827586206897" y="375.93103448275866"/>
      <point x="723.4827586206897" y="289.82758620689657" type="curve" smooth="yes"/>
      <point x="723.4827586206897" y="147.82758620689657"/>
      <point x="673.1034482758621" y="62.310344827586206"/>
      <point x="606.9655172413793" y="62.310344827586206" type="curve" smooth="yes"/>
      <point x="566.448275862069" y="62.310344827586206"/>
      <point x="547.8275862068965" y="91.20689655172414"/>
      <point x="547.8275862068965" y="162.0" type="curve" smooth="yes"/>
      <point x="547.8275862068965" y="317.41379310344826" type="line" smooth="yes"/>
      <point x="547.8275862068965" y="472.10344827586204"/>
      <point x="458.5172413793103" y="562.0344827586207"/>
      <point x="303.3103448275862" y="562.0344827586207" type="curve" smooth="yes"/>
      <point x="138.3793103448276" y="562.0344827586207"/>
      <point x="43.724137931034484" y="443.55172413793105"/>
      <point x="43.724137931034484" y="252.65517241379308" type="curve" smooth="yes"/>
      <point x="43.724137931034484" y="86.58620689655172"/>
      <point x="114.10344827586205" y="-5.0"/>
    </contour>
  </outline>
</glyph>
<glyph name="lla-tamil" format="2">
  <advance width="972.5517241379312"/>
  <unicode hex="0BB3"/>
  <note>
uni0BB3
</note>
  <anchor x="486.0" y="0.0" name="bottom"/>
  <anchor x="868.4827586206897" y="557.0344827586207" name="imatra"/>
  <anchor x="490.44827586206895" y="0.0" name="nukta"/>
  <anchor x="529.2068965517242" y="557.0344827586207" name="top"/>
  <anchor x="501.2758620689655" y="557.0344827586207" name="vedic"/>
  <outline>
    <contour>
      <point x="216.51724137931035" y="-5.0" type="curve" smooth="yes"/>
      <point x="308.55172413793105" y="-5.0"/>
      <point x="364.1379310344828" y="57.82758620689655"/>
      <point x="364.1379310344828" y="155.31034482758622" type="curve" smooth="yes"/>
      <point x="364.1379310344828" y="248.0344827586207"/>
      <point x="313.8620689655172" y="308.51724137931035"/>
      <point x="237.2758620689655" y="308.51724137931035" type="curve" smooth="yes"/>
      <point x="146.96551724137933" y="308.51724137931035"/>
      <point x="98.58620689655174" y="217.13793103448276"/>
      <point x="96.31034482758622" y="117.72413793103448" type="curve"/>
      <point x="126.79310344827586" y="91.72413793103448" type="line"/>
      <point x="127.34482758620689" y="171.10344827586206"/>
      <point x="158.13793103448276" y="235.72413793103448"/>
      <point x="205.75862068965517" y="235.72413793103448" type="curve" smooth="yes"/>
      <point x="248.72413793103445" y="235.72413793103448"/>
      <point x="267.0" y="192.20689655172413"/>
      <point x="267.0" y="147.93103448275863" type="curve" smooth="yes"/>
      <point x="267.0" y="93.20689655172414"/>
      <point x="248.27586206896552" y="52.86206896551724"/>
      <point x="198.48275862068968" y="52.86206896551724" type="curve" smooth="yes"/>
      <point x="140.13793103448276" y="52.86206896551724"/>
      <point x="99.75862068965517" y="120.6896551724138"/>
      <point x="99.75862068965517" y="251.37931034482756" type="curve" smooth="yes"/>
      <point x="99.75862068965517" y="415.0"/>
      <point x="170.44827586206898" y="504.44827586206895"/>
      <point x="293.06896551724134" y="504.44827586206895" type="curve" smooth="yes"/>
      <point x="399.03448275862064" y="504.44827586206895"/>
      <point x="480.2068965517242" y="432.2413793103448"/>
      <point x="480.2068965517242" y="279.3793103448276" type="curve"/>
      <point x="535.6896551724138" y="285.7586206896552" type="line"/>
      <point x="524.6896551724137" y="482.7586206896551"/>
      <point x="420.62068965517244" y="562.0344827586207"/>
      <point x="289.3448275862069" y="562.0344827586207" type="curve" smooth="yes"/>
      <point x="139.48275862068968" y="562.0344827586207"/>
      <point x="43.724137931034484" y="453.1724137931035"/>
      <point x="43.724137931034484" y="252.65517241379308" type="curve" smooth="yes"/>
      <point x="43.724137931034484" y="86.58620689655173"/>
      <point x="114.10344827586208" y="-5.0"/>
    </contour>
    <contour>
      <point x="480.48275862068965" y="0.0" type="line"/>
      <point x="584.3793103448276" y="0.0" type="line"/>
      <point x="584.3793103448276" y="501.3793103448276" type="line"/>
      <point x="732.1724137931035" y="501.3793103448276" type="line"/>
      <point x="732.1724137931035" y="0.0" type="line"/>
      <point x="836.0689655172414" y="0.0" type="line"/>
      <point x="836.0689655172414" y="501.3793103448276" type="line"/>
      <point x="950.9310344827586" y="501.3793103448276" type="line"/>
      <point x="950.9310344827586" y="557.0344827586207" type="line"/>
      <point x="502.8965517241379" y="557.0344827586207" type="line"/>
      <point x="502.8965517241379" y="379.27586206896547" type="line"/>
      <point x="480.48275862068965" y="377.8620689655172" type="line"/>
    </contour>
  </outline>
</glyph>
<glyph name="va-tamil" format="2">
  <advance width="882.9655172413793"/>
  <unicode hex="0BB5"/>
  <note>
uni0BB5
</note>
  <anchor x="468.2068965517241" y="0.0" name="bottom"/>
  <anchor x="717.448275862069" y="557.0344827586207" name="imatra"/>
  <anchor x="466.551724137931" y="0.0" name="nukta"/>
  <anchor x="447.10344827586204" y="557.0344827586207" name="top"/>
  <anchor x="431.3448275862069" y="557.0344827586207" name="vedic"/>
  <outline>
    <contour>
      <point x="216.51724137931035" y="-5.0" type="curve" smooth="yes"/>
      <point x="308.55172413793105" y="-5.0"/>
      <point x="364.1379310344828" y="57.82758620689655"/>
      <point x="364.1379310344828" y="155.31034482758622" type="curve" smooth="yes"/>
      <point x="364.1379310344828" y="248.0344827586207"/>
      <point x="313.8620689655172" y="308.51724137931035"/>
      <point x="237.2758620689655" y="308.51724137931035" type="curve" smooth="yes"/>
      <point x="146.9655172413793" y="308.51724137931035"/>
      <point x="98.58620689655173" y="217.13793103448276"/>
      <point x="96.3103448275862" y="117.72413793103448" type="curve"/>
      <point x="126.79310344827586" y="91.72413793103448" type="line"/>
      <point x="126.62068965517243" y="171.10344827586206"/>
      <point x="158.13793103448276" y="235.72413793103448"/>
      <point x="205.75862068965517" y="235.72413793103448" type="curve" smooth="yes"/>
      <point x="248.7241379310345" y="235.72413793103448"/>
      <point x="267.0" y="192.20689655172413"/>
      <point x="267.0" y="147.93103448275863" type="curve" smooth="yes"/>
      <point x="267.0" y="93.20689655172414"/>
      <point x="248.2758620689655" y="52.86206896551724"/>
      <point x="198.48275862068968" y="52.86206896551724" type="curve" smooth="yes"/>
      <point x="140.13793103448276" y="52.86206896551724"/>
      <point x="99.75862068965517" y="120.68965517241378"/>
      <point x="99.75862068965517" y="251.37931034482762" type="curve" smooth="yes"/>
      <point x="99.75862068965517" y="410.8275862068965"/>
      <point x="175.68965517241378" y="504.7241379310345"/>
      <point x="292.0344827586207" y="504.7241379310345" type="curve" smooth="yes"/>
      <point x="410.7931034482758" y="504.7241379310345"/>
      <point x="483.9655172413793" y="403.6551724137931"/>
      <point x="483.9655172413793" y="257.8275862068965" type="curve" smooth="yes"/>
      <point x="483.9655172413793" y="153.58620689655174"/>
      <point x="456.44827586206895" y="89.75862068965517"/>
      <point x="427.55172413793105" y="41.10344827586207" type="curve"/>
      <point x="443.2068965517242" y="0.0" type="line"/>
      <point x="810.551724137931" y="0.0" type="line"/>
      <point x="810.551724137931" y="557.0344827586207" type="line"/>
      <point x="705.655172413793" y="557.0344827586207" type="line"/>
      <point x="705.655172413793" y="55.93103448275862" type="line"/>
      <point x="506.7241379310345" y="55.93103448275862" type="line"/>
      <point x="548.4827586206897" y="107.3103448275862"/>
      <point x="584.5862068965517" y="171.41379310344828"/>
      <point x="584.5862068965517" y="269.3103448275862" type="curve" smooth="yes"/>
      <point x="584.5862068965517" y="449.8965517241379"/>
      <point x="472.6896551724138" y="562.0344827586207"/>
      <point x="312.6551724137931" y="562.0344827586207" type="curve" smooth="yes"/>
      <point x="149.55172413793102" y="562.0344827586207"/>
      <point x="43.724137931034484" y="441.82758620689657"/>
      <point x="43.724137931034484" y="252.65517241379308" type="curve" smooth="yes"/>
      <point x="43.724137931034484" y="86.58620689655172"/>
      <point x="114.10344827586205" y="-5.0"/>
    </contour>
  </outline>
</glyph>
<glyph name="sa-tamil" format="2">
  <advance width="1083.4137931034484"/>
  <unicode hex="0BB8"/>
  <note>
uni0BB8
</note>
  <anchor x="550.1379310344828" y="0.0" name="bottom"/>
  <anchor x="549.3103448275862" y="0.0" name="nukta"/>
  <anchor x="540.1379310344827" y="557.0344827586207" name="top"/>
  <anchor x="548.3103448275862" y="557.0344827586207" name="vedic"/>
  <outline>
    <contour>
      <point x="468.8965517241379" y="0.0" type="line"/>
      <point x="573.2413793103449" y="0.0" type="line"/>
      <point x="573.2413793103449" y="420.7586206896552" type="line" smooth="yes"/>
      <point x="573.2413793103449" y="474.7586206896552"/>
      <point x="596.2413793103448" y="504.55172413793105"/>
      <point x="638.7586206896552" y="504.55172413793105" type="curve" smooth="yes"/>
      <point x="678.551724137931" y="504.55172413793105"/>
      <point x="699.8275862068965" y="476.9310344827586"/>
      <point x="699.8275862068965" y="430.48275862068965" type="curve" smooth="yes"/>
      <point x="699.8275862068965" y="164.3793103448276" type="line" smooth="yes"/>
      <point x="699.8275862068965" y="51.655172413793096"/>
      <point x="751.1724137931034" y="-0.5517241379310347"/>
      <point x="840.3448275862069" y="-0.5517241379310347" type="curve" smooth="yes"/>
      <point x="957.8275862068965" y="-0.5517241379310347"/>
      <point x="1036.6896551724137" y="108.34482758620689"/>
      <point x="1036.6896551724137" y="282.58620689655174" type="curve" smooth="yes"/>
      <point x="1036.6896551724137" y="391.48275862068965"/>
      <point x="1013.0344827586206" y="465.8620689655172"/>
      <point x="957.0344827586206" y="562.0344827586207" type="curve"/>
      <point x="907.551724137931" y="533.9310344827586" type="line"/>
      <point x="954.1034482758622" y="452.6551724137931"/>
      <point x="980.3793103448276" y="375.93103448275866"/>
      <point x="980.3793103448276" y="289.82758620689657" type="curve" smooth="yes"/>
      <point x="980.3793103448276" y="147.82758620689654"/>
      <point x="930.0" y="62.310344827586206"/>
      <point x="863.1379310344829" y="62.310344827586206" type="curve" smooth="yes"/>
      <point x="822.6206896551723" y="62.310344827586206"/>
      <point x="804.0" y="91.20689655172414"/>
      <point x="804.0" y="162.0" type="curve" smooth="yes"/>
      <point x="804.0" y="409.6896551724138" type="line" smooth="yes"/>
      <point x="804.0" y="512.551724137931"/>
      <point x="741.551724137931" y="561.7586206896551"/>
      <point x="655.1034482758621" y="561.7586206896551" type="curve" smooth="yes"/>
      <point x="563.5172413793103" y="561.7586206896551"/>
      <point x="506.06896551724134" y="502.13793103448273"/>
      <point x="506.06896551724134" y="425.0" type="curve" smooth="yes"/>
      <point x="506.06896551724134" y="345.37931034482756" type="line"/>
      <point x="468.8965517241379" y="345.37931034482756" type="line"/>
    </contour>
    <contour>
      <point x="217.24137931034485" y="-5.0" type="curve" smooth="yes"/>
      <point x="309.0" y="-5.0"/>
      <point x="365.58620689655174" y="57.82758620689655"/>
      <point x="365.58620689655174" y="155.31034482758622" type="curve" smooth="yes"/>
      <point x="365.58620689655174" y="248.0344827586207"/>
      <point x="315.3103448275862" y="308.51724137931035"/>
      <point x="237.72413793103448" y="308.51724137931035" type="curve" smooth="yes"/>
      <point x="148.41379310344828" y="308.51724137931035"/>
      <point x="100.75862068965519" y="217.13793103448276"/>
      <point x="98.48275862068965" y="117.72413793103449" type="curve"/>
      <point x="128.9655172413793" y="91.72413793103448" type="line"/>
      <point x="129.51724137931032" y="171.10344827586206"/>
      <point x="159.58620689655174" y="235.72413793103448"/>
      <point x="206.48275862068962" y="235.72413793103448" type="curve" smooth="yes"/>
      <point x="249.44827586206895" y="235.72413793103448"/>
      <point x="267.72413793103453" y="192.20689655172413"/>
      <point x="267.72413793103453" y="147.93103448275863" type="curve" smooth="yes"/>
      <point x="267.72413793103453" y="93.20689655172414"/>
      <point x="249.44827586206898" y="52.86206896551724"/>
      <point x="199.9310344827586" y="52.86206896551724" type="curve" smooth="yes"/>
      <point x="140.86206896551727" y="52.86206896551724"/>
      <point x="101.93103448275862" y="120.6896551724138"/>
      <point x="101.93103448275862" y="251.3793103448276" type="curve" smooth="yes"/>
      <point x="101.93103448275862" y="402.9310344827586"/>
      <point x="171.68965517241378" y="504.44827586206895"/>
      <point x="295.8620689655172" y="504.44827586206895" type="curve" smooth="yes"/>
      <point x="390.3103448275863" y="504.44827586206895"/>
      <point x="469.17241379310343" y="445.3103448275862"/>
      <point x="469.17241379310343" y="300.7931034482759" type="curve"/>
      <point x="524.9310344827586" y="307.17241379310343" type="line"/>
      <point x="521.2758620689656" y="486.9310344827586"/>
      <point x="417.8620689655173" y="562.0344827586206"/>
      <point x="300.2068965517241" y="562.0344827586206" type="curve" smooth="yes"/>
      <point x="143.17241379310346" y="562.0344827586206"/>
      <point x="45.89655172413793" y="439.3793103448276"/>
      <point x="45.89655172413793" y="252.65517241379308" type="curve" smooth="yes"/>
      <point x="45.89655172413793" y="86.58620689655173"/>
      <point x="115.55172413793103" y="-5.0"/>
    </contour>
  </outline>
</glyph>
<glyph name="ha-tamil" format="2">
  <advance width="1284.6896551724137"/>
  <unicode hex="0BB9"/>
  <note>
uni0BB9
</note>
  <anchor x="661.7586206896552" y="0.0" name="bottom"/>
  <anchor x="662.3103448275863" y="-147.58620689655174" name="nukta"/>
  <anchor x="660.551724137931" y="557.0344827586207" name="top"/>
  <anchor x="646.4827586206897" y="557.0344827586207" name="vedic"/>
  <outline>
    <contour>
      <point x="185.55172413793105" y="-248.10344827586206" type="curve"/>
      <point x="185.55172413793105" y="-176.51724137931035"/>
      <point x="201.55172413793105" y="-132.3793103448276"/>
      <point x="282.17241379310343" y="-132.3793103448276" type="curve" smooth="yes"/>
      <point x="856.3793103448276" y="-132.3793103448276" type="line" smooth="yes"/>
      <point x="1120.2068965517242" y="-132.3793103448276"/>
      <point x="1239.7241379310344" y="-14.655172413793105"/>
      <point x="1239.7241379310344" y="246.2758620689655" type="curve" smooth="yes"/>
      <point x="1239.7241379310344" y="435.1724137931035"/>
      <point x="1169.655172413793" y="562.0344827586207"/>
      <point x="1039.1379310344828" y="562.0344827586207" type="curve" smooth="yes"/>
      <point x="963.4827586206895" y="562.0344827586207"/>
      <point x="923.9655172413793" y="523.1379310344828"/>
      <point x="904.4137931034484" y="480.89655172413796" type="curve"/>
      <point x="889.3103448275863" y="522.1379310344827"/>
      <point x="855.7241379310345" y="561.3103448275862"/>
      <point x="789.6206896551724" y="561.3103448275862" type="curve" smooth="yes"/>
      <point x="721.3103448275863" y="561.3103448275862"/>
      <point x="669.4827586206897" y="512.9310344827586"/>
      <point x="669.4827586206897" y="421.1034482758621" type="curve" smooth="yes"/>
      <point x="669.4827586206897" y="55.93103448275862" type="line"/>
      <point x="506.7241379310345" y="55.93103448275862" type="line"/>
      <point x="548.4827586206897" y="107.3103448275862"/>
      <point x="584.5862068965517" y="171.41379310344828"/>
      <point x="584.5862068965517" y="269.3103448275862" type="curve" smooth="yes"/>
      <point x="584.5862068965517" y="449.8965517241379"/>
      <point x="472.6896551724138" y="562.0344827586207"/>
      <point x="312.6551724137931" y="562.0344827586207" type="curve" smooth="yes"/>
      <point x="149.55172413793102" y="562.0344827586207"/>
      <point x="43.724137931034484" y="441.82758620689657"/>
      <point x="43.724137931034484" y="252.65517241379308" type="curve" smooth="yes"/>
      <point x="43.724137931034484" y="86.58620689655172"/>
      <point x="114.10344827586205" y="-5.0"/>
      <point x="216.51724137931035" y="-5.0" type="curve" smooth="yes"/>
      <point x="308.55172413793105" y="-5.0"/>
      <point x="364.1379310344828" y="57.82758620689655"/>
      <point x="364.1379310344828" y="155.31034482758622" type="curve" smooth="yes"/>
      <point x="364.1379310344828" y="248.0344827586207"/>
      <point x="313.8620689655172" y="308.51724137931035"/>
      <point x="237.2758620689655" y="308.51724137931035" type="curve" smooth="yes"/>
      <point x="146.9655172413793" y="308.51724137931035"/>
      <point x="98.58620689655173" y="217.13793103448276"/>
      <point x="96.3103448275862" y="117.72413793103448" type="curve"/>
      <point x="126.79310344827586" y="91.72413793103448" type="line"/>
      <point x="127.3448275862069" y="171.10344827586206"/>
      <point x="158.13793103448276" y="235.72413793103448"/>
      <point x="205.75862068965517" y="235.72413793103448" type="curve" smooth="yes"/>
      <point x="248.7241379310345" y="235.72413793103448"/>
      <point x="267.0" y="192.20689655172413"/>
      <point x="267.0" y="147.93103448275863" type="curve" smooth="yes"/>
      <point x="267.0" y="93.20689655172414"/>
      <point x="248.2758620689655" y="52.86206896551724"/>
      <point x="198.48275862068968" y="52.86206896551724" type="curve" smooth="yes"/>
      <point x="140.13793103448276" y="52.86206896551724"/>
      <point x="99.75862068965517" y="120.68965517241378"/>
      <point x="99.75862068965517" y="251.37931034482762" type="curve" smooth="yes"/>
      <point x="99.75862068965517" y="410.8275862068965"/>
      <point x="175.68965517241378" y="504.7241379310345"/>
      <point x="292.0344827586207" y="504.7241379310345" type="curve" smooth="yes"/>
      <point x="410.7931034482758" y="504.7241379310345"/>
      <point x="483.9655172413793" y="403.6551724137931"/>
      <point x="483.9655172413793" y="257.8275862068965" type="curve" smooth="yes"/>
      <point x="483.9655172413793" y="153.58620689655174"/>
      <point x="456.44827586206895" y="89.75862068965517"/>
      <point x="427.55172413793105" y="41.10344827586207" type="curve"/>
      <point x="443.2068965517242" y="0.0" type="line"/>
      <point x="728.2413793103448" y="0.0" type="line"/>
      <point x="728.2413793103448" y="419.0" type="line" smooth="yes"/>
      <point x="728.2413793103448" y="477.2758620689655"/>
      <point x="748.6896551724138" y="504.2758620689655"/>
      <point x="788.4137931034484" y="504.2758620689655" type="curve" smooth="yes"/>
      <point x="829.9655172413793" y="504.2758620689655"/>
      <point x="851.1379310344827" y="471.55172413793105"/>
      <point x="851.1379310344827" y="412.82758620689657" type="curve" smooth="yes"/>
      <point x="851.1379310344827" y="0.0" type="line"/>
      <point x="956.8620689655172" y="0.0" type="line"/>
      <point x="956.8620689655172" y="410.17241379310343" type="line" smooth="yes"/>
      <point x="956.8620689655172" y="467.6551724137931"/>
      <point x="985.9310344827586" y="505.0"/>
      <point x="1028.4827586206898" y="505.0" type="curve" smooth="yes"/>
      <point x="1092.9310344827586" y="505.0"/>
      <point x="1131.448275862069" y="437.1034482758621"/>
      <point x="1131.448275862069" y="253.20689655172413" type="curve" smooth="yes"/>
      <point x="1131.448275862069" y="21.82758620689655"/>
      <point x="1057.0344827586207" y="-80.0"/>
      <point x="845.8275862068966" y="-80.0" type="curve" smooth="yes"/>
      <point x="243.3103448275862" y="-80.0" type="line" smooth="yes"/>
      <point x="167.41379310344828" y="-80.0"/>
      <point x="98.44827586206895" y="-97.82758620689656"/>
      <point x="98.44827586206895" y="-173.6896551724138" type="curve" smooth="yes"/>
      <point x="98.44827586206895" y="-225.44827586206895"/>
      <point x="134.0344827586207" y="-248.10344827586206"/>
    </contour>
  </outline>
</glyph>
<glyph name="aaMatra-tamil" format="2">
  <advance width="515.0689655172413"/>
  <unicode hex="0BBE"/>
  <note>
uni0BBE
</note>
  <anchor x="269.2068965517242" y="0.0" name="bottom"/>
  <anchor x="268.2068965517242" y="0.0" name="nukta"/>
  <anchor x="262.2068965517242" y="557.0344827586207" name="top"/>
  <anchor x="262.2068965517242" y="557.0344827586207" name="vedic"/>
  <outline>
    <contour>
      <point x="71.9655172413793" y="0.0" type="line"/>
      <point x="131.44827586206898" y="0.0" type="line"/>
      <point x="131.44827586206898" y="501.3793103448276" type="line"/>
      <point x="273.68965517241384" y="501.3793103448276" type="line"/>
      <point x="273.68965517241384" y="0.0" type="line"/>
      <point x="378.58620689655174" y="0.0" type="line"/>
      <point x="378.58620689655174" y="501.3793103448276" type="line"/>
      <point x="493.4482758620689" y="501.3793103448276" type="line"/>
      <point x="493.4482758620689" y="557.0344827586207" type="line"/>
      <point x="71.9655172413793" y="557.0344827586207" type="line"/>
    </contour>
  </outline>
</glyph>
<glyph name="iMatra-tamil" format="2">
  <advance width="171.9310344827586"/>
  <unicode hex="0BBF"/>
  <note>
uni0BBF
</note>
  <anchor x="-115.44827586206897" y="819.4137931034483" name="top"/>
  <outline>
    <contour>
      <point x="45.10344827586207" y="0.0" type="line"/>
      <point x="103.13793103448276" y="0.0" type="line"/>
      <point x="103.13793103448276" y="566.4482758620691" type="line" smooth="yes"/>
      <point x="103.13793103448276" y="737.6896551724138"/>
      <point x="11.41379310344828" y="819.4137931034483"/>
      <point x="-115.44827586206897" y="819.4137931034483" type="curve" smooth="yes"/>
      <point x="-225.0344827586207" y="819.4137931034483"/>
      <point x="-291.51724137931035" y="745.6896551724137"/>
      <point x="-291.51724137931035" y="646.5862068965517" type="curve" smooth="yes"/>
      <point x="-291.51724137931035" y="556.2068965517242"/>
      <point x="-241.9310344827586" y="501.9310344827586"/>
      <point x="-153.31034482758622" y="501.9310344827586" type="curve" smooth="yes"/>
      <point x="-148.86206896551724" y="501.9310344827586" type="line"/>
      <point x="-148.86206896551724" y="557.0344827586207" type="line"/>
      <point x="-153.31034482758622" y="557.0344827586207" type="line" smooth="yes"/>
      <point x="-194.9655172413793" y="557.0344827586207"/>
      <point x="-225.89655172413796" y="581.3793103448277"/>
      <point x="-225.89655172413796" y="629.8275862068965" type="curve" smooth="yes"/>
      <point x="-225.89655172413796" y="688.5172413793103"/>
      <point x="-181.82758620689657" y="724.6896551724138"/>
      <point x="-116.51724137931035" y="724.6896551724138" type="curve" smooth="yes"/>
      <point x="-23.51724137931035" y="724.6896551724138"/>
      <point x="45.10344827586207" y="672.5172413793102"/>
      <point x="45.10344827586207" y="534.7931034482758" type="curve" smooth="yes"/>
    </contour>
  </outline>
</glyph>
<glyph name="iiMatra-tamil" format="2">
  <unicode hex="0BC0"/>
  <note>
uni0BC0
</note>
  <anchor x="0.0" y="557.0344827586207" name="_imatra"/>
  <anchor x="-2.0000000000000004" y="888.6206896551724" name="top"/>
  <outline>
    <contour>
      <point x="-24.10344827586207" y="505.551724137931" type="curve" smooth="yes"/>
      <point x="0.0" y="505.551724137931" type="line"/>
      <point x="0.0" y="557.0344827586207" type="line"/>
      <point x="-20.827586206896555" y="557.0344827586207" type="line" smooth="yes"/>
      <point x="-83.82758620689654" y="557.0344827586207"/>
      <point x="-121.86206896551725" y="606.2068965517242"/>
      <point x="-121.86206896551725" y="687.3103448275862" type="curve" smooth="yes"/>
      <point x="-121.86206896551725" y="773.8620689655173"/>
      <point x="-89.10344827586208" y="832.1379310344828"/>
      <point x="-9.758620689655173" y="832.1379310344828" type="curve" smooth="yes"/>
      <point x="45.241379310344826" y="832.1379310344828"/>
      <point x="76.58620689655173" y="795.5862068965517"/>
      <point x="76.58620689655173" y="734.9655172413794" type="curve" smooth="yes"/>
      <point x="76.58620689655173" y="689.3448275862069"/>
      <point x="56.13793103448276" y="662.6206896551724"/>
      <point x="24.241379310344826" y="662.6206896551724" type="curve" smooth="yes"/>
      <point x="-34.827586206896555" y="662.6206896551724"/>
      <point x="-45.10344827586207" y="761.2413793103448"/>
      <point x="-9.379310344827587" y="855.1379310344828" type="curve"/>
      <point x="-52.206896551724135" y="859.1379310344828" type="line"/>
      <point x="-107.48275862068965" y="733.6896551724138"/>
      <point x="-73.3103448275862" y="603.3793103448276"/>
      <point x="39.20689655172414" y="603.3793103448276" type="curve" smooth="yes"/>
      <point x="113.75862068965517" y="603.3793103448276"/>
      <point x="161.24137931034483" y="661.2758620689655"/>
      <point x="161.24137931034483" y="731.8620689655172" type="curve" smooth="yes"/>
      <point x="161.24137931034483" y="828.6896551724138"/>
      <point x="99.3103448275862" y="888.6206896551724"/>
      <point x="-2.0000000000000004" y="888.6206896551724" type="curve" smooth="yes"/>
      <point x="-112.86206896551724" y="888.6206896551724"/>
      <point x="-178.34482758620692" y="806.5862068965517"/>
      <point x="-178.34482758620692" y="688.8620689655172" type="curve" smooth="yes"/>
      <point x="-178.34482758620692" y="577.103448275862"/>
      <point x="-119.6896551724138" y="505.551724137931"/>
    </contour>
  </outline>
</glyph>
<glyph name="uMatra-tamil" format="2">
  <advance width="417.7931034482758"/>
  <unicode hex="0BC1"/>
  <note>
uni0BC1
</note>
  <anchor x="162.27586206896552" y="557.0344827586207" name="top"/>
  <outline>
    <contour>
      <point x="243.41379310344828" y="216.20689655172413" type="curve" smooth="yes"/>
      <point x="324.48275862068965" y="216.20689655172413"/>
      <point x="393.5862068965517" y="265.1379310344828"/>
      <point x="393.5862068965517" y="374.3448275862069" type="curve" smooth="yes"/>
      <point x="393.5862068965517" y="557.0344827586207" type="line"/>
      <point x="-204.68965517241378" y="557.0344827586207" type="line"/>
      <point x="-164.9310344827586" y="501.3793103448276" type="line"/>
      <point x="289.13793103448273" y="501.3793103448276" type="line"/>
      <point x="289.13793103448273" y="365.13793103448273" type="line" smooth="yes"/>
      <point x="289.13793103448273" y="308.51724137931035"/>
      <point x="265.2413793103448" y="277.62068965517244"/>
      <point x="223.62068965517244" y="277.62068965517244" type="curve" smooth="yes"/>
      <point x="179.82758620689654" y="277.62068965517244"/>
      <point x="161.6551724137931" y="306.3448275862069"/>
      <point x="161.6551724137931" y="375.68965517241384" type="curve" smooth="yes"/>
      <point x="161.6551724137931" y="524.6551724137931" type="line"/>
      <point x="104.17241379310346" y="524.6551724137931" type="line"/>
      <point x="104.17241379310346" y="380.0689655172414" type="line" smooth="yes"/>
      <point x="104.17241379310346" y="268.13793103448273"/>
      <point x="158.44827586206895" y="216.20689655172413"/>
    </contour>
  </outline>
</glyph>
<glyph name="uuMatra-tamil" format="2">
  <advance width="683.8275862068965"/>
  <unicode hex="0BC2"/>
  <note>
uni0BC2
</note>
  <anchor x="339.65517241379314" y="781.9310344827586" name="top"/>
  <outline>
    <contour>
      <point x="287.41379310344826" y="1.1034482758620694" type="curve" smooth="yes"/>
      <point x="502.5862068965517" y="1.1034482758620694"/>
      <point x="634.5172413793103" y="163.75862068965517"/>
      <point x="634.5172413793103" y="409.89655172413796" type="curve" smooth="yes"/>
      <point x="634.5172413793103" y="625.5172413793103"/>
      <point x="524.0689655172414" y="781.9310344827586"/>
      <point x="339.65517241379314" y="781.9310344827586" type="curve" smooth="yes"/>
      <point x="168.3103448275862" y="781.9310344827586"/>
      <point x="104.17241379310346" y="650.3793103448276"/>
      <point x="104.17241379310346" y="526.2758620689656" type="curve" smooth="yes"/>
      <point x="104.17241379310346" y="380.06896551724134" type="line" smooth="yes"/>
      <point x="104.17241379310346" y="268.13793103448273"/>
      <point x="158.44827586206895" y="216.20689655172413"/>
      <point x="243.4137931034483" y="216.20689655172413" type="curve" smooth="yes"/>
      <point x="324.48275862068965" y="216.20689655172413"/>
      <point x="393.5862068965517" y="265.1379310344828"/>
      <point x="393.5862068965517" y="374.3448275862069" type="curve" smooth="yes"/>
      <point x="393.5862068965517" y="557.0344827586207" type="line"/>
      <point x="-204.1379310344828" y="557.0344827586207" type="line"/>
      <point x="-164.3793103448276" y="501.3793103448276" type="line"/>
      <point x="289.1379310344828" y="501.3793103448276" type="line"/>
      <point x="289.1379310344828" y="365.13793103448273" type="line" smooth="yes"/>
      <point x="289.1379310344828" y="308.51724137931035"/>
      <point x="264.2413793103448" y="277.62068965517244"/>
      <point x="223.6206896551724" y="277.62068965517244" type="curve" smooth="yes"/>
      <point x="179.8275862068965" y="277.62068965517244"/>
      <point x="161.6551724137931" y="306.3448275862069"/>
      <point x="161.6551724137931" y="375.6896551724138" type="curve" smooth="yes"/>
      <point x="161.6551724137931" y="526.2758620689656" type="line" smooth="yes"/>
      <point x="161.6551724137931" y="629.0689655172414"/>
      <point x="208.9310344827586" y="724.7931034482758"/>
      <point x="321.41379310344826" y="724.7931034482758" type="curve" smooth="yes"/>
      <point x="473.93103448275866" y="724.7931034482758"/>
      <point x="526.4137931034483" y="574.1379310344828"/>
      <point x="526.4137931034483" y="423.0689655172414" type="curve" smooth="yes"/>
      <point x="526.4137931034483" y="206.0689655172414"/>
      <point x="441.9310344827586" y="58.96551724137932"/>
      <point x="280.6206896551724" y="58.96551724137932" type="curve" smooth="yes"/>
      <point x="185.0" y="58.96551724137932"/>
      <point x="126.93103448275862" y="94.41379310344828"/>
      <point x="68.20689655172414" y="182.27586206896552" type="curve"/>
      <point x="22.55172413793104" y="147.24137931034485" type="line"/>
      <point x="86.10344827586208" y="56.55172413793103"/>
      <point x="157.72413793103448" y="1.1034482758620694"/>
    </contour>
  </outline>
</glyph>
<glyph name="eMatra-tamil" format="2">
  <advance width="657.8275862068965"/>
  <unicode hex="0BC6"/>
  <note>
uni0BC6
</note>
  <outline>
    <contour>
      <point x="259.96551724137936" y="-5.0" type="curve" smooth="yes"/>
      <point x="352.0" y="-5.0"/>
      <point x="407.58620689655174" y="57.82758620689655"/>
      <point x="407.58620689655174" y="157.75862068965517" type="curve" smooth="yes"/>
      <point x="407.58620689655174" y="252.20689655172416"/>
      <point x="357.3103448275862" y="312.9655172413793"/>
      <point x="280.0" y="312.9655172413793" type="curve" smooth="yes"/>
      <point x="190.68965517241378" y="312.9655172413793"/>
      <point x="138.86206896551724" y="217.86206896551724"/>
      <point x="136.58620689655172" y="116.27586206896551" type="curve"/>
      <point x="169.51724137931035" y="90.0" type="line"/>
      <point x="170.06896551724137" y="172.10344827586206"/>
      <point x="201.86206896551727" y="240.17241379310346"/>
      <point x="249.20689655172416" y="240.17241379310346" type="curve" smooth="yes"/>
      <point x="291.44827586206895" y="240.17241379310346"/>
      <point x="310.44827586206895" y="196.3793103448276"/>
      <point x="310.44827586206895" y="149.6551724137931" type="curve" smooth="yes"/>
      <point x="310.44827586206895" y="93.20689655172414"/>
      <point x="291.72413793103453" y="52.86206896551724"/>
      <point x="242.20689655172413" y="52.86206896551724" type="curve" smooth="yes"/>
      <point x="161.27586206896552" y="52.86206896551724"/>
      <point x="105.0344827586207" y="190.41379310344828"/>
      <point x="105.0344827586207" y="384.17241379310343" type="curve" smooth="yes"/>
      <point x="105.0344827586207" y="597.1724137931034"/>
      <point x="198.6206896551724" y="721.1379310344828"/>
      <point x="341.51724137931035" y="721.1379310344828" type="curve" smooth="yes"/>
      <point x="463.2068965517241" y="721.1379310344828"/>
      <point x="531.2758620689655" y="646.8965517241379"/>
      <point x="531.2758620689655" y="461.7586206896552" type="curve" smooth="yes"/>
      <point x="531.2758620689655" y="0.0" type="line"/>
      <point x="589.0344827586207" y="0.0" type="line"/>
      <point x="589.0344827586207" y="482.0689655172414" type="line" smooth="yes"/>
      <point x="589.0344827586207" y="714.7586206896552"/>
      <point x="500.7241379310344" y="819.4137931034483"/>
      <point x="344.7931034482759" y="819.4137931034483" type="curve" smooth="yes"/>
      <point x="158.0689655172414" y="819.4137931034483"/>
      <point x="49.0" y="640.3793103448276"/>
      <point x="49.0" y="386.8965517241379" type="curve" smooth="yes"/>
      <point x="49.0" y="165.6551724137931"/>
      <point x="128.6206896551724" y="-5.0"/>
    </contour>
  </outline>
</glyph>
<glyph name="eeMatra-tamil" format="2">
  <advance width="501.1034482758621"/>
  <unicode hex="0BC7"/>
  <note>
uni0BC7
</note>
  <outline>
    <contour>
      <point x="300.448275862069" y="-5.0" type="curve" smooth="yes"/>
      <point x="392.20689655172407" y="-5.0"/>
      <point x="456.58620689655174" y="51.6551724137931"/>
      <point x="456.58620689655174" y="157.75862068965517" type="curve" smooth="yes"/>
      <point x="456.58620689655174" y="252.20689655172416"/>
      <point x="406.0344827586207" y="312.9655172413793"/>
      <point x="328.72413793103453" y="312.9655172413793" type="curve" smooth="yes"/>
      <point x="236.41379310344828" y="312.9655172413793"/>
      <point x="189.0344827586207" y="212.68965517241378"/>
      <point x="185.03448275862067" y="98.0344827586207" type="curve"/>
      <point x="222.6896551724138" y="72.03448275862068" type="line"/>
      <point x="224.24137931034485" y="165.9310344827586"/>
      <point x="250.86206896551727" y="240.17241379310343"/>
      <point x="297.48275862068965" y="240.17241379310343" type="curve" smooth="yes"/>
      <point x="340.44827586206895" y="240.17241379310343"/>
      <point x="358.7241379310345" y="196.3793103448276"/>
      <point x="358.7241379310345" y="149.6551724137931" type="curve" smooth="yes"/>
      <point x="358.7241379310345" y="87.31034482758622"/>
      <point x="330.6551724137931" y="52.86206896551724"/>
      <point x="281.13793103448273" y="52.86206896551724" type="curve" smooth="yes"/>
      <point x="200.34482758620692" y="52.86206896551724"/>
      <point x="105.3103448275862" y="211.7241379310345"/>
      <point x="105.3103448275862" y="406.48275862068965" type="curve" smooth="yes"/>
      <point x="105.3103448275862" y="600.2413793103449"/>
      <point x="200.34482758620692" y="762.2758620689655"/>
      <point x="281.13793103448273" y="762.2758620689655" type="curve" smooth="yes"/>
      <point x="330.6551724137931" y="762.2758620689655"/>
      <point x="358.7241379310345" y="727.1034482758621"/>
      <point x="358.7241379310345" y="664.4827586206897" type="curve" smooth="yes"/>
      <point x="358.7241379310345" y="618.0344827586207"/>
      <point x="340.44827586206895" y="574.9655172413793"/>
      <point x="297.48275862068965" y="574.9655172413793" type="curve" smooth="yes"/>
      <point x="250.86206896551727" y="574.9655172413793"/>
      <point x="224.24137931034485" y="648.2068965517241"/>
      <point x="222.6896551724138" y="743.3793103448277" type="curve"/>
      <point x="185.03448275862067" y="717.1034482758621" type="line"/>
      <point x="189.0344827586207" y="602.448275862069"/>
      <point x="236.41379310344828" y="501.448275862069"/>
      <point x="328.72413793103453" y="501.448275862069" type="curve" smooth="yes"/>
      <point x="406.0344827586207" y="501.448275862069"/>
      <point x="456.58620689655174" y="562.6551724137931"/>
      <point x="456.58620689655174" y="657.3793103448276" type="curve" smooth="yes"/>
      <point x="456.58620689655174" y="762.7586206896551"/>
      <point x="392.20689655172407" y="819.4137931034483"/>
      <point x="300.448275862069" y="819.4137931034483" type="curve" smooth="yes"/>
      <point x="159.68965517241378" y="819.4137931034483"/>
      <point x="49.275862068965516" y="629.1724137931035"/>
      <point x="49.275862068965516" y="408.2068965517241" type="curve" smooth="yes"/>
      <point x="49.275862068965516" y="186.96551724137933"/>
      <point x="159.68965517241378" y="-5.0"/>
    </contour>
  </outline>
</glyph>
